#N canvas 994 264 1074 778 10;
#X obj 984 77 pack f f;
#X obj 1002 48 t b f;
#X obj 970 18 ctlin;
#X obj 41 34 notein;
#X obj 512 69 bendin;
#X obj 98 619 ctlin 1;
#X obj 748 56 touchin;
#X obj 98 642 expr pow(2 \, $f1/12);
#X obj 748 80 expr ($f1/282) + 0.25;
#X obj 41 702 controls_volume;
#X obj 41 727 dac~;
#X obj 41 679 adc~;
#X connect 1 0 0 0;
#X connect 1 1 0 1;
#X connect 2 0 1 0;
#X connect 2 1 0 0;
#X connect 5 0 7 0;
#X connect 6 0 8 0;
#X connect 9 0 10 0;
#X connect 11 0 9 0;
