#N canvas 780 396 370 309 12;
#X obj 76 146 wrap~;
#X obj 58 169 -~;
#X obj 57 238 outlet~;
#X obj 59 40 inlet~ Audio;
#X obj 186 148 wrap~;
#X obj 168 171 -~;
#X obj 59 87 *~ -1;
#X obj 58 192 *~ -1;
#X obj 58 215 +~, f 16;
#X text 163 45 ¯_(ツ)_/¯;
#X text 165 83 |expr~| not supported;
#X text 165 67 HVCC compatible since;
#X obj 59 110 clip~ 0 1e+37;
#X obj 167 110 clip~ 0 1e+37;
#X connect 0 0 1 1;
#X connect 1 0 7 0;
#X connect 3 0 6 0;
#X connect 3 0 13 0;
#X connect 4 0 5 1;
#X connect 5 0 8 1;
#X connect 6 0 12 0;
#X connect 7 0 8 0;
#X connect 8 0 2 0;
#X connect 12 0 0 0;
#X connect 12 0 1 0;
#X connect 13 0 4 0;
#X connect 13 0 5 0;
