#N canvas 779 396 317 454 12;
#X msg 154 162 0.5;
#X obj 154 187 pow, f 5;
#X obj 58 228 /~, f 9;
#X obj 59 358 *~, f 14;
#X obj 154 113 i;
#X obj 77 289 wrap~;
#X obj 59 335 -~;
#X obj 77 312 -~ 0.5;
#X obj 77 266 +~ 0.5;
#X obj 221 381 outlet;
#X obj 59 382 outlet~;
#X obj 187 162 - 1;
#X obj 154 136 t b f f, f 10;
#X obj 57 136 soft_limit;
#X obj 154 90 + 0.5;
#X obj 154 67 clip 1 16;
#X obj 57 44 inlet~ Audio;
#X obj 154 44 inlet BitDepth;
#X connect 0 0 1 0;
#X connect 1 0 2 1;
#X connect 1 0 3 1;
#X connect 2 0 6 0;
#X connect 2 0 8 0;
#X connect 3 0 10 0;
#X connect 4 0 12 0;
#X connect 5 0 7 0;
#X connect 6 0 3 0;
#X connect 7 0 6 1;
#X connect 8 0 5 0;
#X connect 11 0 1 1;
#X connect 12 0 0 0;
#X connect 12 1 11 0;
#X connect 12 2 9 0;
#X connect 13 0 2 0;
#X connect 14 0 4 0;
#X connect 15 0 14 0;
#X connect 16 0 13 0;
#X connect 17 0 15 0;
