#N canvas 780 396 343 410 12;
#X msg 175 162 0.5;
#X obj 175 187 pow, f 5;
#X obj 59 285 *~, f 17;
#X obj 175 113 i;
#X obj 242 334 outlet;
#X obj 59 334 outlet~;
#X obj 175 136 t b f f, f 10;
#X obj 175 67 clip 1 16;
#X obj 58 44 inlet~ Audio;
#X obj 175 44 inlet BitDepth;
#X obj 59 310 lowpass_filter;
#X obj 58 237 /~;
#X obj 59 261 bitcrusher_hvcc;
#X obj 175 90 + 0.5;
#X connect 0 0 1 0;
#X connect 1 0 11 1;
#X connect 1 0 2 1;
#X connect 2 0 10 0;
#X connect 3 0 6 0;
#X connect 6 0 0 0;
#X connect 6 1 1 1;
#X connect 6 2 4 0;
#X connect 7 0 13 0;
#X connect 8 0 11 0;
#X connect 9 0 7 0;
#X connect 10 0 5 0;
#X connect 11 0 12 0;
#X connect 12 0 2 0;
#X connect 13 0 3 0;
