#N canvas 874 138 1183 608 10;
#X obj 25 42 cnv 15 950 520 empty empty WAVESHAPE 22 70 0 20 #333243 #9798aa 0;
#X obj 370 286 vsl 30 256 -0.6 0.8 0 1 \$0-KWarp empty Warp 1 -9 0 10 #bc00dd #000000 #cecfd9 10800 1;
#X obj 296 286 vsl 30 256 0 1.5708 0 1 \$0-Blend empty Blend 0 -9 0 10 #bc00dd #000000 #cecfd9 25500 1;
#X obj 333 286 vsl 30 256 0 2 0 1 \$0-Rectify empty Rekt 1 -9 0 10 #bc00dd #000000 #cecfd9 22500 1;
#X obj 526 286 vsl 30 256 0.001 0.6 1 1 \$0-OscUpMix empty Level 0 -9 0 10 #a100f2 #000000 #cecfd9 16800 1;
#X obj 50 286 vsl 30 256 0.001 0.8 1 1 \$0-SubLevel empty Sub 0 -9 0 10 #f20048 #000000 #cecfd9 16000 1;
#X obj 489 286 vsl 30 256 0 24 0 1 \$0-OscUpTune empty Tune 0 -9 0 10 #a100f2 #000000 #cecfd9 18100 1;
#X obj 132 286 vsl 30 256 0.001 0.8 1 1 \$0-OscDownMix empty Level 0 -9 0 10 #f20089 #000000 #cecfd9 16100 1;
#X obj 177 286 vsl 30 256 0.001 1 1 1 \$0-OscSine empty Sine 0 -9 0 10 #db00b6 #000000 #cecfd9 25500 1;
#X obj 251 286 vsl 30 256 0.001 1 1 1 \$0-OscPulse empty Pulse 0 -9 0 10 #db00b6 #000000 #cecfd9 0 1;
#X obj 214 286 vsl 30 256 0.001 1 1 1 \$0-OscSaw empty Saw 0 -9 0 10 #db00b6 #000000 #cecfd9 0 1;
#X obj 406 286 vsl 30 256 0.25 1 0 1 \$0-scThresh empty Cube 0 -9 0 10 #bc00dd #000000 #cecfd9 25500 1;
#X obj 444 286 vsl 30 256 0 1 0 1 \$0-skClip empty Soft 0 -9 0 10 #bc00dd #000000 #cecfd9 19800 1;
#X obj 665 393 cnv 18 310 145 empty empty LP 5 30 0 18 #414055 #9798aa 0;
#X obj 703 388 hsl 256 25 5 10000 1 1 \$0-LPCutoff empty Cutoff -2 -8 0 10 #48bfe3 #000000 #cecfd9 6600 1;
#X obj 703 519 hsl 256 25 0.01 1 1 1 \$0-LPSustain empty Sustain -2 -8 0 10 #48bfe3 #000000 #cecfd9 4700 1;
#X obj 488 68 cnv 18 150 110 empty empty PITCH\ BEND\ RANGE 20 12 0 12 #414055 #aaabb9 0;
#X obj 517 93 vradio 15 1 0 5 \$0-BendRange empty empty 0 -8 0 10 #ff6600 #000000 #000000 0;
#X obj 665 74 cnv 18 310 100 empty empty FM 5 30 0 18 #414055 #9798aa 0;
#X obj 703 155 hsl 256 25 0.0001 1 0 1 \$0-FMSustain empty Sustain -2 -8 0 10 #80ffdb #000000 #cecfd9 22700 1;
#X obj 665 212 cnv 18 310 145 empty empty empty 5 30 0 20 #414055 #676767 0;
#X obj 703 294 hsl 256 25 0.0001 1 0 1 \$0-Sustain empty Sustain -2 -8 0 10 #64dfdf #000000 #cecfd9 16800 1;
#X obj 278 77 cnv 18 185 85 empty empty empty 10 10 0 14 #414055 #676767 0;
#X obj 292 102 vradio 15 1 0 3 \$0-OscSubType empty SB 1 -8 0 10 #ffcc33 #000000 #cecfd9 0;
#X obj 320 102 vradio 15 1 0 3 \$0-OscDownType empty DN 1 -8 0 10 #ffb833 #000000 #cecfd9 0;
#X obj 348 102 vradio 15 1 0 3 \$0-OscUpType empty UP 1 -8 0 10 #ff9933 #000000 #cecfd9 0;
#X obj 376 102 vradio 15 1 0 3 \$0-OscFMType empty FM 1 -8 0 10 #ff8533 #000000 #cecfd9 0;
#X obj 566 256 cnv 18 20 20 empty empty FM 5 10 0 10 #333243 #9798aa 0;
#X obj 571 286 vsl 30 256 0.1 6000 1 1 \$0-FM empty Freq 0 -9 0 10 #6a00f4 #000000 #cecfd9 19600 1;
#X obj 604 256 cnv 18 30 20 empty empty FM 5 10 0 10 #333243 #9798aa 0;
#X obj 608 286 vsl 30 256 0.001 1 1 1 \$0-FMDepth empty Depth 0 -9 0 10 #6a00f4 #000000 #cecfd9 20700 1;
#X obj 472 205 hsl 165 25 0.05 0.5 0 0 \$0-PulseWidth \$0-InletPWM Pulse\ Width -2 -8 0 10 #3ae21d #000000 #cecfd9 0 1;
#X obj 994 43 cnv 16 160 200 empty empty empty 20 12 0 10 #ebebeb #404040 0;
#N canvas 52 149 1482 723 CoreUI 0;
#X obj 75 58 r \$0-Attack;
#X obj 90 82 r \$0-Decay;
#X obj 105 148 r \$0-Sustain;
#X obj 853 398 r \$0-Blend;
#X obj 896 418 r \$0-Rectify;
#X obj 119 171 r \$0-Release;
#X obj 724 338 r \$0-FMDepth;
#X obj 464 217 r \$0-SubLevel;
#X obj 390 37 / 128;
#X obj 390 63 moses 63;
#X obj 435 211 *;
#X obj 435 86 moses 65;
#X msg 435 113 0;
#X obj 480 136 div 1;
#X obj 480 159 / 64;
#X obj 537 160 t b f;
#X msg 537 112 2;
#X msg 570 112 3;
#X msg 604 112 4;
#X msg 639 112 6;
#X msg 673 112 12;
#X obj 537 66 loadbang;
#X obj 594 42 r \$0-BendRange;
#X obj 594 66 sel 0 1 2 3 4;
#X obj 480 113 - 63.9;
#X obj 390 88 - 64;
#X obj 134 193 r \$0-FMAttack;
#X obj 149 216 r \$0-FMDecay;
#X obj 164 280 r \$0-FMSustain;
#X obj 767 358 r \$0-PulseWidth;
#X obj 390 113 / 64;
#X obj 163 260 s \$0-FMDecayValue;
#X obj 104 127 s \$0-DecayValue;
#X obj 508 238 r \$0-OscDownMix;
#X obj 551 258 r \$0-OscDownTune;
#X obj 595 278 r \$0-OscUpMix;
#X obj 638 298 r \$0-OscUpTune;
#X obj 681 318 r \$0-FM;
#X obj 223 366 r \$0-LPSustain;
#X obj 208 345 r \$0-LPDecay;
#X obj 193 324 r \$0-LPAttack;
#X obj 178 302 r \$0-LPCutoff;
#X obj 111 453 r \$0-OscDownTune;
#X obj 111 497 s \$0-ODTValue;
#X obj 238 453 r \$0-OscUpTune;
#X obj 238 497 s \$0-OUTValue;
#X obj 939 438 r \$0-OscSine;
#X obj 982 458 r \$0-OscSaw;
#X obj 1025 478 r \$0-OscPulse;
#X obj 1068 498 r \$0-OscSubType;
#X obj 1111 519 r \$0-OscDownType;
#X obj 1154 539 r \$0-OscUpType;
#X obj 1197 559 r \$0-OscFMType;
#X text 111 517 ODTValue and OUTValue are used in UI;
#X obj 435 980 outlet;
#X obj 46 980 outlet;
#X obj 46 11 inlet notein;
#X obj 60 35 inlet velocityin;
#X obj 390 11 inlet bendin;
#X obj 1246 637 s \$0-BitDepthInt;
#X obj 1246 580 r \$0-BitDepth;
#X obj 464 238 t b f;
#X obj 508 258 t b f;
#X obj 551 278 t b f;
#X obj 595 298 t b f;
#X obj 638 318 t b f;
#X obj 681 338 t b f;
#X obj 724 358 t b f;
#X obj 767 378 t b f;
#X obj 810 398 t b f;
#X obj 853 418 t b f;
#X obj 896 438 t b f;
#X obj 939 458 t b f;
#X obj 982 478 t b f;
#X obj 1025 498 t b f;
#X obj 1068 519 t b f;
#X obj 1111 539 t b f;
#X obj 1154 559 t b f;
#X obj 1197 580 t b f;
#X obj 1209 637 t b f;
#X obj 1246 659 r \$0-Gain;
#X obj 1203 736 t b f;
#X obj 1246 736 s \$0-GainDisplay;
#X obj 1246 779 t b f;
#X obj 1294 800 t b f;
#X obj 1294 779 r \$0-skClip;
#X obj 1246 758 r \$0-scThresh;
#X obj 46 393 pack f f f f f f f f f f f f f;
#X obj 1342 842 t b f;
#X obj 1342 800 r \$0-Unison;
#X obj 435 952 pack f f f f f f f f f f f f f f f f f f f f f f f f;
#X obj 1342 821 - 0.1;
#X obj 737 51 / 2;
#X obj 737 71 * 0.9;
#X obj 737 91 + 0.05;
#X obj 737 112 s \$0-InletPWM;
#X obj 737 12 inlet pwmin;
#X obj 847 11 inlet midictlin;
#X obj 847 77 route 32 51 7 52 10 53 74 54 71 55 73 56 72 57 91 58 92;
#X text 847 97 configured for Nocturn25 controller;
#X obj 111 475 i;
#X obj 238 475 i;
#X obj 810 378 r \$0-KWarp;
#X obj 1246 618 i;
#X obj 1246 599 + 0.5;
#X obj 1203 717 pow, f 6;
#X obj 1203 679 t b f, f 6;
#X msg 1203 696 10;
#X obj 1246 679 * 200;
#X obj 1246 698 i;
#X obj 1246 717 / 10;
#X obj 90 104 - 1;
#X obj 149 238 - 1;
#X obj 847 57 pack f f;
#X obj 847 38 t b f, f 8;
#X connect 0 0 87 2;
#X connect 1 0 111 0;
#X connect 2 0 87 4;
#X connect 3 0 70 0;
#X connect 4 0 71 0;
#X connect 5 0 87 5;
#X connect 6 0 67 0;
#X connect 7 0 61 0;
#X connect 8 0 9 0;
#X connect 9 0 25 0;
#X connect 9 1 11 0;
#X connect 10 0 90 0;
#X connect 11 0 12 0;
#X connect 11 1 24 0;
#X connect 12 0 10 0;
#X connect 13 0 14 0;
#X connect 14 0 10 0;
#X connect 15 0 10 0;
#X connect 15 1 10 1;
#X connect 16 0 15 0;
#X connect 17 0 15 0;
#X connect 18 0 15 0;
#X connect 19 0 15 0;
#X connect 20 0 15 0;
#X connect 21 0 16 0;
#X connect 22 0 23 0;
#X connect 23 0 16 0;
#X connect 23 1 17 0;
#X connect 23 2 18 0;
#X connect 23 3 19 0;
#X connect 23 4 20 0;
#X connect 24 0 13 0;
#X connect 25 0 30 0;
#X connect 26 0 87 6;
#X connect 27 0 112 0;
#X connect 28 0 87 8;
#X connect 29 0 68 0;
#X connect 30 0 10 0;
#X connect 33 0 62 0;
#X connect 34 0 63 0;
#X connect 35 0 64 0;
#X connect 36 0 65 0;
#X connect 37 0 66 0;
#X connect 38 0 87 12;
#X connect 39 0 87 11;
#X connect 40 0 87 10;
#X connect 41 0 87 9;
#X connect 42 0 100 0;
#X connect 44 0 101 0;
#X connect 46 0 72 0;
#X connect 47 0 73 0;
#X connect 48 0 74 0;
#X connect 49 0 75 0;
#X connect 50 0 76 0;
#X connect 51 0 77 0;
#X connect 52 0 78 0;
#X connect 56 0 87 0;
#X connect 57 0 87 1;
#X connect 58 0 8 0;
#X connect 60 0 104 0;
#X connect 61 0 90 0;
#X connect 61 1 90 1;
#X connect 62 0 90 0;
#X connect 62 1 90 2;
#X connect 63 0 90 0;
#X connect 63 1 90 3;
#X connect 64 0 90 0;
#X connect 64 1 90 4;
#X connect 65 0 90 0;
#X connect 65 1 90 5;
#X connect 66 0 90 0;
#X connect 66 1 90 6;
#X connect 67 0 90 0;
#X connect 67 1 90 7;
#X connect 68 0 90 0;
#X connect 68 1 90 8;
#X connect 69 0 90 0;
#X connect 69 1 90 9;
#X connect 70 0 90 0;
#X connect 70 1 90 10;
#X connect 71 0 90 0;
#X connect 71 1 90 11;
#X connect 72 0 90 0;
#X connect 72 1 90 12;
#X connect 73 0 90 0;
#X connect 73 1 90 13;
#X connect 74 0 90 0;
#X connect 74 1 90 14;
#X connect 75 0 90 0;
#X connect 75 1 90 15;
#X connect 76 0 90 0;
#X connect 76 1 90 16;
#X connect 77 0 90 0;
#X connect 77 1 90 17;
#X connect 78 0 90 0;
#X connect 78 1 90 18;
#X connect 79 0 90 0;
#X connect 79 1 90 19;
#X connect 80 0 106 0;
#X connect 80 0 108 0;
#X connect 81 0 90 0;
#X connect 81 1 90 20;
#X connect 83 0 90 0;
#X connect 83 1 90 21;
#X connect 84 0 90 0;
#X connect 84 1 90 22;
#X connect 85 0 84 0;
#X connect 86 0 83 0;
#X connect 87 0 55 0;
#X connect 88 0 90 0;
#X connect 88 1 90 23;
#X connect 89 0 91 0;
#X connect 90 0 54 0;
#X connect 91 0 88 0;
#X connect 92 0 93 0;
#X connect 93 0 94 0;
#X connect 94 0 95 0;
#X connect 96 0 92 0;
#X connect 97 0 114 0;
#X connect 100 0 43 0;
#X connect 101 0 45 0;
#X connect 102 0 69 0;
#X connect 103 0 59 0;
#X connect 103 0 79 0;
#X connect 104 0 103 0;
#X connect 105 0 81 0;
#X connect 106 0 107 0;
#X connect 106 1 105 1;
#X connect 107 0 105 0;
#X connect 108 0 109 0;
#X connect 109 0 110 0;
#X connect 110 0 82 0;
#X connect 111 0 32 0;
#X connect 111 0 87 3;
#X connect 112 0 31 0;
#X connect 112 0 87 7;
#X connect 113 0 98 0;
#X connect 114 0 113 0;
#X connect 114 1 113 1;
#X restore 1010 173 pd CoreUI;
#X obj 1010 66 inlet note;
#X obj 1022 86 inlet velocity;
#X obj 1048 126 inlet PWM;
#X obj 1035 106 inlet bend;
#X obj 1061 146 inlet midictl;
#X obj 1010 201 outlet;
#X obj 1061 201 outlet;
#X obj 418 191 cnv 18 25 20 empty empty empty 20 10 0 12 #cecfd9 #aaabb9 0;
#X floatatom 418 190 4 0 0 0 - \$0-BitDepthInt - 0;
#X obj 277 204 hsl 165 25 1 12 0 0 \$0-BitDepth empty Bit\ Depth -2 -8 0 10 #1ee171 #000000 #cecfd9 0 1;
#X obj 397 102 cnv 16 1 1 empty empty Sine 5 8 0 10 #414055 #cecfd9 0;
#X obj 397 117 cnv 16 1 1 empty empty Sawtooth 5 8 0 10 #414055 #cecfd9 0;
#X obj 397 132 cnv 16 1 1 empty empty Pulse 5 8 0 10 #414055 #cecfd9 0;
#X obj 539 93 cnv 16 1 1 empty empty 2\ Semitones 5 8 0 10 #414055 #cecfd9 0;
#X obj 539 108 cnv 16 1 1 empty empty 3\ Semitones 5 8 0 10 #414055 #cecfd9 0;
#X obj 539 123 cnv 16 1 1 empty empty 4\ Semitones 5 8 0 10 #414055 #cecfd9 0;
#X obj 539 138 cnv 16 1 1 empty empty Half\ Octave 5 8 0 10 #414055 #cecfd9 0;
#X obj 539 153 cnv 16 1 1 empty empty Full\ Octave 5 8 0 10 #414055 #cecfd9 0;
#X obj 467 232 cnv 16 1 1 empty empty 5% 5 8 0 10 #333243 #cecfd9 0;
#X obj 613 232 cnv 16 1 1 empty empty 50% 5 8 0 10 #333243 #cecfd9 0;
#X obj 180 230 cnv 10 25 14 empty empty empty 20 10 0 12 #cecfd9 #aaabb9 0;
#X floatatom 180 229 4 0 0 0 - \$0-GainDisplay - 0;
#X obj 95 255 cnv 10 25 14 empty empty empty 20 10 0 12 #cecfd9 #aaabb9 0;
#X floatatom 95 254 4 0 0 0 - \$0-ODTValue - 0;
#X obj 95 286 vsl 30 256 -24 0 0 1 \$0-OscDownTune empty Tune 0 -9 0 10 #f20089 #000000 #cecfd9 16100 1;
#X obj 489 254 cnv 10 25 14 empty empty empty 20 10 0 12 #cecfd9 #aaabb9 0;
#X floatatom 489 253 4 0 0 0 - \$0-OUTValue - 0;
#X obj 929 418 cnv 10 31 18 empty empty empty 20 10 0 12 #cecfd9 #aaabb9 0;
#X obj 703 432 hsl 256 25 2 2000 1 1 \$0-LPAttack empty Attack -2 -8 0 10 #48bfe3 #000000 #cecfd9 11500 1;
#X floatatom 929 417 5 0 0 0 - \$0-LPAttack - 0;
#X obj 929 462 cnv 10 31 18 empty empty empty 20 10 0 12 #cecfd9 #aaabb9 0;
#X obj 703 476 hsl 256 25 20 2000 1 1 \$0-LPDecay empty Decay -2 -8 0 10 #48bfe3 #000000 #cecfd9 6400 1;
#X floatatom 929 461 5 0 0 0 - \$0-LPDecay - 0;
#X obj 929 192 cnv 10 31 18 empty empty empty 20 10 0 12 #cecfd9 #aaabb9 0;
#X floatatom 929 191 5 0 0 0 - \$0-Attack - 0;
#X obj 703 206 hsl 256 25 0.3 1000 1 1 \$0-Attack empty Attack -2 -8 0 10 #64dfdf #000000 #cecfd9 5900 1;
#X obj 929 236 cnv 10 31 18 empty empty empty 20 10 0 12 #cecfd9 #aaabb9 0;
#X floatatom 929 235 5 0 0 0 - \$0-DecayValue - 0;
#X obj 703 250 hsl 256 25 1 5001 1 1 \$0-Decay empty Decay -2 -8 0 10 #64dfdf #000000 #cecfd9 17300 1;
#X obj 929 324 cnv 10 31 18 empty empty empty 20 10 0 12 #cecfd9 #aaabb9 0;
#X floatatom 929 323 5 0 0 0 - \$0-Release - 0;
#X obj 703 338 hsl 256 25 1 2000 1 1 \$0-Release empty Release -2 -8 0 10 #64dfdf #000000 #cecfd9 17900 1;
#X obj 929 54 cnv 10 31 18 empty empty empty 20 10 0 12 #cecfd9 #aaabb9 0;
#X floatatom 929 53 5 0 0 0 - \$0-FMAttack - 0;
#X obj 703 68 hsl 256 25 0.3 2000 1 1 \$0-FMAttack empty Attack -2 -8 0 10 #80ffdb #000000 #cecfd9 8900 1;
#X obj 929 98 cnv 10 31 18 empty empty empty 20 10 0 12 #cecfd9 #aaabb9 0;
#X floatatom 929 97 5 0 0 0 - \$0-FMDecayValue - 0;
#X obj 703 112 hsl 256 25 1 5001 1 1 \$0-FMDecay empty Decay -2 -8 0 10 #80ffdb #000000 #cecfd9 16700 1;
#X obj 95 122 cnv 15 20 20 empty empty SYNTH 0 10 0 20 #333243 #9798aa 0;
#X obj 122 140 cnv 15 20 20 empty empty v1.1 0 10 0 14 #333243 #9798aa 0;
#X text 28 25 NOTE;
#X text 240 25 VELOCITY;
#X text 923 25 MIDI CTL;
#X text 472 25 PITCHBEND;
#X text 708 25 PWM WIDTH;
#X text 27 563 MIDI DATA;
#X text 822 563 REALTIME CONTROLLER DATA;
#X obj 180 90 vsl 26 136 -0.3 0.3 0 0 \$0-Gain empty Gain 0 -9 0 10 #17e8b9 #000000 #cecfd9 0 1;
#X obj 224 90 vsl 25 136 0.1 2.7 0 0 \$0-Unison empty Unison 0 -9 0 10 #abec13 #000000 #cecfd9 0 1;
#X connect 33 0 39 0;
#X connect 33 1 40 0;
#X connect 34 0 33 0;
#X connect 35 0 33 1;
#X connect 36 0 33 3;
#X connect 37 0 33 2;
#X connect 38 0 33 4;
#X coords 0 0 1 1 950 555 2 25 25;
