#N canvas 895 323 342 231 10;
#X obj 58 108 line~;
#X obj 58 86 pack f 10;
#X obj 43 130 *~;
#X obj 43 29 inlet~;
#X obj 43 155 *~;
#X obj 125 86 > 0.001;
#X obj 106 29 r Volume @hvcc_param 0.001 1 0.5;
#X obj 43 180 outlet~;
#X connect 0 0 2 1;
#X connect 1 0 0 0;
#X connect 2 0 4 0;
#X connect 3 0 2 0;
#X connect 4 0 7 0;
#X connect 5 0 4 1;
#X connect 6 0 1 0;
#X connect 6 0 5 0;
