#N canvas 313 195 826 513 12;
#X obj 36 269 encoder_index, f 46;
#X obj 355 224 loadbang;
#X obj 36 364 sel 0 1 2 3 4 5 6 7 8 9 10 11 12 13 14 15;
#N canvas 240 229 819 811 Preset-0 0;
#X obj 33 25 inlet;
#X obj 482 649 s \$0-Gain;
#X obj 408 649 s \$0-Unison;
#X obj 707 758 s \$0-skClip;
#X obj 621 758 s \$0-scThresh;
#X obj 281 329 s \$0-LPSustain;
#X obj 202 329 s \$0-LPDecay;
#X obj 117 329 s \$0-LPAttack;
#X obj 32 329 s \$0-LPCutoff;
#X obj 197 244 s \$0-FMSustain;
#X obj 118 244 s \$0-FMDecay;
#X obj 33 244 s \$0-FMAttack;
#X obj 250 154 s \$0-Release;
#X obj 171 154 s \$0-Sustain;
#X obj 105 154 s \$0-Decay;
#X obj 33 154 s \$0-Attack;
#X obj 408 231 s \$0-SubLevel;
#X obj 408 330 s \$0-OscDownMix;
#X obj 505 330 s \$0-OscDownTune;
#X obj 408 433 s \$0-OscUpMix;
#X obj 493 433 s \$0-OscUpTune;
#X obj 408 537 s \$0-FM, f 9;
#X obj 470 537 s \$0-FMDepth;
#X obj 629 649 s \$0-PulseWidth;
#X obj 554 758 s \$0-KWarp;
#X obj 408 758 s \$0-Blend;
#X obj 475 758 s \$0-Rectify;
#X obj 408 147 s \$0-OscSine;
#X obj 487 147 s \$0-OscSaw;
#X obj 561 147 s \$0-OscPulse;
#X obj 493 231 s \$0-OscSubType;
#X obj 608 330 s \$0-OscDownType;
#X obj 584 433 s \$0-OscUpType;
#X obj 550 537 s \$0-OscFMType;
#X obj 544 649 s \$0-BitDepth;
#X obj 33 47 b;
#X msg 493 211 0, f 8;
#X msg 608 310 0, f 8;
#X msg 584 413 0, f 8;
#X msg 550 516 0, f 8;
#X msg 408 629 0, f 8;
#X msg 482 629 0, f 8;
#X msg 554 738 0, f 8;
#X msg 33 134 1.839, f 8;
#X msg 250 134 207.5, f 8;
#X msg 171 134 0.658, f 8;
#X msg 33 224 6.482, f 8;
#X msg 197 224 0.89, f 8;
#X msg 32 309 35.75, f 8;
#X msg 117 309 45.07, f 8;
#X msg 202 309 63.53, f 8;
#X msg 281 309 0.023, f 8;
#X msg 408 127 1, f 8;
#X msg 487 127 0.001, f 8;
#X msg 561 127 0.001, f 8;
#X msg 505 310 -7, f 8;
#X msg 493 413 17, f 8;
#X msg 544 629 12, f 8;
#X msg 629 629 0.426, f 8;
#X msg 408 738 1.5708, f 8;
#X msg 475 738 1.764, f 8;
#X msg 621 738 1, f 8;
#X msg 707 738 0.776471;
#X obj 32 432 s \$0-BendRange;
#X msg 32 412 0;
#X msg 408 211 0.663051;
#X msg 408 310 0.0680662;
#X msg 408 413 0.0676568;
#X msg 408 517 470.563, f 8;
#X msg 470 516 0.272455;
#X msg 118 224 264.5, f 8;
#X msg 105 134 357.3, f 8;
#X obj 33 69 s \$0-SetPreset-0;
#X obj 33 93 r \$0-SetPreset-0, f 56;
#X obj 34 187 r \$0-SetPreset-0, f 56;
#X obj 32 272 r \$0-SetPreset-0, f 56;
#X obj 32 375 r \$0-SetPreset-0, f 56;
#X obj 408 93 r \$0-SetPreset-0, f 56;
#X obj 408 187 r \$0-SetPreset-0, f 56;
#X obj 408 272 r \$0-SetPreset-0, f 56;
#X obj 408 375 r \$0-SetPreset-0, f 56;
#X obj 408 479 r \$0-SetPreset-0, f 56;
#X obj 408 585 r \$0-SetPreset-0, f 56;
#X obj 408 697 r \$0-SetPreset-0, f 56;
#X connect 0 0 35 0;
#X connect 35 0 72 0;
#X connect 36 0 30 0;
#X connect 37 0 31 0;
#X connect 38 0 32 0;
#X connect 39 0 33 0;
#X connect 40 0 2 0;
#X connect 41 0 1 0;
#X connect 42 0 24 0;
#X connect 43 0 15 0;
#X connect 44 0 12 0;
#X connect 45 0 13 0;
#X connect 46 0 11 0;
#X connect 47 0 9 0;
#X connect 48 0 8 0;
#X connect 49 0 7 0;
#X connect 50 0 6 0;
#X connect 51 0 5 0;
#X connect 52 0 27 0;
#X connect 53 0 28 0;
#X connect 54 0 29 0;
#X connect 55 0 18 0;
#X connect 56 0 20 0;
#X connect 57 0 34 0;
#X connect 58 0 23 0;
#X connect 59 0 25 0;
#X connect 60 0 26 0;
#X connect 61 0 4 0;
#X connect 62 0 3 0;
#X connect 64 0 63 0;
#X connect 65 0 16 0;
#X connect 66 0 17 0;
#X connect 67 0 19 0;
#X connect 68 0 21 0;
#X connect 69 0 22 0;
#X connect 70 0 10 0;
#X connect 71 0 14 0;
#X connect 73 0 43 0;
#X connect 73 0 71 0;
#X connect 73 0 45 0;
#X connect 73 0 44 0;
#X connect 74 0 46 0;
#X connect 74 0 70 0;
#X connect 74 0 47 0;
#X connect 75 0 48 0;
#X connect 75 0 49 0;
#X connect 75 0 50 0;
#X connect 75 0 51 0;
#X connect 76 0 64 0;
#X connect 77 0 52 0;
#X connect 77 0 53 0;
#X connect 77 0 54 0;
#X connect 78 0 65 0;
#X connect 78 0 36 0;
#X connect 79 0 66 0;
#X connect 79 0 55 0;
#X connect 79 0 37 0;
#X connect 80 0 67 0;
#X connect 80 0 56 0;
#X connect 80 0 38 0;
#X connect 81 0 68 0;
#X connect 81 0 69 0;
#X connect 81 0 39 0;
#X connect 82 0 40 0;
#X connect 82 0 41 0;
#X connect 82 0 57 0;
#X connect 82 0 58 0;
#X connect 83 0 42 0;
#X connect 83 0 59 0;
#X connect 83 0 60 0;
#X connect 83 0 61 0;
#X connect 83 0 62 0;
#X restore 36 460 pd Preset-0;
#N canvas 240 229 819 811 Preset-2 0;
#X obj 33 25 inlet;
#X obj 482 649 s \$0-Gain;
#X obj 408 649 s \$0-Unison;
#X obj 707 758 s \$0-skClip;
#X obj 621 758 s \$0-scThresh;
#X obj 281 329 s \$0-LPSustain;
#X obj 202 329 s \$0-LPDecay;
#X obj 117 329 s \$0-LPAttack;
#X obj 32 329 s \$0-LPCutoff;
#X obj 197 244 s \$0-FMSustain;
#X obj 118 244 s \$0-FMDecay;
#X obj 33 244 s \$0-FMAttack;
#X obj 250 154 s \$0-Release;
#X obj 171 154 s \$0-Sustain;
#X obj 105 154 s \$0-Decay;
#X obj 33 154 s \$0-Attack;
#X obj 408 231 s \$0-SubLevel;
#X obj 408 330 s \$0-OscDownMix;
#X obj 505 330 s \$0-OscDownTune;
#X obj 408 433 s \$0-OscUpMix;
#X obj 493 433 s \$0-OscUpTune;
#X obj 408 537 s \$0-FM, f 9;
#X obj 470 537 s \$0-FMDepth;
#X obj 629 649 s \$0-PulseWidth;
#X obj 554 758 s \$0-KWarp;
#X obj 408 758 s \$0-Blend;
#X obj 475 758 s \$0-Rectify;
#X obj 408 147 s \$0-OscSine;
#X obj 487 147 s \$0-OscSaw;
#X obj 561 147 s \$0-OscPulse;
#X obj 493 231 s \$0-OscSubType;
#X obj 608 330 s \$0-OscDownType;
#X obj 584 433 s \$0-OscUpType;
#X obj 550 537 s \$0-OscFMType;
#X obj 544 649 s \$0-BitDepth;
#X obj 33 47 b;
#X msg 493 211 0, f 8;
#X msg 608 310 0, f 8;
#X msg 584 413 0, f 8;
#X msg 550 516 0, f 8;
#X msg 408 629 0, f 8;
#X msg 482 629 0, f 8;
#X msg 554 738 0, f 8;
#X msg 250 134 207.5, f 8;
#X msg 171 134 0.658, f 8;
#X msg 33 224 6.482, f 8;
#X msg 197 224 0.89, f 8;
#X msg 32 309 35.75, f 8;
#X msg 117 309 45.07, f 8;
#X msg 202 309 63.53, f 8;
#X msg 281 309 0.023, f 8;
#X msg 408 127 1, f 8;
#X msg 487 127 0.001, f 8;
#X msg 561 127 0.001, f 8;
#X msg 505 310 -7, f 8;
#X msg 493 413 17, f 8;
#X msg 544 629 12, f 8;
#X msg 629 629 0.426, f 8;
#X msg 408 738 1.5708, f 8;
#X msg 475 738 1.764, f 8;
#X msg 621 738 1, f 8;
#X obj 32 432 s \$0-BendRange;
#X msg 32 412 0;
#X msg 408 211 0.663051;
#X msg 408 310 0.0680662;
#X msg 408 413 0.0676568;
#X msg 408 517 470.563, f 8;
#X msg 470 516 0.272455;
#X msg 118 224 264.5, f 8;
#X msg 105 134 357.3, f 8;
#X msg 707 738 0.376471;
#X obj 33 69 s \$0-SetPreset-2;
#X obj 33 93 r \$0-SetPreset-2, f 56;
#X obj 33 187 r \$0-SetPreset-2, f 56;
#X obj 32 272 r \$0-SetPreset-2, f 56;
#X obj 32 375 r \$0-SetPreset-2, f 56;
#X obj 408 93 r \$0-SetPreset-2, f 56;
#X obj 408 187 r \$0-SetPreset-2, f 56;
#X obj 408 272 r \$0-SetPreset-2, f 56;
#X obj 409 375 r \$0-SetPreset-2, f 56;
#X obj 408 479 r \$0-SetPreset-2, f 56;
#X obj 408 585 r \$0-SetPreset-2, f 56;
#X obj 408 697 r \$0-SetPreset-2, f 56;
#X msg 33 134 50.839, f 8;
#X connect 0 0 35 0;
#X connect 35 0 71 0;
#X connect 36 0 30 0;
#X connect 37 0 31 0;
#X connect 38 0 32 0;
#X connect 39 0 33 0;
#X connect 40 0 2 0;
#X connect 41 0 1 0;
#X connect 42 0 24 0;
#X connect 43 0 12 0;
#X connect 44 0 13 0;
#X connect 45 0 11 0;
#X connect 46 0 9 0;
#X connect 47 0 8 0;
#X connect 48 0 7 0;
#X connect 49 0 6 0;
#X connect 50 0 5 0;
#X connect 51 0 27 0;
#X connect 52 0 28 0;
#X connect 53 0 29 0;
#X connect 54 0 18 0;
#X connect 55 0 20 0;
#X connect 56 0 34 0;
#X connect 57 0 23 0;
#X connect 58 0 25 0;
#X connect 59 0 26 0;
#X connect 60 0 4 0;
#X connect 62 0 61 0;
#X connect 63 0 16 0;
#X connect 64 0 17 0;
#X connect 65 0 19 0;
#X connect 66 0 21 0;
#X connect 67 0 22 0;
#X connect 68 0 10 0;
#X connect 69 0 14 0;
#X connect 70 0 3 0;
#X connect 72 0 83 0;
#X connect 72 0 69 0;
#X connect 72 0 44 0;
#X connect 72 0 43 0;
#X connect 73 0 45 0;
#X connect 73 0 68 0;
#X connect 73 0 46 0;
#X connect 74 0 47 0;
#X connect 74 0 48 0;
#X connect 74 0 49 0;
#X connect 74 0 50 0;
#X connect 75 0 62 0;
#X connect 76 0 51 0;
#X connect 76 0 52 0;
#X connect 76 0 53 0;
#X connect 77 0 63 0;
#X connect 77 0 36 0;
#X connect 78 0 64 0;
#X connect 78 0 54 0;
#X connect 78 0 37 0;
#X connect 79 0 65 0;
#X connect 79 0 55 0;
#X connect 79 0 38 0;
#X connect 80 0 66 0;
#X connect 80 0 67 0;
#X connect 80 0 39 0;
#X connect 81 0 40 0;
#X connect 81 0 41 0;
#X connect 81 0 56 0;
#X connect 81 0 57 0;
#X connect 82 0 42 0;
#X connect 82 0 58 0;
#X connect 82 0 59 0;
#X connect 82 0 60 0;
#X connect 82 0 70 0;
#X connect 83 0 15 0;
#X restore 71 412 pd Preset-2;
#N canvas 240 229 816 815 Preset-3 0;
#X obj 33 25 inlet;
#X obj 482 649 s \$0-Gain;
#X obj 408 649 s \$0-Unison;
#X obj 707 758 s \$0-skClip;
#X obj 621 758 s \$0-scThresh;
#X obj 281 329 s \$0-LPSustain;
#X obj 202 329 s \$0-LPDecay;
#X obj 117 329 s \$0-LPAttack;
#X obj 32 329 s \$0-LPCutoff;
#X obj 197 244 s \$0-FMSustain;
#X obj 118 244 s \$0-FMDecay;
#X obj 33 244 s \$0-FMAttack;
#X obj 250 154 s \$0-Release;
#X obj 171 154 s \$0-Sustain;
#X obj 105 154 s \$0-Decay;
#X obj 33 154 s \$0-Attack;
#X obj 408 231 s \$0-SubLevel;
#X obj 408 330 s \$0-OscDownMix;
#X obj 505 330 s \$0-OscDownTune;
#X obj 408 433 s \$0-OscUpMix;
#X obj 493 433 s \$0-OscUpTune;
#X obj 408 537 s \$0-FM, f 9;
#X obj 470 537 s \$0-FMDepth;
#X obj 629 649 s \$0-PulseWidth;
#X obj 554 758 s \$0-KWarp;
#X obj 408 758 s \$0-Blend;
#X obj 475 758 s \$0-Rectify;
#X obj 408 147 s \$0-OscSine;
#X obj 487 147 s \$0-OscSaw;
#X obj 561 147 s \$0-OscPulse;
#X obj 493 231 s \$0-OscSubType;
#X obj 608 330 s \$0-OscDownType;
#X obj 584 433 s \$0-OscUpType;
#X obj 550 537 s \$0-OscFMType;
#X obj 544 649 s \$0-BitDepth;
#X obj 33 47 b;
#X msg 493 211 0, f 8;
#X msg 608 310 0, f 8;
#X msg 584 413 0, f 8;
#X msg 550 516 0, f 8;
#X msg 408 629 0, f 8;
#X msg 482 629 0, f 8;
#X msg 554 738 0, f 8;
#X msg 250 134 207.5, f 8;
#X msg 171 134 0.658, f 8;
#X msg 33 224 6.482, f 8;
#X msg 197 224 0.89, f 8;
#X msg 32 309 35.75, f 8;
#X msg 117 309 45.07, f 8;
#X msg 202 309 63.53, f 8;
#X msg 281 309 0.023, f 8;
#X msg 408 127 1, f 8;
#X msg 487 127 0.001, f 8;
#X msg 561 127 0.001, f 8;
#X msg 505 310 -7, f 8;
#X msg 493 413 17, f 8;
#X msg 544 629 12, f 8;
#X msg 629 629 0.426, f 8;
#X msg 408 738 1.5708, f 8;
#X msg 475 738 1.764, f 8;
#X msg 621 738 1, f 8;
#X obj 32 432 s \$0-BendRange;
#X msg 32 412 0;
#X msg 408 211 0.663051;
#X msg 408 310 0.0680662;
#X msg 408 413 0.0676568;
#X msg 408 517 470.563, f 8;
#X msg 470 516 0.272455;
#X msg 118 224 264.5, f 8;
#X msg 105 134 357.3, f 8;
#X msg 707 738 0.476471;
#X obj 33 69 s \$0-SetPreset-3;
#X obj 33 93 r \$0-SetPreset-3, f 56;
#X obj 33 187 r \$0-SetPreset-3, f 56;
#X obj 32 272 r \$0-SetPreset-3, f 56;
#X obj 32 375 r \$0-SetPreset-3, f 56;
#X obj 408 93 r \$0-SetPreset-3, f 56;
#X obj 408 187 r \$0-SetPreset-3, f 56;
#X obj 408 272 r \$0-SetPreset-3, f 56;
#X obj 408 375 r \$0-SetPreset-3, f 56;
#X obj 408 479 r \$0-SetPreset-3, f 56;
#X obj 408 585 r \$0-SetPreset-3, f 56;
#X obj 408 697 r \$0-SetPreset-3, f 56;
#X msg 33 134 100.839, f 8;
#X connect 0 0 35 0;
#X connect 35 0 71 0;
#X connect 36 0 30 0;
#X connect 37 0 31 0;
#X connect 38 0 32 0;
#X connect 39 0 33 0;
#X connect 40 0 2 0;
#X connect 41 0 1 0;
#X connect 42 0 24 0;
#X connect 43 0 12 0;
#X connect 44 0 13 0;
#X connect 45 0 11 0;
#X connect 46 0 9 0;
#X connect 47 0 8 0;
#X connect 48 0 7 0;
#X connect 49 0 6 0;
#X connect 50 0 5 0;
#X connect 51 0 27 0;
#X connect 52 0 28 0;
#X connect 53 0 29 0;
#X connect 54 0 18 0;
#X connect 55 0 20 0;
#X connect 56 0 34 0;
#X connect 57 0 23 0;
#X connect 58 0 25 0;
#X connect 59 0 26 0;
#X connect 60 0 4 0;
#X connect 62 0 61 0;
#X connect 63 0 16 0;
#X connect 64 0 17 0;
#X connect 65 0 19 0;
#X connect 66 0 21 0;
#X connect 67 0 22 0;
#X connect 68 0 10 0;
#X connect 69 0 14 0;
#X connect 70 0 3 0;
#X connect 72 0 83 0;
#X connect 72 0 69 0;
#X connect 72 0 44 0;
#X connect 72 0 43 0;
#X connect 73 0 45 0;
#X connect 73 0 68 0;
#X connect 73 0 46 0;
#X connect 74 0 47 0;
#X connect 74 0 48 0;
#X connect 74 0 49 0;
#X connect 74 0 50 0;
#X connect 75 0 62 0;
#X connect 76 0 51 0;
#X connect 76 0 52 0;
#X connect 76 0 53 0;
#X connect 77 0 63 0;
#X connect 77 0 36 0;
#X connect 78 0 64 0;
#X connect 78 0 54 0;
#X connect 78 0 37 0;
#X connect 79 0 65 0;
#X connect 79 0 55 0;
#X connect 79 0 38 0;
#X connect 80 0 66 0;
#X connect 80 0 67 0;
#X connect 80 0 39 0;
#X connect 81 0 40 0;
#X connect 81 0 41 0;
#X connect 81 0 56 0;
#X connect 81 0 57 0;
#X connect 82 0 42 0;
#X connect 82 0 58 0;
#X connect 82 0 59 0;
#X connect 82 0 60 0;
#X connect 82 0 70 0;
#X connect 83 0 15 0;
#X restore 89 388 pd Preset-3;
#N canvas 240 229 819 811 Preset-1 0;
#X obj 33 25 inlet;
#X obj 482 649 s \$0-Gain;
#X obj 408 649 s \$0-Unison;
#X obj 707 758 s \$0-skClip;
#X obj 621 758 s \$0-scThresh;
#X obj 281 329 s \$0-LPSustain;
#X obj 202 329 s \$0-LPDecay;
#X obj 117 329 s \$0-LPAttack;
#X obj 32 329 s \$0-LPCutoff;
#X obj 197 244 s \$0-FMSustain;
#X obj 118 244 s \$0-FMDecay;
#X obj 33 244 s \$0-FMAttack;
#X obj 250 154 s \$0-Release;
#X obj 171 154 s \$0-Sustain;
#X obj 105 154 s \$0-Decay;
#X obj 33 154 s \$0-Attack;
#X obj 408 231 s \$0-SubLevel;
#X obj 408 330 s \$0-OscDownMix;
#X obj 505 330 s \$0-OscDownTune;
#X obj 408 433 s \$0-OscUpMix;
#X obj 493 433 s \$0-OscUpTune;
#X obj 408 537 s \$0-FM, f 9;
#X obj 470 537 s \$0-FMDepth;
#X obj 629 649 s \$0-PulseWidth;
#X obj 554 758 s \$0-KWarp;
#X obj 408 758 s \$0-Blend;
#X obj 475 758 s \$0-Rectify;
#X obj 408 147 s \$0-OscSine;
#X obj 487 147 s \$0-OscSaw;
#X obj 561 147 s \$0-OscPulse;
#X obj 493 231 s \$0-OscSubType;
#X obj 608 330 s \$0-OscDownType;
#X obj 584 433 s \$0-OscUpType;
#X obj 550 537 s \$0-OscFMType;
#X obj 544 649 s \$0-BitDepth;
#X obj 33 47 b;
#X msg 493 211 0, f 8;
#X msg 608 310 0, f 8;
#X msg 584 413 0, f 8;
#X msg 550 516 0, f 8;
#X msg 408 629 0, f 8;
#X msg 482 629 0, f 8;
#X msg 554 738 0, f 8;
#X msg 250 134 207.5, f 8;
#X msg 171 134 0.658, f 8;
#X msg 33 224 6.482, f 8;
#X msg 197 224 0.89, f 8;
#X msg 32 309 35.75, f 8;
#X msg 117 309 45.07, f 8;
#X msg 202 309 63.53, f 8;
#X msg 281 309 0.023, f 8;
#X msg 408 127 1, f 8;
#X msg 487 127 0.001, f 8;
#X msg 561 127 0.001, f 8;
#X msg 505 310 -7, f 8;
#X msg 493 413 17, f 8;
#X msg 544 629 12, f 8;
#X msg 629 629 0.426, f 8;
#X msg 408 738 1.5708, f 8;
#X msg 475 738 1.764, f 8;
#X msg 621 738 1, f 8;
#X obj 32 432 s \$0-BendRange;
#X msg 32 412 0;
#X msg 408 211 0.663051;
#X msg 408 310 0.0680662;
#X msg 408 413 0.0676568;
#X msg 408 517 470.563, f 8;
#X msg 470 516 0.272455;
#X msg 118 224 264.5, f 8;
#X msg 105 134 357.3, f 8;
#X msg 707 738 0.276471;
#X obj 33 69 s \$0-SetPreset-1;
#X obj 33 93 r \$0-SetPreset-1, f 56;
#X obj 33 187 r \$0-SetPreset-1, f 56;
#X obj 32 272 r \$0-SetPreset-1, f 56;
#X obj 32 375 r \$0-SetPreset-1, f 56;
#X obj 408 93 r \$0-SetPreset-1, f 56;
#X obj 408 187 r \$0-SetPreset-1, f 56;
#X obj 408 272 r \$0-SetPreset-1, f 56;
#X obj 408 375 r \$0-SetPreset-1, f 56;
#X obj 408 479 r \$0-SetPreset-1, f 56;
#X obj 408 585 r \$0-SetPreset-1, f 56;
#X obj 408 697 r \$0-SetPreset-1, f 56;
#X msg 33 134 10.839, f 8;
#X connect 0 0 35 0;
#X connect 35 0 71 0;
#X connect 36 0 30 0;
#X connect 37 0 31 0;
#X connect 38 0 32 0;
#X connect 39 0 33 0;
#X connect 40 0 2 0;
#X connect 41 0 1 0;
#X connect 42 0 24 0;
#X connect 43 0 12 0;
#X connect 44 0 13 0;
#X connect 45 0 11 0;
#X connect 46 0 9 0;
#X connect 47 0 8 0;
#X connect 48 0 7 0;
#X connect 49 0 6 0;
#X connect 50 0 5 0;
#X connect 51 0 27 0;
#X connect 52 0 28 0;
#X connect 53 0 29 0;
#X connect 54 0 18 0;
#X connect 55 0 20 0;
#X connect 56 0 34 0;
#X connect 57 0 23 0;
#X connect 58 0 25 0;
#X connect 59 0 26 0;
#X connect 60 0 4 0;
#X connect 62 0 61 0;
#X connect 63 0 16 0;
#X connect 64 0 17 0;
#X connect 65 0 19 0;
#X connect 66 0 21 0;
#X connect 67 0 22 0;
#X connect 68 0 10 0;
#X connect 69 0 14 0;
#X connect 70 0 3 0;
#X connect 72 0 83 0;
#X connect 72 0 69 0;
#X connect 72 0 44 0;
#X connect 72 0 43 0;
#X connect 73 0 45 0;
#X connect 73 0 68 0;
#X connect 73 0 46 0;
#X connect 74 0 47 0;
#X connect 74 0 48 0;
#X connect 74 0 49 0;
#X connect 74 0 50 0;
#X connect 75 0 62 0;
#X connect 76 0 51 0;
#X connect 76 0 52 0;
#X connect 76 0 53 0;
#X connect 77 0 63 0;
#X connect 77 0 36 0;
#X connect 78 0 64 0;
#X connect 78 0 54 0;
#X connect 78 0 37 0;
#X connect 79 0 65 0;
#X connect 79 0 55 0;
#X connect 79 0 38 0;
#X connect 80 0 66 0;
#X connect 80 0 67 0;
#X connect 80 0 39 0;
#X connect 81 0 40 0;
#X connect 81 0 41 0;
#X connect 81 0 56 0;
#X connect 81 0 57 0;
#X connect 82 0 42 0;
#X connect 82 0 58 0;
#X connect 82 0 59 0;
#X connect 82 0 60 0;
#X connect 82 0 70 0;
#X connect 83 0 15 0;
#X restore 53 436 pd Preset-1;
#N canvas 410 236 650 376 PresetIndicator 0;
#X obj 33 306 rgb_index-8, f 34;
#X obj 74 203 i;
#X obj 74 87 b;
#X obj 329 161 delay 500 1 msec;
#X obj 74 129 delay 750 1 msec;
#X msg 329 203 0;
#X obj 33 107 + 4;
#X obj 329 306 rgb_index-8, f 34;
#X obj 329 325 s \$0-led2_red;
#X obj 429 325 s \$0-led2_green;
#X obj 530 325 s \$0-led2_blue;
#X obj 193 182 i;
#X obj 89 182 r \$0-led1_index;
#X obj 208 161 r \$0-led2_index;
#X obj 33 325 s \$0-led1_red;
#X obj 133 325 s \$0-led1_green;
#X obj 234 325 s \$0-led1_blue;
#X obj 439 141 / 4;
#X obj 439 161 i;
#X obj 33 87 mod 4;
#X obj 439 181 + 4;
#X obj 33 27 inlet PresetIndex;
#X obj 33 47 clip 0 16;
#X connect 0 0 14 0;
#X connect 0 1 15 0;
#X connect 0 2 16 0;
#X connect 1 0 0 0;
#X connect 2 0 4 0;
#X connect 2 0 3 0;
#X connect 3 0 5 0;
#X connect 4 0 1 0;
#X connect 4 0 11 0;
#X connect 5 0 0 0;
#X connect 5 0 7 0;
#X connect 6 0 0 0;
#X connect 7 0 8 0;
#X connect 7 1 9 0;
#X connect 7 2 10 0;
#X connect 11 0 7 0;
#X connect 12 0 1 1;
#X connect 13 0 11 1;
#X connect 17 0 18 0;
#X connect 18 0 20 0;
#X connect 19 0 6 0;
#X connect 20 0 7 0;
#X connect 21 0 22 0;
#X connect 22 0 19 0;
#X connect 22 0 2 0;
#X connect 22 0 17 0;
#X restore 46 295 pd PresetIndicator;
#X msg 355 245 4;
#N canvas 437 208 551 294 Daisy-Pod-UI-Sim 0;
#X obj 20 26 cnv 15 300 70 empty empty Daisy\\\ Pod 4 60 0 14 #202020
#dfdfdf 0;
#X obj 42 50 tgl 15 0 empty \$0-sw1_press empty 17 7 0 10 #202020 #ff0400
#dfdfdf 0 1;
#X obj 27 50 bng 15 250 50 0 \$0-sw1 empty empty 17 7 0 10 #fcfcfc
#000000 #000000;
#X obj 27 40 tgl 10 0 empty \$0-led1_red empty 17 7 0 10 #ff534f #000000
#000000 0 1;
#X obj 37 40 tgl 10 0 empty \$0-led1_green empty 17 7 0 10 #46ff4a
#000000 #000000 0 1;
#X obj 47 40 tgl 10 0 empty \$0-led1_blue empty 17 7 0 10 #5e59ff #000000
#000000 0 1;
#X obj 96 40 hsl 64 25 0 1 0 1 \$0-knob1 empty empty -2 -8 0 10 #feac01
#000000 #000000 4850 1;
#X obj 168 40 hsl 64 25 0 1 0 1 \$0-knob2 empty empty -2 -8 0 10 #feac01
#000000 #000000 3750 1;
#X obj 75 50 tgl 15 0 empty \$0-sw2_press empty 17 7 0 10 #202020 #ff0400
#dfdfdf 0 1;
#X obj 60 50 bng 15 250 50 0 \$0-sw2 empty empty 17 7 0 10 #fcfcfc
#000000 #000000;
#X obj 60 40 tgl 10 0 empty \$0-led2_red empty 17 7 0 10 #ff534f #000000
#000000 0 1;
#X obj 70 40 tgl 10 0 empty \$0-led2_green empty 17 7 0 10 #46ff4a
#000000 #000000 0 1;
#X obj 80 40 tgl 10 0 empty \$0-led2_blue empty 17 7 0 10 #5e59ff #000000
#000000 0 1;
#X obj 237 40 cnv 15 76 39 \$0-encoder-negative empty empty 20 12 0
14 #9f9f9f #000000 0;
#X obj 291 44 bng 15 250 50 0 \$0-encoder-positive empty empty 17 7
0 10 #fcfcfc #000000 #000000;
#X obj 267 60 tgl 15 0 empty \$0-encoder_press empty 17 7 0 10 #9f9f9f
#ff0400 #ffffff 0 1;
#X obj 267 44 bng 15 250 50 0 \$0-encoder-rise empty empty 17 7 0 10
#ffffff #000000 #000000;
#X obj 243 44 bng 15 250 50 0 \$0-encoder-negative empty empty 17 7
0 10 #fcfcfc #000000 #000000;
#X text 289 59 +1;
#X text 242 59 -1;
#X obj 20 20 cnv 15 300 17 empty empty sw1\\\ sw2\\\ \\\ \\\ knob1\\\ \\\ \\\ \\\ knob2\\\ \\\ \\\ encoder
10 10 0 14 #606060 #dfdfdf 0;
#X obj 21 115 r \$0-sw1;
#X obj 21 228 *, f 9;
#X msg 97 199 0;
#X msg 58 199 1;
#X msg 21 199 1;
#X obj 21 169 t b b;
#X obj 65 169 t b b;
#X obj 21 251 s \$0-sw1_press;
#X obj 180 229 *, f 9;
#X msg 257 200 0;
#X msg 218 200 1;
#X msg 180 200 1;
#X obj 180 170 t b b;
#X obj 225 170 t b b;
#X obj 180 116 r \$0-sw2;
#X obj 180 252 s \$0-sw2_press;
#X obj 340 231 *, f 9;
#X msg 417 202 0;
#X msg 379 202 1;
#X msg 340 202 1;
#X obj 340 172 t b b;
#X obj 385 172 t b b;
#X obj 340 254 s \$0-encoder_press;
#X obj 385 148 delay 50 1 msec;
#X obj 225 146 delay 50 1 msec;
#X obj 65 145 delay 50 1 msec;
#X msg 331 64 1;
#X msg 376 65 -1;
#X obj 376 43 r \$0-encoder-negative;
#X obj 331 21 r \$0-encoder-positive;
#X obj 331 90 s \$0-encoder;
#X obj 340 118 r \$0-encoder-rise;
#X connect 21 0 26 0;
#X connect 21 0 46 0;
#X connect 22 0 28 0;
#X connect 23 0 22 1;
#X connect 24 0 22 1;
#X connect 25 0 22 0;
#X connect 26 0 25 0;
#X connect 26 1 24 0;
#X connect 27 0 25 0;
#X connect 27 1 23 0;
#X connect 29 0 36 0;
#X connect 30 0 29 1;
#X connect 31 0 29 1;
#X connect 32 0 29 0;
#X connect 33 0 32 0;
#X connect 33 1 31 0;
#X connect 34 0 32 0;
#X connect 34 1 30 0;
#X connect 35 0 33 0;
#X connect 35 0 45 0;
#X connect 37 0 43 0;
#X connect 38 0 37 1;
#X connect 39 0 37 1;
#X connect 40 0 37 0;
#X connect 41 0 40 0;
#X connect 41 1 39 0;
#X connect 42 0 40 0;
#X connect 42 1 38 0;
#X connect 44 0 42 0;
#X connect 45 0 34 0;
#X connect 46 0 27 0;
#X connect 47 0 51 0;
#X connect 48 0 51 0;
#X connect 49 0 48 0;
#X connect 50 0 47 0;
#X connect 52 0 41 0;
#X connect 52 0 44 0;
#X coords 0 -1 1 1 300 77 2 20 20;
#X restore 43 42 pd Daisy-Pod-UI-Sim;
#X obj 428 65 switch_index;
#X obj 439 199 s \$0-led1_red;
#X obj 560 199 s \$0-led1_green;
#X obj 681 199 s \$0-led1_blue;
#X obj 439 174 rgb_index-8, f 35;
#X obj 428 144 + 1;
#X obj 428 292 switch_index;
#X obj 439 401 rgb_index-8, f 35;
#X obj 439 426 s \$0-led2_red;
#X obj 560 426 s \$0-led2_green;
#X obj 681 426 s \$0-led2_blue;
#X obj 428 371 + 1;
#X text 454 144 add 1 to skip the 'all off' state;
#X text 454 371 add 1 to skip the 'all off' state;
#X obj 428 224 s \$0-led1_index;
#X obj 428 451 s \$0-led2_index;
#X obj 436 117 loadbang;
#X obj 436 344 loadbang;
#X obj 428 42 r \$0-sw1;
#X obj 428 269 r \$0-sw2;
#N canvas 612 188 392 315 knob2-control 0;
#X obj 172 18 r \$0-knob2;
#X obj 32 18 inlet SwitchIndex;
#X obj 230 260 s \$0-BitDepth;
#X obj 131 260 s \$0-LPAttack;
#X obj 32 260 s \$0-Release;
#X obj 32 85 pack f f;
#X obj 32 109 route 0 1 2, f 43;
#X obj 53 62 t b f;
#X obj 32 210 * 2000;
#X obj 230 235 i;
#X obj 230 210 + 1.5;
#X obj 230 185 * 11;
#X obj 131 210 * 2000;
#X obj 32 235 + 1;
#X obj 131 235 + 2;
#X obj 32 186 *, f 5;
#X obj 32 160 *;
#X obj 32 134 t f f;
#X obj 131 186 *, f 5;
#X obj 131 160 *;
#X obj 131 134 t f f;
#X connect 0 0 7 0;
#X connect 1 0 5 0;
#X connect 5 0 6 0;
#X connect 6 0 17 0;
#X connect 6 1 20 0;
#X connect 6 2 11 0;
#X connect 7 0 5 0;
#X connect 7 1 5 1;
#X connect 8 0 13 0;
#X connect 9 0 2 0;
#X connect 10 0 9 0;
#X connect 11 0 10 0;
#X connect 12 0 14 0;
#X connect 13 0 4 0;
#X connect 14 0 3 0;
#X connect 15 0 8 0;
#X connect 16 0 15 0;
#X connect 17 0 16 0;
#X connect 17 1 15 1;
#X connect 17 1 16 1;
#X connect 18 0 12 0;
#X connect 19 0 18 0;
#X connect 20 0 19 0;
#X connect 20 1 18 1;
#X connect 20 1 19 1;
#X restore 436 319 pd knob2-control;
#N canvas 226 189 381 310 knob1-control 0;
#X obj 32 18 inlet SwitchIndex;
#X obj 32 83 pack f f;
#X obj 32 107 route 0 1 2, f 43;
#X obj 53 59 t b f;
#X obj 32 182 *, f 5;
#X obj 32 156 *;
#X obj 173 18 r \$0-knob1;
#X obj 131 257 s \$0-LPCutoff;
#X obj 230 257 s \$0-Gain;
#X obj 32 257 s \$0-Attack;
#X obj 32 232 + 0.3;
#X obj 32 208 * 1000;
#X obj 131 208 pow, f 5;
#X obj 131 155 t b f;
#X msg 131 183 10;
#X obj 131 130 * 4;
#X obj 131 232 + 4;
#X obj 230 208 * 0.6;
#X obj 230 232 - 0.3;
#X obj 32 130 t f f;
#X connect 0 0 1 0;
#X connect 1 0 2 0;
#X connect 2 0 19 0;
#X connect 2 1 15 0;
#X connect 2 2 17 0;
#X connect 3 0 1 0;
#X connect 3 1 1 1;
#X connect 4 0 11 0;
#X connect 5 0 4 0;
#X connect 6 0 3 0;
#X connect 10 0 9 0;
#X connect 11 0 10 0;
#X connect 12 0 16 0;
#X connect 13 0 14 0;
#X connect 13 1 12 1;
#X connect 14 0 12 0;
#X connect 15 0 13 0;
#X connect 16 0 7 0;
#X connect 17 0 18 0;
#X connect 18 0 8 0;
#X connect 19 0 5 0;
#X connect 19 1 4 1;
#X connect 19 1 5 1;
#X restore 436 92 pd knob1-control;
#X obj 42 132 r \$0-Attack;
#X obj 136 132 r \$0-LPCutoff;
#X obj 238 132 r \$0-Gain;
#X obj 42 179 r \$0-Release;
#X obj 136 179 r \$0-LPAttack;
#X obj 238 179 r \$0-BitDepth;
#X floatatom 238 202 5 0 0 0 - - - 0;
#X floatatom 136 202 5 0 0 0 - - - 0;
#X floatatom 42 202 5 0 0 0 - - - 0;
#X floatatom 238 155 5 0 0 0 - - - 0;
#X floatatom 136 155 5 0 0 0 - - - 0;
#X floatatom 42 155 5 0 0 0 - - - 0;
#X obj 36 245 r \$0-encoder;
#X obj 36 342 i;
#X obj 46 317 r \$0-encoder-rise;
#X connect 0 0 7 0;
#X connect 0 0 45 0;
#X connect 1 0 8 0;
#X connect 2 0 3 0;
#X connect 2 1 6 0;
#X connect 2 2 4 0;
#X connect 2 3 5 0;
#X connect 8 0 0 1;
#X connect 10 0 15 0;
#X connect 10 0 31 0;
#X connect 14 0 11 0;
#X connect 14 1 12 0;
#X connect 14 2 13 0;
#X connect 15 0 14 0;
#X connect 15 0 24 0;
#X connect 16 0 21 0;
#X connect 16 0 30 0;
#X connect 17 0 18 0;
#X connect 17 1 19 0;
#X connect 17 2 20 0;
#X connect 21 0 17 0;
#X connect 21 0 25 0;
#X connect 26 0 15 0;
#X connect 27 0 21 0;
#X connect 28 0 10 0;
#X connect 29 0 16 0;
#X connect 32 0 43 0;
#X connect 33 0 42 0;
#X connect 34 0 41 0;
#X connect 35 0 40 0;
#X connect 36 0 39 0;
#X connect 37 0 38 0;
#X connect 44 0 0 0;
#X connect 45 0 2 0;
#X connect 46 0 45 0;
