#N canvas 780 397 366 237 12;
#X obj 68 129 +;
#X obj 190 30 inlet MaxIndexValue;
#X obj 109 179 outlet;
#X obj 36 30 inlet Encoder;
#X obj 109 154 mod 16, f 12;
#X obj 109 129 i;
#X obj 36 105 sel 0;
#X connect 0 0 5 0;
#X connect 1 0 4 1;
#X connect 3 0 6 0;
#X connect 4 0 2 0;
#X connect 5 0 0 1;
#X connect 5 0 4 0;
#X connect 6 1 0 0;
