#N canvas 780 397 337 290 12;
#X obj 77 129 i 1;
#X obj 36 129 +;
#X obj 158 30 inlet MaxIndexValue;
#X obj 77 233 outlet;
#X obj 77 154 mod, f 12;
#X msg 169 124 16;
#X obj 169 101 loadbang;
#X obj 36 30 inlet Encoder;
#X obj 88 182 loadbang;
#X msg 88 206 0;
#X connect 0 0 1 1;
#X connect 0 0 4 0;
#X connect 1 0 0 0;
#X connect 2 0 4 1;
#X connect 4 0 3 0;
#X connect 5 0 4 1;
#X connect 6 0 5 0;
#X connect 7 0 1 0;
#X connect 8 0 9 0;
#X connect 9 0 3 0;
