#N canvas 780 397 539 272 12;
#X obj 77 129 i 1;
#X obj 36 129 +;
#X msg 36 56 1;
#X msg 202 56 -1;
#X obj 36 30 inlet EncoderIncrement;
#X obj 202 30 inlet EncoderDecrement;
#X obj 368 30 inlet MaxIndexValue;
#X obj 77 218 outlet;
#X obj 77 154 mod, f 42;
#X msg 379 124 16;
#X obj 379 101 loadbang;
#X connect 0 0 1 1;
#X connect 0 0 8 0;
#X connect 1 0 0 0;
#X connect 2 0 1 0;
#X connect 3 0 1 0;
#X connect 4 0 2 0;
#X connect 5 0 3 0;
#X connect 6 0 8 1;
#X connect 8 0 7 0;
#X connect 9 0 8 1;
#X connect 10 0 9 0;
