#N canvas 778 396 330 247 12;
#X obj 61 52 inlet;
#X obj 162 51 inlet;
#X obj 237 52 inlet;
#X obj 62 176 outlet~;
#X obj 61 116 vline~;
#X connect 0 0 4 0;
#X connect 1 0 4 1;
#X connect 2 0 4 2;
#X connect 4 0 3 0;
