#N canvas 779 397 300 206 12;
#X obj 38 151 outlet~;
#X obj 70 82 *~, f 10;
#X obj 69 59 abs~;
#X obj 70 105 +~ 1;
#X obj 38 127 /~, f 5;
#X obj 37 30 inlet~ Audio;
#X obj 137 30 inlet KneeControl;
#X connect 1 0 3 0;
#X connect 2 0 1 0;
#X connect 3 0 4 1;
#X connect 4 0 0 0;
#X connect 5 0 2 0;
#X connect 5 0 4 0;
#X connect 6 0 1 1;
