#N canvas 652 517 296 288 12;
#X obj 82 127 samplerate~;
#X obj 82 81 loadbang;
#X obj 89 104 r pd-dsp-started;
#X obj 50 173 lop~, f 5;
#X obj 82 150 / 0.3628;
#X text 92 171 Approx 16 kHz;
#X text 92 185 if SR=44.1 kHz;
#X obj 51 43 inlet~ Audio;
#X obj 49 217 outlet~;
#X connect 0 0 4 0;
#X connect 1 0 0 0;
#X connect 2 0 0 0;
#X connect 3 0 8 0;
#X connect 4 0 3 1;
#X connect 7 0 3 0;
