#N canvas 138 83 1410 998 10;
#X obj 247 28 ctlin, f 12;
#X obj 30 28 notein, f 34;
#X obj 87 886 midi_to_ms;
#X obj 222 865 midi_to_pwm, f 15;
#X obj 247 65 midi_to_ctrl;
#X obj 59 125 r \$0-Attack;
#X obj 74 146 r \$0-Decay;
#X obj 89 212 r \$0-Sustain;
#X obj 821 409 r \$0-Blend;
#X obj 864 429 r \$0-Rectify;
#X obj 103 233 r \$0-Release;
#X obj 692 349 r \$0-FMDepth;
#X obj 432 228 r \$0-SubLevel;
#X obj 358 47 / 128;
#X obj 358 66 moses 63;
#X obj 403 187 *;
#X obj 403 85 moses 65;
#X msg 403 104 0;
#X obj 448 142 / 64;
#X obj 505 142 t b f;
#X msg 505 85 2;
#X msg 538 85 3;
#X msg 572 85 4;
#X msg 607 85 6;
#X msg 641 85 12;
#X obj 505 47 loadbang;
#X obj 562 28 r \$0-BendRange;
#X obj 562 47 sel 0 1 2 3 4, f 17;
#X obj 448 104 - 63.9;
#X obj 358 85 - 64;
#X obj 118 254 r \$0-FMAttack;
#X obj 133 275 r \$0-FMDecay;
#X obj 148 340 r \$0-FMSustain;
#X obj 735 369 r \$0-PulseWidth;
#X obj 358 104 / 64;
#X obj 140 319 s \$0-FMDecayValue;
#X obj 81 191 s \$0-DecayValue;
#X obj 476 249 r \$0-OscDownMix;
#X obj 519 269 r \$0-OscDownTune;
#X obj 563 289 r \$0-OscUpMix;
#X obj 606 309 r \$0-OscUpTune;
#X obj 649 329 r \$0-FM;
#X obj 207 424 r \$0-LPSustain;
#X obj 192 403 r \$0-LPDecay;
#X obj 177 382 r \$0-LPAttack;
#X obj 162 361 r \$0-LPCutoff;
#X obj 907 449 r \$0-OscSine;
#X obj 950 469 r \$0-OscSaw;
#X obj 993 489 r \$0-OscPulse;
#X obj 1036 509 r \$0-OscSubType;
#X obj 1079 530 r \$0-OscDownType;
#X obj 1122 550 r \$0-OscUpType;
#X obj 1165 570 r \$0-OscFMType;
#X obj 1214 648 s \$0-BitDepthInt;
#X obj 1214 591 r \$0-BitDepth;
#X obj 432 249 t b f;
#X obj 476 269 t b f;
#X obj 519 289 t b f;
#X obj 563 309 t b f;
#X obj 606 329 t b f;
#X obj 649 349 t b f;
#X obj 692 369 t b f;
#X obj 735 389 t b f;
#X obj 778 409 t b f;
#X obj 821 429 t b f;
#X obj 864 449 t b f;
#X obj 907 469 t b f;
#X obj 950 489 t b f;
#X obj 993 509 t b f;
#X obj 1036 530 t b f;
#X obj 1079 550 t b f;
#X obj 1122 570 t b f;
#X obj 1165 591 t b f;
#X obj 1177 648 t b f;
#X obj 1214 670 r \$0-Gain;
#X obj 1171 747 t b f;
#X obj 1214 747 s \$0-GainDisplay;
#X obj 1214 790 t b f;
#X obj 1262 811 t b f;
#X obj 1262 790 r \$0-skClip;
#X obj 1214 769 r \$0-scThresh;
#X obj 30 445 pack f f f f f f f f f f f f f;
#X obj 1310 853 t b f;
#X obj 1310 811 r \$0-Unison;
#X obj 403 927 pack f f f f f f f f f f f f f f f f f f f f f f f f
;
#X obj 1310 832 - 0.1;
#X obj 778 389 r \$0-KWarp;
#X obj 1214 629 i;
#X obj 1214 610 + 0.5;
#X obj 1171 728 pow, f 6;
#X obj 1171 690 t b f, f 6;
#X msg 1171 707 10;
#X obj 1214 690 * 200;
#X obj 1214 709 i;
#X obj 1214 728 / 10;
#X obj 74 168 - 1;
#X obj 133 296 - 1;
#X obj 30 466 s \$0-MidiData;
#X obj 403 950 s \$0-RealtimeControl;
#X obj 30 83 r \$0-MidiNote;
#X obj 44 104 r \$0-MidiVelocity;
#X obj 358 28 r \$0-MidiPitchbend;
#X obj 742 289 r \$0-MidiControl;
#X obj 222 885 s \$0-PulseWidth;
#X obj 30 48 s \$0-MidiNote;
#X obj 130 48 s \$0-MidiVelocity;
#X obj 247 85 s \$0-MidiControl;
#X obj 58 845 r \$0-RealtimeControl;
#X obj 30 824 r \$0-MidiData;
#X obj 448 123 i;
#X obj 30 503 cnv 15 310 310 empty empty Encoder 20 12 0 14 #dfdfdf
#202020 0;
#X obj 50 561 encoder_index, f 36;
#X obj 263 523 loadbang;
#X obj 50 701 sel 0 1 2 3 4 5 6 7 8 9 10 11 12 13 14 15;
#N canvas 240 229 819 811 Preset-0 0;
#X obj 33 25 inlet;
#X obj 482 649 s \$0-Gain;
#X obj 408 649 s \$0-Unison;
#X obj 707 758 s \$0-skClip;
#X obj 621 758 s \$0-scThresh;
#X obj 281 329 s \$0-LPSustain;
#X obj 202 329 s \$0-LPDecay;
#X obj 117 329 s \$0-LPAttack;
#X obj 32 329 s \$0-LPCutoff;
#X obj 197 244 s \$0-FMSustain;
#X obj 118 244 s \$0-FMDecay;
#X obj 33 244 s \$0-FMAttack;
#X obj 250 154 s \$0-Release;
#X obj 171 154 s \$0-Sustain;
#X obj 105 154 s \$0-Decay;
#X obj 33 154 s \$0-Attack;
#X obj 408 231 s \$0-SubLevel;
#X obj 408 330 s \$0-OscDownMix;
#X obj 505 330 s \$0-OscDownTune;
#X obj 408 433 s \$0-OscUpMix;
#X obj 493 433 s \$0-OscUpTune;
#X obj 408 537 s \$0-FM, f 9;
#X obj 470 537 s \$0-FMDepth;
#X obj 629 649 s \$0-PulseWidth;
#X obj 554 758 s \$0-KWarp;
#X obj 408 758 s \$0-Blend;
#X obj 475 758 s \$0-Rectify;
#X obj 408 147 s \$0-OscSine;
#X obj 487 147 s \$0-OscSaw;
#X obj 561 147 s \$0-OscPulse;
#X obj 493 231 s \$0-OscSubType;
#X obj 608 330 s \$0-OscDownType;
#X obj 584 433 s \$0-OscUpType;
#X obj 550 537 s \$0-OscFMType;
#X obj 544 649 s \$0-BitDepth;
#X obj 33 47 b;
#X msg 493 211 0, f 8;
#X msg 608 310 0, f 8;
#X msg 584 413 0, f 8;
#X msg 550 516 0, f 8;
#X msg 408 629 0, f 8;
#X msg 482 629 0, f 8;
#X msg 554 738 0, f 8;
#X msg 33 134 1.839, f 8;
#X msg 250 134 207.5, f 8;
#X msg 171 134 0.658, f 8;
#X msg 33 224 6.482, f 8;
#X msg 197 224 0.89, f 8;
#X msg 32 309 35.75, f 8;
#X msg 117 309 45.07, f 8;
#X msg 202 309 63.53, f 8;
#X msg 281 309 0.023, f 8;
#X msg 408 127 1, f 8;
#X msg 487 127 0.001, f 8;
#X msg 561 127 0.001, f 8;
#X msg 505 310 -7, f 8;
#X msg 493 413 17, f 8;
#X msg 544 629 12, f 8;
#X msg 629 629 0.426, f 8;
#X msg 408 738 1.5708, f 8;
#X msg 475 738 1.764, f 8;
#X msg 621 738 1, f 8;
#X msg 707 738 0.776471;
#X obj 32 432 s \$0-BendRange;
#X msg 32 412 0;
#X msg 408 211 0.663051;
#X msg 408 310 0.0680662;
#X msg 408 413 0.0676568;
#X msg 408 517 470.563, f 8;
#X msg 470 516 0.272455;
#X msg 118 224 264.5, f 8;
#X msg 105 134 357.3, f 8;
#X obj 33 69 s \$0-SetPreset-0;
#X obj 33 93 r \$0-SetPreset-0, f 56;
#X obj 34 187 r \$0-SetPreset-0, f 56;
#X obj 32 272 r \$0-SetPreset-0, f 56;
#X obj 32 375 r \$0-SetPreset-0, f 56;
#X obj 408 93 r \$0-SetPreset-0, f 56;
#X obj 408 187 r \$0-SetPreset-0, f 56;
#X obj 408 272 r \$0-SetPreset-0, f 56;
#X obj 408 375 r \$0-SetPreset-0, f 56;
#X obj 408 479 r \$0-SetPreset-0, f 56;
#X obj 408 585 r \$0-SetPreset-0, f 56;
#X obj 408 697 r \$0-SetPreset-0, f 56;
#X connect 0 0 35 0;
#X connect 35 0 72 0;
#X connect 36 0 30 0;
#X connect 37 0 31 0;
#X connect 38 0 32 0;
#X connect 39 0 33 0;
#X connect 40 0 2 0;
#X connect 41 0 1 0;
#X connect 42 0 24 0;
#X connect 43 0 15 0;
#X connect 44 0 12 0;
#X connect 45 0 13 0;
#X connect 46 0 11 0;
#X connect 47 0 9 0;
#X connect 48 0 8 0;
#X connect 49 0 7 0;
#X connect 50 0 6 0;
#X connect 51 0 5 0;
#X connect 52 0 27 0;
#X connect 53 0 28 0;
#X connect 54 0 29 0;
#X connect 55 0 18 0;
#X connect 56 0 20 0;
#X connect 57 0 34 0;
#X connect 58 0 23 0;
#X connect 59 0 25 0;
#X connect 60 0 26 0;
#X connect 61 0 4 0;
#X connect 62 0 3 0;
#X connect 64 0 63 0;
#X connect 65 0 16 0;
#X connect 66 0 17 0;
#X connect 67 0 19 0;
#X connect 68 0 21 0;
#X connect 69 0 22 0;
#X connect 70 0 10 0;
#X connect 71 0 14 0;
#X connect 73 0 43 0;
#X connect 73 0 71 0;
#X connect 73 0 45 0;
#X connect 73 0 44 0;
#X connect 74 0 46 0;
#X connect 74 0 70 0;
#X connect 74 0 47 0;
#X connect 75 0 48 0;
#X connect 75 0 49 0;
#X connect 75 0 50 0;
#X connect 75 0 51 0;
#X connect 76 0 64 0;
#X connect 77 0 52 0;
#X connect 77 0 53 0;
#X connect 77 0 54 0;
#X connect 78 0 65 0;
#X connect 78 0 36 0;
#X connect 79 0 66 0;
#X connect 79 0 55 0;
#X connect 79 0 37 0;
#X connect 80 0 67 0;
#X connect 80 0 56 0;
#X connect 80 0 38 0;
#X connect 81 0 68 0;
#X connect 81 0 69 0;
#X connect 81 0 39 0;
#X connect 82 0 40 0;
#X connect 82 0 41 0;
#X connect 82 0 57 0;
#X connect 82 0 58 0;
#X connect 83 0 42 0;
#X connect 83 0 59 0;
#X connect 83 0 60 0;
#X connect 83 0 61 0;
#X connect 83 0 62 0;
#X restore 50 777 pd Preset-0;
#N canvas 240 229 819 811 Preset-2 0;
#X obj 33 25 inlet;
#X obj 482 649 s \$0-Gain;
#X obj 408 649 s \$0-Unison;
#X obj 707 758 s \$0-skClip;
#X obj 621 758 s \$0-scThresh;
#X obj 281 329 s \$0-LPSustain;
#X obj 202 329 s \$0-LPDecay;
#X obj 117 329 s \$0-LPAttack;
#X obj 32 329 s \$0-LPCutoff;
#X obj 197 244 s \$0-FMSustain;
#X obj 118 244 s \$0-FMDecay;
#X obj 33 244 s \$0-FMAttack;
#X obj 250 154 s \$0-Release;
#X obj 171 154 s \$0-Sustain;
#X obj 105 154 s \$0-Decay;
#X obj 33 154 s \$0-Attack;
#X obj 408 231 s \$0-SubLevel;
#X obj 408 330 s \$0-OscDownMix;
#X obj 505 330 s \$0-OscDownTune;
#X obj 408 433 s \$0-OscUpMix;
#X obj 493 433 s \$0-OscUpTune;
#X obj 408 537 s \$0-FM, f 9;
#X obj 470 537 s \$0-FMDepth;
#X obj 629 649 s \$0-PulseWidth;
#X obj 554 758 s \$0-KWarp;
#X obj 408 758 s \$0-Blend;
#X obj 475 758 s \$0-Rectify;
#X obj 408 147 s \$0-OscSine;
#X obj 487 147 s \$0-OscSaw;
#X obj 561 147 s \$0-OscPulse;
#X obj 493 231 s \$0-OscSubType;
#X obj 608 330 s \$0-OscDownType;
#X obj 584 433 s \$0-OscUpType;
#X obj 550 537 s \$0-OscFMType;
#X obj 544 649 s \$0-BitDepth;
#X obj 33 47 b;
#X msg 493 211 0, f 8;
#X msg 608 310 0, f 8;
#X msg 584 413 0, f 8;
#X msg 550 516 0, f 8;
#X msg 408 629 0, f 8;
#X msg 482 629 0, f 8;
#X msg 554 738 0, f 8;
#X msg 250 134 207.5, f 8;
#X msg 171 134 0.658, f 8;
#X msg 33 224 6.482, f 8;
#X msg 197 224 0.89, f 8;
#X msg 32 309 35.75, f 8;
#X msg 117 309 45.07, f 8;
#X msg 202 309 63.53, f 8;
#X msg 281 309 0.023, f 8;
#X msg 408 127 1, f 8;
#X msg 487 127 0.001, f 8;
#X msg 561 127 0.001, f 8;
#X msg 505 310 -7, f 8;
#X msg 493 413 17, f 8;
#X msg 544 629 12, f 8;
#X msg 629 629 0.426, f 8;
#X msg 408 738 1.5708, f 8;
#X msg 475 738 1.764, f 8;
#X msg 621 738 1, f 8;
#X obj 32 432 s \$0-BendRange;
#X msg 32 412 0;
#X msg 408 211 0.663051;
#X msg 408 310 0.0680662;
#X msg 408 413 0.0676568;
#X msg 408 517 470.563, f 8;
#X msg 470 516 0.272455;
#X msg 118 224 264.5, f 8;
#X msg 105 134 357.3, f 8;
#X msg 707 738 0.376471;
#X obj 33 69 s \$0-SetPreset-2;
#X obj 33 93 r \$0-SetPreset-2, f 56;
#X obj 33 187 r \$0-SetPreset-2, f 56;
#X obj 32 272 r \$0-SetPreset-2, f 56;
#X obj 32 375 r \$0-SetPreset-2, f 56;
#X obj 408 93 r \$0-SetPreset-2, f 56;
#X obj 408 187 r \$0-SetPreset-2, f 56;
#X obj 408 272 r \$0-SetPreset-2, f 56;
#X obj 409 375 r \$0-SetPreset-2, f 56;
#X obj 408 479 r \$0-SetPreset-2, f 56;
#X obj 408 585 r \$0-SetPreset-2, f 56;
#X obj 408 697 r \$0-SetPreset-2, f 56;
#X msg 33 134 50.839, f 8;
#X connect 0 0 35 0;
#X connect 35 0 71 0;
#X connect 36 0 30 0;
#X connect 37 0 31 0;
#X connect 38 0 32 0;
#X connect 39 0 33 0;
#X connect 40 0 2 0;
#X connect 41 0 1 0;
#X connect 42 0 24 0;
#X connect 43 0 12 0;
#X connect 44 0 13 0;
#X connect 45 0 11 0;
#X connect 46 0 9 0;
#X connect 47 0 8 0;
#X connect 48 0 7 0;
#X connect 49 0 6 0;
#X connect 50 0 5 0;
#X connect 51 0 27 0;
#X connect 52 0 28 0;
#X connect 53 0 29 0;
#X connect 54 0 18 0;
#X connect 55 0 20 0;
#X connect 56 0 34 0;
#X connect 57 0 23 0;
#X connect 58 0 25 0;
#X connect 59 0 26 0;
#X connect 60 0 4 0;
#X connect 62 0 61 0;
#X connect 63 0 16 0;
#X connect 64 0 17 0;
#X connect 65 0 19 0;
#X connect 66 0 21 0;
#X connect 67 0 22 0;
#X connect 68 0 10 0;
#X connect 69 0 14 0;
#X connect 70 0 3 0;
#X connect 72 0 83 0;
#X connect 72 0 69 0;
#X connect 72 0 44 0;
#X connect 72 0 43 0;
#X connect 73 0 45 0;
#X connect 73 0 68 0;
#X connect 73 0 46 0;
#X connect 74 0 47 0;
#X connect 74 0 48 0;
#X connect 74 0 49 0;
#X connect 74 0 50 0;
#X connect 75 0 62 0;
#X connect 76 0 51 0;
#X connect 76 0 52 0;
#X connect 76 0 53 0;
#X connect 77 0 63 0;
#X connect 77 0 36 0;
#X connect 78 0 64 0;
#X connect 78 0 54 0;
#X connect 78 0 37 0;
#X connect 79 0 65 0;
#X connect 79 0 55 0;
#X connect 79 0 38 0;
#X connect 80 0 66 0;
#X connect 80 0 67 0;
#X connect 80 0 39 0;
#X connect 81 0 40 0;
#X connect 81 0 41 0;
#X connect 81 0 56 0;
#X connect 81 0 57 0;
#X connect 82 0 42 0;
#X connect 82 0 58 0;
#X connect 82 0 59 0;
#X connect 82 0 60 0;
#X connect 82 0 70 0;
#X connect 83 0 15 0;
#X restore 80 739 pd Preset-2;
#N canvas 240 229 816 815 Preset-3 0;
#X obj 33 25 inlet;
#X obj 482 649 s \$0-Gain;
#X obj 408 649 s \$0-Unison;
#X obj 707 758 s \$0-skClip;
#X obj 621 758 s \$0-scThresh;
#X obj 281 329 s \$0-LPSustain;
#X obj 202 329 s \$0-LPDecay;
#X obj 117 329 s \$0-LPAttack;
#X obj 32 329 s \$0-LPCutoff;
#X obj 197 244 s \$0-FMSustain;
#X obj 118 244 s \$0-FMDecay;
#X obj 33 244 s \$0-FMAttack;
#X obj 250 154 s \$0-Release;
#X obj 171 154 s \$0-Sustain;
#X obj 105 154 s \$0-Decay;
#X obj 33 154 s \$0-Attack;
#X obj 408 231 s \$0-SubLevel;
#X obj 408 330 s \$0-OscDownMix;
#X obj 505 330 s \$0-OscDownTune;
#X obj 408 433 s \$0-OscUpMix;
#X obj 493 433 s \$0-OscUpTune;
#X obj 408 537 s \$0-FM, f 9;
#X obj 470 537 s \$0-FMDepth;
#X obj 629 649 s \$0-PulseWidth;
#X obj 554 758 s \$0-KWarp;
#X obj 408 758 s \$0-Blend;
#X obj 475 758 s \$0-Rectify;
#X obj 408 147 s \$0-OscSine;
#X obj 487 147 s \$0-OscSaw;
#X obj 561 147 s \$0-OscPulse;
#X obj 493 231 s \$0-OscSubType;
#X obj 608 330 s \$0-OscDownType;
#X obj 584 433 s \$0-OscUpType;
#X obj 550 537 s \$0-OscFMType;
#X obj 544 649 s \$0-BitDepth;
#X obj 33 47 b;
#X msg 493 211 0, f 8;
#X msg 608 310 0, f 8;
#X msg 584 413 0, f 8;
#X msg 550 516 0, f 8;
#X msg 408 629 0, f 8;
#X msg 482 629 0, f 8;
#X msg 554 738 0, f 8;
#X msg 250 134 207.5, f 8;
#X msg 171 134 0.658, f 8;
#X msg 33 224 6.482, f 8;
#X msg 197 224 0.89, f 8;
#X msg 32 309 35.75, f 8;
#X msg 117 309 45.07, f 8;
#X msg 202 309 63.53, f 8;
#X msg 281 309 0.023, f 8;
#X msg 408 127 1, f 8;
#X msg 487 127 0.001, f 8;
#X msg 561 127 0.001, f 8;
#X msg 505 310 -7, f 8;
#X msg 493 413 17, f 8;
#X msg 544 629 12, f 8;
#X msg 629 629 0.426, f 8;
#X msg 408 738 1.5708, f 8;
#X msg 475 738 1.764, f 8;
#X msg 621 738 1, f 8;
#X obj 32 432 s \$0-BendRange;
#X msg 32 412 0;
#X msg 408 211 0.663051;
#X msg 408 310 0.0680662;
#X msg 408 413 0.0676568;
#X msg 408 517 470.563, f 8;
#X msg 470 516 0.272455;
#X msg 118 224 264.5, f 8;
#X msg 105 134 357.3, f 8;
#X msg 707 738 0.476471;
#X obj 33 69 s \$0-SetPreset-3;
#X obj 33 93 r \$0-SetPreset-3, f 56;
#X obj 33 187 r \$0-SetPreset-3, f 56;
#X obj 32 272 r \$0-SetPreset-3, f 56;
#X obj 32 375 r \$0-SetPreset-3, f 56;
#X obj 408 93 r \$0-SetPreset-3, f 56;
#X obj 408 187 r \$0-SetPreset-3, f 56;
#X obj 408 272 r \$0-SetPreset-3, f 56;
#X obj 408 375 r \$0-SetPreset-3, f 56;
#X obj 408 479 r \$0-SetPreset-3, f 56;
#X obj 408 585 r \$0-SetPreset-3, f 56;
#X obj 408 697 r \$0-SetPreset-3, f 56;
#X msg 33 134 100.839, f 8;
#X connect 0 0 35 0;
#X connect 35 0 71 0;
#X connect 36 0 30 0;
#X connect 37 0 31 0;
#X connect 38 0 32 0;
#X connect 39 0 33 0;
#X connect 40 0 2 0;
#X connect 41 0 1 0;
#X connect 42 0 24 0;
#X connect 43 0 12 0;
#X connect 44 0 13 0;
#X connect 45 0 11 0;
#X connect 46 0 9 0;
#X connect 47 0 8 0;
#X connect 48 0 7 0;
#X connect 49 0 6 0;
#X connect 50 0 5 0;
#X connect 51 0 27 0;
#X connect 52 0 28 0;
#X connect 53 0 29 0;
#X connect 54 0 18 0;
#X connect 55 0 20 0;
#X connect 56 0 34 0;
#X connect 57 0 23 0;
#X connect 58 0 25 0;
#X connect 59 0 26 0;
#X connect 60 0 4 0;
#X connect 62 0 61 0;
#X connect 63 0 16 0;
#X connect 64 0 17 0;
#X connect 65 0 19 0;
#X connect 66 0 21 0;
#X connect 67 0 22 0;
#X connect 68 0 10 0;
#X connect 69 0 14 0;
#X connect 70 0 3 0;
#X connect 72 0 83 0;
#X connect 72 0 69 0;
#X connect 72 0 44 0;
#X connect 72 0 43 0;
#X connect 73 0 45 0;
#X connect 73 0 68 0;
#X connect 73 0 46 0;
#X connect 74 0 47 0;
#X connect 74 0 48 0;
#X connect 74 0 49 0;
#X connect 74 0 50 0;
#X connect 75 0 62 0;
#X connect 76 0 51 0;
#X connect 76 0 52 0;
#X connect 76 0 53 0;
#X connect 77 0 63 0;
#X connect 77 0 36 0;
#X connect 78 0 64 0;
#X connect 78 0 54 0;
#X connect 78 0 37 0;
#X connect 79 0 65 0;
#X connect 79 0 55 0;
#X connect 79 0 38 0;
#X connect 80 0 66 0;
#X connect 80 0 67 0;
#X connect 80 0 39 0;
#X connect 81 0 40 0;
#X connect 81 0 41 0;
#X connect 81 0 56 0;
#X connect 81 0 57 0;
#X connect 82 0 42 0;
#X connect 82 0 58 0;
#X connect 82 0 59 0;
#X connect 82 0 60 0;
#X connect 82 0 70 0;
#X connect 83 0 15 0;
#X restore 95 720 pd Preset-3;
#N canvas 240 229 819 811 Preset-1 0;
#X obj 33 25 inlet;
#X obj 482 649 s \$0-Gain;
#X obj 408 649 s \$0-Unison;
#X obj 707 758 s \$0-skClip;
#X obj 621 758 s \$0-scThresh;
#X obj 281 329 s \$0-LPSustain;
#X obj 202 329 s \$0-LPDecay;
#X obj 117 329 s \$0-LPAttack;
#X obj 32 329 s \$0-LPCutoff;
#X obj 197 244 s \$0-FMSustain;
#X obj 118 244 s \$0-FMDecay;
#X obj 33 244 s \$0-FMAttack;
#X obj 250 154 s \$0-Release;
#X obj 171 154 s \$0-Sustain;
#X obj 105 154 s \$0-Decay;
#X obj 33 154 s \$0-Attack;
#X obj 408 231 s \$0-SubLevel;
#X obj 408 330 s \$0-OscDownMix;
#X obj 505 330 s \$0-OscDownTune;
#X obj 408 433 s \$0-OscUpMix;
#X obj 493 433 s \$0-OscUpTune;
#X obj 408 537 s \$0-FM, f 9;
#X obj 470 537 s \$0-FMDepth;
#X obj 629 649 s \$0-PulseWidth;
#X obj 554 758 s \$0-KWarp;
#X obj 408 758 s \$0-Blend;
#X obj 475 758 s \$0-Rectify;
#X obj 408 147 s \$0-OscSine;
#X obj 487 147 s \$0-OscSaw;
#X obj 561 147 s \$0-OscPulse;
#X obj 493 231 s \$0-OscSubType;
#X obj 608 330 s \$0-OscDownType;
#X obj 584 433 s \$0-OscUpType;
#X obj 550 537 s \$0-OscFMType;
#X obj 544 649 s \$0-BitDepth;
#X obj 33 47 b;
#X msg 493 211 0, f 8;
#X msg 608 310 0, f 8;
#X msg 584 413 0, f 8;
#X msg 550 516 0, f 8;
#X msg 408 629 0, f 8;
#X msg 482 629 0, f 8;
#X msg 554 738 0, f 8;
#X msg 250 134 207.5, f 8;
#X msg 171 134 0.658, f 8;
#X msg 33 224 6.482, f 8;
#X msg 197 224 0.89, f 8;
#X msg 32 309 35.75, f 8;
#X msg 117 309 45.07, f 8;
#X msg 202 309 63.53, f 8;
#X msg 281 309 0.023, f 8;
#X msg 408 127 1, f 8;
#X msg 487 127 0.001, f 8;
#X msg 561 127 0.001, f 8;
#X msg 505 310 -7, f 8;
#X msg 493 413 17, f 8;
#X msg 544 629 12, f 8;
#X msg 629 629 0.426, f 8;
#X msg 408 738 1.5708, f 8;
#X msg 475 738 1.764, f 8;
#X msg 621 738 1, f 8;
#X obj 32 432 s \$0-BendRange;
#X msg 32 412 0;
#X msg 408 211 0.663051;
#X msg 408 310 0.0680662;
#X msg 408 413 0.0676568;
#X msg 408 517 470.563, f 8;
#X msg 470 516 0.272455;
#X msg 118 224 264.5, f 8;
#X msg 105 134 357.3, f 8;
#X msg 707 738 0.276471;
#X obj 33 69 s \$0-SetPreset-1;
#X obj 33 93 r \$0-SetPreset-1, f 56;
#X obj 33 187 r \$0-SetPreset-1, f 56;
#X obj 32 272 r \$0-SetPreset-1, f 56;
#X obj 32 375 r \$0-SetPreset-1, f 56;
#X obj 408 93 r \$0-SetPreset-1, f 56;
#X obj 408 187 r \$0-SetPreset-1, f 56;
#X obj 408 272 r \$0-SetPreset-1, f 56;
#X obj 408 375 r \$0-SetPreset-1, f 56;
#X obj 408 479 r \$0-SetPreset-1, f 56;
#X obj 408 585 r \$0-SetPreset-1, f 56;
#X obj 408 697 r \$0-SetPreset-1, f 56;
#X msg 33 134 10.839, f 8;
#X connect 0 0 35 0;
#X connect 35 0 71 0;
#X connect 36 0 30 0;
#X connect 37 0 31 0;
#X connect 38 0 32 0;
#X connect 39 0 33 0;
#X connect 40 0 2 0;
#X connect 41 0 1 0;
#X connect 42 0 24 0;
#X connect 43 0 12 0;
#X connect 44 0 13 0;
#X connect 45 0 11 0;
#X connect 46 0 9 0;
#X connect 47 0 8 0;
#X connect 48 0 7 0;
#X connect 49 0 6 0;
#X connect 50 0 5 0;
#X connect 51 0 27 0;
#X connect 52 0 28 0;
#X connect 53 0 29 0;
#X connect 54 0 18 0;
#X connect 55 0 20 0;
#X connect 56 0 34 0;
#X connect 57 0 23 0;
#X connect 58 0 25 0;
#X connect 59 0 26 0;
#X connect 60 0 4 0;
#X connect 62 0 61 0;
#X connect 63 0 16 0;
#X connect 64 0 17 0;
#X connect 65 0 19 0;
#X connect 66 0 21 0;
#X connect 67 0 22 0;
#X connect 68 0 10 0;
#X connect 69 0 14 0;
#X connect 70 0 3 0;
#X connect 72 0 83 0;
#X connect 72 0 69 0;
#X connect 72 0 44 0;
#X connect 72 0 43 0;
#X connect 73 0 45 0;
#X connect 73 0 68 0;
#X connect 73 0 46 0;
#X connect 74 0 47 0;
#X connect 74 0 48 0;
#X connect 74 0 49 0;
#X connect 74 0 50 0;
#X connect 75 0 62 0;
#X connect 76 0 51 0;
#X connect 76 0 52 0;
#X connect 76 0 53 0;
#X connect 77 0 63 0;
#X connect 77 0 36 0;
#X connect 78 0 64 0;
#X connect 78 0 54 0;
#X connect 78 0 37 0;
#X connect 79 0 65 0;
#X connect 79 0 55 0;
#X connect 79 0 38 0;
#X connect 80 0 66 0;
#X connect 80 0 67 0;
#X connect 80 0 39 0;
#X connect 81 0 40 0;
#X connect 81 0 41 0;
#X connect 81 0 56 0;
#X connect 81 0 57 0;
#X connect 82 0 42 0;
#X connect 82 0 58 0;
#X connect 82 0 59 0;
#X connect 82 0 60 0;
#X connect 82 0 70 0;
#X connect 83 0 15 0;
#X restore 65 758 pd Preset-1;
#X msg 263 542 4;
#X text 65 623 EncSwitch resets preset to inital state;
#X obj 741 44 cnv 15 270 175 empty empty Switch1/Knob1 20 12 0 14 #dfdfdf
#202020 0;
#X obj 761 93 switch_index;
#X obj 761 162 + 1;
#X text 787 162 add 1 to skip the 'all off' state;
#X obj 769 138 loadbang;
#N canvas 740 273 322 277 knob1-control 0;
#X obj 32 18 inlet SwitchIndex;
#X obj 32 86 pack f f;
#X obj 32 107 route 0 1 2, f 42;
#X obj 50 65 t b f;
#X obj 32 149 *;
#X obj 32 169 *, f 5;
#X obj 32 129 t f f;
#X obj 115 229 s \$0-LPCutoff;
#X obj 203 229 s \$0-Gain;
#X obj 32 229 s \$0-Attack;
#X obj 32 209 + 0.3;
#X obj 32 189 * 1000;
#X obj 115 189 pow, f 5;
#X obj 115 149 t b f;
#X msg 115 169 10;
#X obj 115 129 * 4;
#X obj 115 209 + 4;
#X obj 203 189 * 0.6;
#X obj 203 209 - 0.3;
#X obj 156 18 inlet Knob1;
#X connect 0 0 1 0;
#X connect 1 0 2 0;
#X connect 2 0 6 0;
#X connect 2 1 15 0;
#X connect 2 2 17 0;
#X connect 3 0 1 0;
#X connect 3 1 1 1;
#X connect 4 0 5 0;
#X connect 5 0 11 0;
#X connect 6 0 4 0;
#X connect 6 1 4 1;
#X connect 6 1 5 1;
#X connect 10 0 9 0;
#X connect 11 0 10 0;
#X connect 12 0 16 0;
#X connect 13 0 14 0;
#X connect 13 1 12 1;
#X connect 14 0 12 0;
#X connect 15 0 13 0;
#X connect 16 0 7 0;
#X connect 17 0 18 0;
#X connect 18 0 8 0;
#X connect 19 0 3 0;
#X restore 769 117 pd knob1-control;
#X obj 1053 45 cnv 15 270 175 empty empty Switch2/Knob2 20 12 0 14
#dfdfdf #202020 0;
#X obj 1073 94 switch_index;
#X obj 1073 163 + 1;
#X text 1099 163 add 1 to skip the 'all off' state;
#X obj 1081 139 loadbang;
#N canvas 740 273 322 277 knob2-control 0;
#X obj 32 18 inlet SwitchIndex;
#X obj 203 229 s \$0-BitDepth;
#X obj 115 229 s \$0-LPAttack;
#X obj 32 229 s \$0-Release;
#X obj 32 86 pack f f;
#X obj 32 107 route 0 1 2, f 42;
#X obj 50 65 t b f;
#X obj 32 189 * 2000;
#X obj 203 209 i;
#X obj 203 189 + 1.5;
#X obj 203 169 * 11;
#X obj 115 189 * 2000;
#X obj 32 209 + 1;
#X obj 115 209 + 2;
#X obj 32 148 *;
#X obj 32 168 *, f 5;
#X obj 32 128 t f f;
#X obj 115 148 *;
#X obj 115 168 *, f 5;
#X obj 115 128 t f f;
#X obj 156 18 inlet Knob2;
#X connect 0 0 4 0;
#X connect 4 0 5 0;
#X connect 5 0 16 0;
#X connect 5 1 19 0;
#X connect 5 2 10 0;
#X connect 6 0 4 0;
#X connect 6 1 4 1;
#X connect 7 0 12 0;
#X connect 8 0 1 0;
#X connect 9 0 8 0;
#X connect 10 0 9 0;
#X connect 11 0 13 0;
#X connect 12 0 3 0;
#X connect 13 0 2 0;
#X connect 14 0 15 0;
#X connect 15 0 7 0;
#X connect 16 0 14 0;
#X connect 16 1 14 1;
#X connect 16 1 15 1;
#X connect 17 0 18 0;
#X connect 18 0 11 0;
#X connect 19 0 17 0;
#X connect 19 1 17 1;
#X connect 19 1 18 1;
#X connect 20 0 6 0;
#X restore 1081 118 pd knob2-control;
#X obj 761 74 r sw1 @hv_param;
#X obj 1073 75 r sw2 @hv_param;
#X obj 862 98 r knob1 @hv_param;
#X obj 1174 99 r knob2 @hv_param;
#X obj 30 950 dac~, f 5;
#X obj 67 647 loadbang;
#X obj 222 845 r \$0-MidiModWheel;
#X obj 87 866 r \$0-MidiPortamento;
#X obj 1221 493 s \$0-MidiModWheel-MSB;
#X obj 1221 453 s \$0-MidiPitchbend-MSB;
#X obj 1221 473 s \$0-MidiPortamento-MSB;
#X obj 1221 433 s \$0-MidiModWheel-LSB;
#X obj 1221 413 s \$0-MidiPortamento-LSB;
#X obj 1221 393 s \$0-MidiPitchbend-LSB;
#X obj 742 309 route 1 5 6 33 37 38 65 71 74, f 86;
#X obj 1221 353 s \$0-MidiResonance;
#X obj 1221 333 s \$0-MidiCutoffFreq;
#X obj 1221 373 s \$0-MidiPortamentoEnable;
#X obj 761 181 s \$0-led1_index;
#X obj 1073 182 s \$0-led2_index;
#N canvas 781 397 708 383 PresetIndicator 0;
#X obj 33 310 rgb_index-8, f 34;
#X obj 77 92 b;
#X obj 33 115 + 4;
#X obj 381 310 rgb_index-8, f 34;
#X obj 89 209 r \$0-led1_index;
#X obj 248 159 r \$0-led2_index;
#X obj 508 136 / 4;
#X obj 508 159 i;
#X obj 33 92 mod 4;
#X obj 508 182 + 4;
#X obj 33 27 inlet PresetIndex;
#X obj 33 50 clip 0 16;
#X obj 381 159 delay 500 1 msec;
#X obj 77 160 delay 750 1 msec;
#X obj 248 181 t b f;
#X obj 89 231 t b f;
#X obj 381 333 s \$0-led2_red;
#X obj 481 333 s \$0-led2_green;
#X obj 582 333 s \$0-led2_blue;
#X obj 33 333 s \$0-led1_red;
#X obj 133 333 s \$0-led1_green;
#X obj 234 333 s \$0-led1_blue;
#X obj 381 209 i 0;
#X obj 236 209 i 1, f 7;
#X obj 77 259 i 1, f 7;
#X connect 0 0 19 0;
#X connect 0 1 20 0;
#X connect 0 2 21 0;
#X connect 1 0 12 0;
#X connect 1 0 13 0;
#X connect 2 0 0 0;
#X connect 3 0 16 0;
#X connect 3 1 17 0;
#X connect 3 2 18 0;
#X connect 4 0 15 0;
#X connect 5 0 14 0;
#X connect 6 0 7 0;
#X connect 7 0 9 0;
#X connect 8 0 2 0;
#X connect 9 0 3 0;
#X connect 10 0 11 0;
#X connect 11 0 8 0;
#X connect 11 0 1 0;
#X connect 11 0 6 0;
#X connect 12 0 22 0;
#X connect 13 0 23 0;
#X connect 13 0 24 0;
#X connect 14 0 23 0;
#X connect 14 1 23 1;
#X connect 15 0 24 0;
#X connect 15 1 24 1;
#X connect 22 0 3 0;
#X connect 22 0 0 0;
#X connect 23 0 3 0;
#X connect 24 0 0 0;
#X restore 58 585 pd PresetIndicator;
#X obj 741 234 cnv 15 270 30 empty empty LED1 20 12 0 14 #dfdfdf #202020
0;
#X obj 1053 233 cnv 15 270 30 empty empty LED2 20 12 0 14 #dfdfdf #202020
0;
#X text 759 196 LED write occurs in |pd PresetIndicator|;
#X text 1071 197 LED write occurs in |pd PresetIndicator|;
#N canvas 781 397 304 195 led1_Output 0;
#X obj 83 29 r \$0-led1_red;
#X obj 83 49 s led1_red @hv_param;
#X obj 83 75 r \$0-led1_green;
#X obj 83 95 s led1_green @hv_param;
#X obj 83 122 r \$0-led1_blue;
#X obj 83 142 s led1_blue @hv_param;
#X connect 0 0 1 0;
#X connect 2 0 3 0;
#X connect 4 0 5 0;
#X restore 855 241 pd led1_Output;
#N canvas 781 397 304 195 led2_Output 0;
#X obj 83 142 s led2_blue @hv_param;
#X obj 83 95 s led2_green @hv_param;
#X obj 83 49 s led2_red @hv_param;
#X obj 83 29 r \$0-led2_red;
#X obj 83 75 r \$0-led2_green;
#X obj 83 122 r \$0-led2_blue;
#X connect 3 0 2 0;
#X connect 4 0 1 0;
#X connect 5 0 0 0;
#X restore 1170 241 pd led2_Output;
#X obj 50 680 i 0;
#X obj 50 542 r encoder @hv_param;
#X obj 58 606 r encoder_rise @hv_param;
#X obj 30 907 null_voice;
#X connect 0 0 4 0;
#X connect 0 1 4 1;
#X connect 1 0 104 0;
#X connect 1 1 105 0;
#X connect 2 0 162 2;
#X connect 3 0 103 0;
#X connect 4 0 106 0;
#X connect 5 0 81 2;
#X connect 6 0 95 0;
#X connect 7 0 81 4;
#X connect 8 0 64 0;
#X connect 9 0 65 0;
#X connect 10 0 81 5;
#X connect 11 0 61 0;
#X connect 12 0 55 0;
#X connect 13 0 14 0;
#X connect 14 0 29 0;
#X connect 14 1 16 0;
#X connect 15 0 84 0;
#X connect 16 0 17 0;
#X connect 16 1 28 0;
#X connect 17 0 15 0;
#X connect 18 0 15 0;
#X connect 19 0 15 0;
#X connect 19 1 15 1;
#X connect 20 0 19 0;
#X connect 21 0 19 0;
#X connect 22 0 19 0;
#X connect 23 0 19 0;
#X connect 24 0 19 0;
#X connect 25 0 20 0;
#X connect 26 0 27 0;
#X connect 27 0 20 0;
#X connect 27 1 21 0;
#X connect 27 2 22 0;
#X connect 27 3 23 0;
#X connect 27 4 24 0;
#X connect 28 0 109 0;
#X connect 29 0 34 0;
#X connect 30 0 81 6;
#X connect 31 0 96 0;
#X connect 32 0 81 8;
#X connect 33 0 62 0;
#X connect 34 0 15 0;
#X connect 37 0 56 0;
#X connect 38 0 57 0;
#X connect 39 0 58 0;
#X connect 40 0 59 0;
#X connect 41 0 60 0;
#X connect 42 0 81 12;
#X connect 43 0 81 11;
#X connect 44 0 81 10;
#X connect 45 0 81 9;
#X connect 46 0 66 0;
#X connect 47 0 67 0;
#X connect 48 0 68 0;
#X connect 49 0 69 0;
#X connect 50 0 70 0;
#X connect 51 0 71 0;
#X connect 52 0 72 0;
#X connect 54 0 88 0;
#X connect 55 0 84 0;
#X connect 55 1 84 1;
#X connect 56 0 84 0;
#X connect 56 1 84 2;
#X connect 57 0 84 0;
#X connect 57 1 84 3;
#X connect 58 0 84 0;
#X connect 58 1 84 4;
#X connect 59 0 84 0;
#X connect 59 1 84 5;
#X connect 60 0 84 0;
#X connect 60 1 84 6;
#X connect 61 0 84 0;
#X connect 61 1 84 7;
#X connect 62 0 84 0;
#X connect 62 1 84 8;
#X connect 63 0 84 0;
#X connect 63 1 84 9;
#X connect 64 0 84 0;
#X connect 64 1 84 10;
#X connect 65 0 84 0;
#X connect 65 1 84 11;
#X connect 66 0 84 0;
#X connect 66 1 84 12;
#X connect 67 0 84 0;
#X connect 67 1 84 13;
#X connect 68 0 84 0;
#X connect 68 1 84 14;
#X connect 69 0 84 0;
#X connect 69 1 84 15;
#X connect 70 0 84 0;
#X connect 70 1 84 16;
#X connect 71 0 84 0;
#X connect 71 1 84 17;
#X connect 72 0 84 0;
#X connect 72 1 84 18;
#X connect 73 0 84 0;
#X connect 73 1 84 19;
#X connect 74 0 90 0;
#X connect 74 0 92 0;
#X connect 75 0 84 0;
#X connect 75 1 84 20;
#X connect 77 0 84 0;
#X connect 77 1 84 21;
#X connect 78 0 84 0;
#X connect 78 1 84 22;
#X connect 79 0 78 0;
#X connect 80 0 77 0;
#X connect 81 0 97 0;
#X connect 82 0 84 0;
#X connect 82 1 84 23;
#X connect 83 0 85 0;
#X connect 84 0 98 0;
#X connect 85 0 82 0;
#X connect 86 0 63 0;
#X connect 87 0 53 0;
#X connect 87 0 73 0;
#X connect 88 0 87 0;
#X connect 89 0 75 0;
#X connect 90 0 91 0;
#X connect 90 1 89 1;
#X connect 91 0 89 0;
#X connect 92 0 93 0;
#X connect 93 0 94 0;
#X connect 94 0 76 0;
#X connect 95 0 36 0;
#X connect 95 0 81 3;
#X connect 96 0 35 0;
#X connect 96 0 81 7;
#X connect 99 0 81 0;
#X connect 100 0 81 1;
#X connect 101 0 13 0;
#X connect 102 0 146 0;
#X connect 107 0 162 1;
#X connect 108 0 162 0;
#X connect 109 0 18 0;
#X connect 111 0 152 0;
#X connect 111 0 159 0;
#X connect 112 0 118 0;
#X connect 113 0 114 0;
#X connect 113 1 117 0;
#X connect 113 2 115 0;
#X connect 113 3 116 0;
#X connect 118 0 111 1;
#X connect 121 0 122 0;
#X connect 121 0 125 0;
#X connect 122 0 150 0;
#X connect 124 0 122 0;
#X connect 127 0 128 0;
#X connect 127 0 131 0;
#X connect 128 0 151 0;
#X connect 130 0 128 0;
#X connect 132 0 121 0;
#X connect 133 0 127 0;
#X connect 134 0 125 1;
#X connect 135 0 131 1;
#X connect 137 0 159 0;
#X connect 138 0 3 0;
#X connect 139 0 2 0;
#X connect 146 0 140 0;
#X connect 146 1 142 0;
#X connect 146 2 141 0;
#X connect 146 3 143 0;
#X connect 146 4 144 0;
#X connect 146 5 145 0;
#X connect 146 6 149 0;
#X connect 146 7 147 0;
#X connect 146 8 148 0;
#X connect 159 0 113 0;
#X connect 160 0 111 0;
#X connect 161 0 159 0;
#X connect 162 0 136 0;
#X connect 162 0 136 1;
