#N canvas 188 135 1114 787 10;
#X obj 990 59 ctlin;
#X obj 47 59 notein;
#X obj 518 59 bendin;
#X obj 104 629 ctlin 1;
#X obj 754 59 touchin;
#X obj 104 649 midi_to_ms;
#X obj 122 688 r Volume @hvcc_param 0.001 1 0.5;
#X obj 47 709 volume, f 13;
#X obj 754 84 midi_to_pwm;
#X obj 990 84 midi_to_ctrl;
#X obj 47 730 dac~ 1 2;
#X obj 47 687 monophonic;
#X obj 47 104 controls;
#X connect 0 0 9 0;
#X connect 0 1 9 1;
#X connect 1 0 12 0;
#X connect 1 1 12 1;
#X connect 2 0 12 2;
#X connect 3 0 5 0;
#X connect 4 0 8 0;
#X connect 5 0 11 2;
#X connect 6 0 7 1;
#X connect 7 0 10 0;
#X connect 8 0 12 3;
#X connect 9 0 12 4;
#X connect 11 0 7 0;
#X connect 12 0 11 0;
#X connect 12 1 11 1;
