#N canvas 138 84 1080 841 10;
#X obj 984 79 pack f f;
#X obj 1002 56 t b f;
#X obj 971 32 ctlin;
#X obj 41 32 notein, f 35;
#X obj 512 32 bendin;
#X obj 164 661 ctlin 1;
#X obj 748 32 touchin;
#X obj 41 99 controls_modern;
#X obj 41 753 volume, f 49;
#X obj 41 709 monophonic, f 21;
#X obj 179 709 polyphonic-8, f 22;
#X obj 41 784 dac~, f 5;
#X obj 164 680 midi_to_ms;
#X obj 748 52 midi_to_pwm;
#X obj 335 725 hsl 192 24 1e-05 1 1 0 empty empty Volume -2 -8 0 10
#333243 #ffffff #000000 0 1;
#X connect 0 0 7 4;
#X connect 1 0 0 0;
#X connect 1 1 0 1;
#X connect 2 0 1 0;
#X connect 2 1 0 0;
#X connect 3 0 7 0;
#X connect 3 1 7 1;
#X connect 4 0 7 2;
#X connect 5 0 12 0;
#X connect 6 0 13 0;
#X connect 7 0 9 0;
#X connect 7 0 10 0;
#X connect 7 1 9 1;
#X connect 7 1 10 1;
#X connect 8 0 11 0;
#X connect 8 0 11 1;
#X connect 9 0 8 0;
#X connect 12 0 9 2;
#X connect 13 0 7 3;
#X connect 14 0 8 1;
