#N canvas 138 83 1410 1071 10;
#X obj 456 28 ctlin, f 12;
#X obj 30 28 notein, f 34;
#X obj 242 28 bendin, f 18;
#X obj 87 944 ctlin 1;
#X obj 358 28 touchin, f 15;
#X obj 87 964 midi_to_ms;
#X obj 358 50 midi_to_pwm, f 15;
#X obj 456 50 midi_to_ctrl;
#X obj 30 1028 dac~ 1 2;
#X obj 30 985 monophonic;
#X obj 59 121 r \$0-Attack;
#X obj 74 145 r \$0-Decay;
#X obj 89 211 r \$0-Sustain;
#X obj 821 446 r \$0-Blend;
#X obj 864 466 r \$0-Rectify;
#X obj 103 234 r \$0-Release;
#X obj 692 386 r \$0-FMDepth;
#X obj 432 265 r \$0-SubLevel;
#X obj 358 119 / 128;
#X obj 358 138 moses 63;
#X obj 403 259 *;
#X obj 403 157 moses 65;
#X msg 403 176 0;
#X obj 448 214 / 64;
#X obj 505 214 t b f;
#X msg 505 157 2;
#X msg 538 157 3;
#X msg 572 157 4;
#X msg 607 157 6;
#X msg 641 157 12;
#X obj 505 119 loadbang;
#X obj 562 100 r \$0-BendRange;
#X obj 562 119 sel 0 1 2 3 4, f 17;
#X obj 448 176 - 63.9;
#X obj 358 157 - 64;
#X obj 118 256 r \$0-FMAttack;
#X obj 133 279 r \$0-FMDecay;
#X obj 148 343 r \$0-FMSustain;
#X obj 735 406 r \$0-PulseWidth;
#X obj 358 176 / 64;
#X obj 147 323 s \$0-FMDecayValue;
#X obj 88 190 s \$0-DecayValue;
#X obj 476 286 r \$0-OscDownMix;
#X obj 519 306 r \$0-OscDownTune;
#X obj 563 326 r \$0-OscUpMix;
#X obj 606 346 r \$0-OscUpTune;
#X obj 649 366 r \$0-FM;
#X obj 207 429 r \$0-LPSustain;
#X obj 192 408 r \$0-LPDecay;
#X obj 177 387 r \$0-LPAttack;
#X obj 162 365 r \$0-LPCutoff;
#X obj 907 486 r \$0-OscSine;
#X obj 950 506 r \$0-OscSaw;
#X obj 993 526 r \$0-OscPulse;
#X obj 1036 546 r \$0-OscSubType;
#X obj 1079 567 r \$0-OscDownType;
#X obj 1122 587 r \$0-OscUpType;
#X obj 1165 607 r \$0-OscFMType;
#X obj 1214 685 s \$0-BitDepthInt;
#X obj 1214 628 r \$0-BitDepth;
#X obj 432 286 t b f;
#X obj 476 306 t b f;
#X obj 519 326 t b f;
#X obj 563 346 t b f;
#X obj 606 366 t b f;
#X obj 649 386 t b f;
#X obj 692 406 t b f;
#X obj 735 426 t b f;
#X obj 778 446 t b f;
#X obj 821 466 t b f;
#X obj 864 486 t b f;
#X obj 907 506 t b f;
#X obj 950 526 t b f;
#X obj 993 546 t b f;
#X obj 1036 567 t b f;
#X obj 1079 587 t b f;
#X obj 1122 607 t b f;
#X obj 1165 628 t b f;
#X obj 1177 685 t b f;
#X obj 1214 707 r \$0-Gain;
#X obj 1171 784 t b f;
#X obj 1214 784 s \$0-GainDisplay;
#X obj 1214 827 t b f;
#X obj 1262 848 t b f;
#X obj 1262 827 r \$0-skClip;
#X obj 1214 806 r \$0-scThresh;
#X obj 30 456 pack f f f f f f f f f f f f f;
#X obj 1310 890 t b f;
#X obj 1310 848 r \$0-Unison;
#X obj 403 1000 pack f f f f f f f f f f f f f f f f f f f f f f f
f;
#X obj 1310 869 - 0.1;
#X obj 573 49 route 32 51 7 52 10 53 74 54 71 55 73 56 72 57 91 58
92;
#X text 573 69 configured for Nocturn25 controller;
#X obj 778 426 r \$0-KWarp;
#X obj 1214 666 i;
#X obj 1214 647 + 0.5;
#X obj 1171 765 pow, f 6;
#X obj 1171 727 t b f, f 6;
#X msg 1171 744 10;
#X obj 1214 727 * 200;
#X obj 1214 746 i;
#X obj 1214 765 / 10;
#X obj 74 167 - 1;
#X obj 133 301 - 1;
#X obj 30 478 s \$0-MidiData;
#X obj 403 1028 s \$0-RealtimeControl;
#X obj 30 74 r \$0-MidiNote;
#X obj 44 98 r \$0-MidiVelocity;
#X obj 358 100 r \$0-MidiPitchbend;
#X obj 573 28 r \$0-MidiControl;
#X obj 358 70 s \$0-PulseWidth;
#X obj 30 48 s \$0-MidiNote;
#X obj 130 48 s \$0-MidiVelocity;
#X obj 456 70 s \$0-MidiControl;
#X obj 242 48 s \$0-MidiPitchbend;
#X obj 58 923 r \$0-RealtimeControl;
#X obj 30 902 r \$0-MidiData;
#X obj 448 195 i;
#X obj 30 575 cnv 15 335 260 empty empty Encoder 20 12 0 14 #dfdfdf
#202020 0;
#X obj 50 633 encoder_index, f 41;
#X obj 293 595 loadbang;
#X obj 50 724 sel 0 1 2 3 4 5 6 7 8 9 10 11 12 13 14 15;
#N canvas 240 229 819 811 Preset-0 0;
#X obj 33 25 inlet;
#X obj 482 649 s \$0-Gain;
#X obj 408 649 s \$0-Unison;
#X obj 707 758 s \$0-skClip;
#X obj 621 758 s \$0-scThresh;
#X obj 281 329 s \$0-LPSustain;
#X obj 202 329 s \$0-LPDecay;
#X obj 117 329 s \$0-LPAttack;
#X obj 32 329 s \$0-LPCutoff;
#X obj 197 244 s \$0-FMSustain;
#X obj 118 244 s \$0-FMDecay;
#X obj 33 244 s \$0-FMAttack;
#X obj 250 154 s \$0-Release;
#X obj 171 154 s \$0-Sustain;
#X obj 105 154 s \$0-Decay;
#X obj 33 154 s \$0-Attack;
#X obj 408 231 s \$0-SubLevel;
#X obj 408 330 s \$0-OscDownMix;
#X obj 505 330 s \$0-OscDownTune;
#X obj 408 433 s \$0-OscUpMix;
#X obj 493 433 s \$0-OscUpTune;
#X obj 408 537 s \$0-FM, f 9;
#X obj 470 537 s \$0-FMDepth;
#X obj 629 649 s \$0-PulseWidth;
#X obj 554 758 s \$0-KWarp;
#X obj 408 758 s \$0-Blend;
#X obj 475 758 s \$0-Rectify;
#X obj 408 147 s \$0-OscSine;
#X obj 487 147 s \$0-OscSaw;
#X obj 561 147 s \$0-OscPulse;
#X obj 493 231 s \$0-OscSubType;
#X obj 608 330 s \$0-OscDownType;
#X obj 584 433 s \$0-OscUpType;
#X obj 550 537 s \$0-OscFMType;
#X obj 544 649 s \$0-BitDepth;
#X obj 33 47 b;
#X msg 493 211 0, f 8;
#X msg 608 310 0, f 8;
#X msg 584 413 0, f 8;
#X msg 550 516 0, f 8;
#X msg 408 629 0, f 8;
#X msg 482 629 0, f 8;
#X msg 554 738 0, f 8;
#X msg 33 134 1.839, f 8;
#X msg 250 134 207.5, f 8;
#X msg 171 134 0.658, f 8;
#X msg 33 224 6.482, f 8;
#X msg 197 224 0.89, f 8;
#X msg 32 309 35.75, f 8;
#X msg 117 309 45.07, f 8;
#X msg 202 309 63.53, f 8;
#X msg 281 309 0.023, f 8;
#X msg 408 127 1, f 8;
#X msg 487 127 0.001, f 8;
#X msg 561 127 0.001, f 8;
#X msg 505 310 -7, f 8;
#X msg 493 413 17, f 8;
#X msg 544 629 12, f 8;
#X msg 629 629 0.426, f 8;
#X msg 408 738 1.5708, f 8;
#X msg 475 738 1.764, f 8;
#X msg 621 738 1, f 8;
#X msg 707 738 0.776471;
#X obj 32 432 s \$0-BendRange;
#X msg 32 412 0;
#X msg 408 211 0.663051;
#X msg 408 310 0.0680662;
#X msg 408 413 0.0676568;
#X msg 408 517 470.563, f 8;
#X msg 470 516 0.272455;
#X msg 118 224 264.5, f 8;
#X msg 105 134 357.3, f 8;
#X obj 33 69 s \$0-SetPreset-0;
#X obj 33 93 r \$0-SetPreset-0, f 56;
#X obj 34 187 r \$0-SetPreset-0, f 56;
#X obj 32 272 r \$0-SetPreset-0, f 56;
#X obj 32 375 r \$0-SetPreset-0, f 56;
#X obj 408 93 r \$0-SetPreset-0, f 56;
#X obj 408 187 r \$0-SetPreset-0, f 56;
#X obj 408 272 r \$0-SetPreset-0, f 56;
#X obj 408 375 r \$0-SetPreset-0, f 56;
#X obj 408 479 r \$0-SetPreset-0, f 56;
#X obj 408 585 r \$0-SetPreset-0, f 56;
#X obj 408 697 r \$0-SetPreset-0, f 56;
#X connect 0 0 35 0;
#X connect 35 0 72 0;
#X connect 36 0 30 0;
#X connect 37 0 31 0;
#X connect 38 0 32 0;
#X connect 39 0 33 0;
#X connect 40 0 2 0;
#X connect 41 0 1 0;
#X connect 42 0 24 0;
#X connect 43 0 15 0;
#X connect 44 0 12 0;
#X connect 45 0 13 0;
#X connect 46 0 11 0;
#X connect 47 0 9 0;
#X connect 48 0 8 0;
#X connect 49 0 7 0;
#X connect 50 0 6 0;
#X connect 51 0 5 0;
#X connect 52 0 27 0;
#X connect 53 0 28 0;
#X connect 54 0 29 0;
#X connect 55 0 18 0;
#X connect 56 0 20 0;
#X connect 57 0 34 0;
#X connect 58 0 23 0;
#X connect 59 0 25 0;
#X connect 60 0 26 0;
#X connect 61 0 4 0;
#X connect 62 0 3 0;
#X connect 64 0 63 0;
#X connect 65 0 16 0;
#X connect 66 0 17 0;
#X connect 67 0 19 0;
#X connect 68 0 21 0;
#X connect 69 0 22 0;
#X connect 70 0 10 0;
#X connect 71 0 14 0;
#X connect 73 0 43 0;
#X connect 73 0 71 0;
#X connect 73 0 45 0;
#X connect 73 0 44 0;
#X connect 74 0 46 0;
#X connect 74 0 70 0;
#X connect 74 0 47 0;
#X connect 75 0 48 0;
#X connect 75 0 49 0;
#X connect 75 0 50 0;
#X connect 75 0 51 0;
#X connect 76 0 64 0;
#X connect 77 0 52 0;
#X connect 77 0 53 0;
#X connect 77 0 54 0;
#X connect 78 0 65 0;
#X connect 78 0 36 0;
#X connect 79 0 66 0;
#X connect 79 0 55 0;
#X connect 79 0 37 0;
#X connect 80 0 67 0;
#X connect 80 0 56 0;
#X connect 80 0 38 0;
#X connect 81 0 68 0;
#X connect 81 0 69 0;
#X connect 81 0 39 0;
#X connect 82 0 40 0;
#X connect 82 0 41 0;
#X connect 82 0 57 0;
#X connect 82 0 58 0;
#X connect 83 0 42 0;
#X connect 83 0 59 0;
#X connect 83 0 60 0;
#X connect 83 0 61 0;
#X connect 83 0 62 0;
#X restore 50 800 pd Preset-0;
#N canvas 240 229 819 811 Preset-2 0;
#X obj 33 25 inlet;
#X obj 482 649 s \$0-Gain;
#X obj 408 649 s \$0-Unison;
#X obj 707 758 s \$0-skClip;
#X obj 621 758 s \$0-scThresh;
#X obj 281 329 s \$0-LPSustain;
#X obj 202 329 s \$0-LPDecay;
#X obj 117 329 s \$0-LPAttack;
#X obj 32 329 s \$0-LPCutoff;
#X obj 197 244 s \$0-FMSustain;
#X obj 118 244 s \$0-FMDecay;
#X obj 33 244 s \$0-FMAttack;
#X obj 250 154 s \$0-Release;
#X obj 171 154 s \$0-Sustain;
#X obj 105 154 s \$0-Decay;
#X obj 33 154 s \$0-Attack;
#X obj 408 231 s \$0-SubLevel;
#X obj 408 330 s \$0-OscDownMix;
#X obj 505 330 s \$0-OscDownTune;
#X obj 408 433 s \$0-OscUpMix;
#X obj 493 433 s \$0-OscUpTune;
#X obj 408 537 s \$0-FM, f 9;
#X obj 470 537 s \$0-FMDepth;
#X obj 629 649 s \$0-PulseWidth;
#X obj 554 758 s \$0-KWarp;
#X obj 408 758 s \$0-Blend;
#X obj 475 758 s \$0-Rectify;
#X obj 408 147 s \$0-OscSine;
#X obj 487 147 s \$0-OscSaw;
#X obj 561 147 s \$0-OscPulse;
#X obj 493 231 s \$0-OscSubType;
#X obj 608 330 s \$0-OscDownType;
#X obj 584 433 s \$0-OscUpType;
#X obj 550 537 s \$0-OscFMType;
#X obj 544 649 s \$0-BitDepth;
#X obj 33 47 b;
#X msg 493 211 0, f 8;
#X msg 608 310 0, f 8;
#X msg 584 413 0, f 8;
#X msg 550 516 0, f 8;
#X msg 408 629 0, f 8;
#X msg 482 629 0, f 8;
#X msg 554 738 0, f 8;
#X msg 33 134 1.839, f 8;
#X msg 250 134 207.5, f 8;
#X msg 171 134 0.658, f 8;
#X msg 33 224 6.482, f 8;
#X msg 197 224 0.89, f 8;
#X msg 32 309 35.75, f 8;
#X msg 117 309 45.07, f 8;
#X msg 202 309 63.53, f 8;
#X msg 281 309 0.023, f 8;
#X msg 408 127 1, f 8;
#X msg 487 127 0.001, f 8;
#X msg 561 127 0.001, f 8;
#X msg 505 310 -7, f 8;
#X msg 493 413 17, f 8;
#X msg 544 629 12, f 8;
#X msg 629 629 0.426, f 8;
#X msg 408 738 1.5708, f 8;
#X msg 475 738 1.764, f 8;
#X msg 621 738 1, f 8;
#X obj 32 432 s \$0-BendRange;
#X msg 32 412 0;
#X msg 408 211 0.663051;
#X msg 408 310 0.0680662;
#X msg 408 413 0.0676568;
#X msg 408 517 470.563, f 8;
#X msg 470 516 0.272455;
#X msg 118 224 264.5, f 8;
#X msg 105 134 357.3, f 8;
#X msg 707 738 0.376471;
#X obj 33 69 s \$0-SetPreset-2;
#X obj 33 93 r \$0-SetPreset-2, f 56;
#X obj 33 187 r \$0-SetPreset-2, f 56;
#X obj 32 272 r \$0-SetPreset-2, f 56;
#X obj 32 375 r \$0-SetPreset-2, f 56;
#X obj 408 93 r \$0-SetPreset-2, f 56;
#X obj 408 187 r \$0-SetPreset-2, f 56;
#X obj 408 272 r \$0-SetPreset-2, f 56;
#X obj 409 375 r \$0-SetPreset-2, f 56;
#X obj 408 479 r \$0-SetPreset-2, f 56;
#X obj 408 585 r \$0-SetPreset-2, f 56;
#X obj 408 697 r \$0-SetPreset-2, f 56;
#X connect 0 0 35 0;
#X connect 35 0 72 0;
#X connect 36 0 30 0;
#X connect 37 0 31 0;
#X connect 38 0 32 0;
#X connect 39 0 33 0;
#X connect 40 0 2 0;
#X connect 41 0 1 0;
#X connect 42 0 24 0;
#X connect 43 0 15 0;
#X connect 44 0 12 0;
#X connect 45 0 13 0;
#X connect 46 0 11 0;
#X connect 47 0 9 0;
#X connect 48 0 8 0;
#X connect 49 0 7 0;
#X connect 50 0 6 0;
#X connect 51 0 5 0;
#X connect 52 0 27 0;
#X connect 53 0 28 0;
#X connect 54 0 29 0;
#X connect 55 0 18 0;
#X connect 56 0 20 0;
#X connect 57 0 34 0;
#X connect 58 0 23 0;
#X connect 59 0 25 0;
#X connect 60 0 26 0;
#X connect 61 0 4 0;
#X connect 63 0 62 0;
#X connect 64 0 16 0;
#X connect 65 0 17 0;
#X connect 66 0 19 0;
#X connect 67 0 21 0;
#X connect 68 0 22 0;
#X connect 69 0 10 0;
#X connect 70 0 14 0;
#X connect 71 0 3 0;
#X connect 73 0 43 0;
#X connect 73 0 70 0;
#X connect 73 0 45 0;
#X connect 73 0 44 0;
#X connect 74 0 46 0;
#X connect 74 0 69 0;
#X connect 74 0 47 0;
#X connect 75 0 48 0;
#X connect 75 0 49 0;
#X connect 75 0 50 0;
#X connect 75 0 51 0;
#X connect 76 0 63 0;
#X connect 77 0 52 0;
#X connect 77 0 53 0;
#X connect 77 0 54 0;
#X connect 78 0 64 0;
#X connect 78 0 36 0;
#X connect 79 0 65 0;
#X connect 79 0 55 0;
#X connect 79 0 37 0;
#X connect 80 0 66 0;
#X connect 80 0 56 0;
#X connect 80 0 38 0;
#X connect 81 0 67 0;
#X connect 81 0 68 0;
#X connect 81 0 39 0;
#X connect 82 0 40 0;
#X connect 82 0 41 0;
#X connect 82 0 57 0;
#X connect 82 0 58 0;
#X connect 83 0 42 0;
#X connect 83 0 59 0;
#X connect 83 0 60 0;
#X connect 83 0 61 0;
#X connect 83 0 71 0;
#X restore 80 762 pd Preset-2;
#N canvas 240 229 816 815 Preset-3 0;
#X obj 33 25 inlet;
#X obj 482 649 s \$0-Gain;
#X obj 408 649 s \$0-Unison;
#X obj 707 758 s \$0-skClip;
#X obj 621 758 s \$0-scThresh;
#X obj 281 329 s \$0-LPSustain;
#X obj 202 329 s \$0-LPDecay;
#X obj 117 329 s \$0-LPAttack;
#X obj 32 329 s \$0-LPCutoff;
#X obj 197 244 s \$0-FMSustain;
#X obj 118 244 s \$0-FMDecay;
#X obj 33 244 s \$0-FMAttack;
#X obj 250 154 s \$0-Release;
#X obj 171 154 s \$0-Sustain;
#X obj 105 154 s \$0-Decay;
#X obj 33 154 s \$0-Attack;
#X obj 408 231 s \$0-SubLevel;
#X obj 408 330 s \$0-OscDownMix;
#X obj 505 330 s \$0-OscDownTune;
#X obj 408 433 s \$0-OscUpMix;
#X obj 493 433 s \$0-OscUpTune;
#X obj 408 537 s \$0-FM, f 9;
#X obj 470 537 s \$0-FMDepth;
#X obj 629 649 s \$0-PulseWidth;
#X obj 554 758 s \$0-KWarp;
#X obj 408 758 s \$0-Blend;
#X obj 475 758 s \$0-Rectify;
#X obj 408 147 s \$0-OscSine;
#X obj 487 147 s \$0-OscSaw;
#X obj 561 147 s \$0-OscPulse;
#X obj 493 231 s \$0-OscSubType;
#X obj 608 330 s \$0-OscDownType;
#X obj 584 433 s \$0-OscUpType;
#X obj 550 537 s \$0-OscFMType;
#X obj 544 649 s \$0-BitDepth;
#X obj 33 47 b;
#X msg 493 211 0, f 8;
#X msg 608 310 0, f 8;
#X msg 584 413 0, f 8;
#X msg 550 516 0, f 8;
#X msg 408 629 0, f 8;
#X msg 482 629 0, f 8;
#X msg 554 738 0, f 8;
#X msg 33 134 1.839, f 8;
#X msg 250 134 207.5, f 8;
#X msg 171 134 0.658, f 8;
#X msg 33 224 6.482, f 8;
#X msg 197 224 0.89, f 8;
#X msg 32 309 35.75, f 8;
#X msg 117 309 45.07, f 8;
#X msg 202 309 63.53, f 8;
#X msg 281 309 0.023, f 8;
#X msg 408 127 1, f 8;
#X msg 487 127 0.001, f 8;
#X msg 561 127 0.001, f 8;
#X msg 505 310 -7, f 8;
#X msg 493 413 17, f 8;
#X msg 544 629 12, f 8;
#X msg 629 629 0.426, f 8;
#X msg 408 738 1.5708, f 8;
#X msg 475 738 1.764, f 8;
#X msg 621 738 1, f 8;
#X obj 32 432 s \$0-BendRange;
#X msg 32 412 0;
#X msg 408 211 0.663051;
#X msg 408 310 0.0680662;
#X msg 408 413 0.0676568;
#X msg 408 517 470.563, f 8;
#X msg 470 516 0.272455;
#X msg 118 224 264.5, f 8;
#X msg 105 134 357.3, f 8;
#X msg 707 738 0.476471;
#X obj 33 69 s \$0-SetPreset-3;
#X obj 33 93 r \$0-SetPreset-3, f 56;
#X obj 33 187 r \$0-SetPreset-3, f 56;
#X obj 32 272 r \$0-SetPreset-3, f 56;
#X obj 32 375 r \$0-SetPreset-3, f 56;
#X obj 408 93 r \$0-SetPreset-3, f 56;
#X obj 408 187 r \$0-SetPreset-3, f 56;
#X obj 408 272 r \$0-SetPreset-3, f 56;
#X obj 408 375 r \$0-SetPreset-3, f 56;
#X obj 408 479 r \$0-SetPreset-3, f 56;
#X obj 408 585 r \$0-SetPreset-3, f 56;
#X obj 408 697 r \$0-SetPreset-3, f 56;
#X connect 0 0 35 0;
#X connect 35 0 72 0;
#X connect 36 0 30 0;
#X connect 37 0 31 0;
#X connect 38 0 32 0;
#X connect 39 0 33 0;
#X connect 40 0 2 0;
#X connect 41 0 1 0;
#X connect 42 0 24 0;
#X connect 43 0 15 0;
#X connect 44 0 12 0;
#X connect 45 0 13 0;
#X connect 46 0 11 0;
#X connect 47 0 9 0;
#X connect 48 0 8 0;
#X connect 49 0 7 0;
#X connect 50 0 6 0;
#X connect 51 0 5 0;
#X connect 52 0 27 0;
#X connect 53 0 28 0;
#X connect 54 0 29 0;
#X connect 55 0 18 0;
#X connect 56 0 20 0;
#X connect 57 0 34 0;
#X connect 58 0 23 0;
#X connect 59 0 25 0;
#X connect 60 0 26 0;
#X connect 61 0 4 0;
#X connect 63 0 62 0;
#X connect 64 0 16 0;
#X connect 65 0 17 0;
#X connect 66 0 19 0;
#X connect 67 0 21 0;
#X connect 68 0 22 0;
#X connect 69 0 10 0;
#X connect 70 0 14 0;
#X connect 71 0 3 0;
#X connect 73 0 43 0;
#X connect 73 0 70 0;
#X connect 73 0 45 0;
#X connect 73 0 44 0;
#X connect 74 0 46 0;
#X connect 74 0 69 0;
#X connect 74 0 47 0;
#X connect 75 0 48 0;
#X connect 75 0 49 0;
#X connect 75 0 50 0;
#X connect 75 0 51 0;
#X connect 76 0 63 0;
#X connect 77 0 52 0;
#X connect 77 0 53 0;
#X connect 77 0 54 0;
#X connect 78 0 64 0;
#X connect 78 0 36 0;
#X connect 79 0 65 0;
#X connect 79 0 55 0;
#X connect 79 0 37 0;
#X connect 80 0 66 0;
#X connect 80 0 56 0;
#X connect 80 0 38 0;
#X connect 81 0 67 0;
#X connect 81 0 68 0;
#X connect 81 0 39 0;
#X connect 82 0 40 0;
#X connect 82 0 41 0;
#X connect 82 0 57 0;
#X connect 82 0 58 0;
#X connect 83 0 42 0;
#X connect 83 0 59 0;
#X connect 83 0 60 0;
#X connect 83 0 61 0;
#X connect 83 0 71 0;
#X restore 95 743 pd Preset-3;
#N canvas 240 229 819 811 Preset-1 0;
#X obj 33 25 inlet;
#X obj 482 649 s \$0-Gain;
#X obj 408 649 s \$0-Unison;
#X obj 707 758 s \$0-skClip;
#X obj 621 758 s \$0-scThresh;
#X obj 281 329 s \$0-LPSustain;
#X obj 202 329 s \$0-LPDecay;
#X obj 117 329 s \$0-LPAttack;
#X obj 32 329 s \$0-LPCutoff;
#X obj 197 244 s \$0-FMSustain;
#X obj 118 244 s \$0-FMDecay;
#X obj 33 244 s \$0-FMAttack;
#X obj 250 154 s \$0-Release;
#X obj 171 154 s \$0-Sustain;
#X obj 105 154 s \$0-Decay;
#X obj 33 154 s \$0-Attack;
#X obj 408 231 s \$0-SubLevel;
#X obj 408 330 s \$0-OscDownMix;
#X obj 505 330 s \$0-OscDownTune;
#X obj 408 433 s \$0-OscUpMix;
#X obj 493 433 s \$0-OscUpTune;
#X obj 408 537 s \$0-FM, f 9;
#X obj 470 537 s \$0-FMDepth;
#X obj 629 649 s \$0-PulseWidth;
#X obj 554 758 s \$0-KWarp;
#X obj 408 758 s \$0-Blend;
#X obj 475 758 s \$0-Rectify;
#X obj 408 147 s \$0-OscSine;
#X obj 487 147 s \$0-OscSaw;
#X obj 561 147 s \$0-OscPulse;
#X obj 493 231 s \$0-OscSubType;
#X obj 608 330 s \$0-OscDownType;
#X obj 584 433 s \$0-OscUpType;
#X obj 550 537 s \$0-OscFMType;
#X obj 544 649 s \$0-BitDepth;
#X obj 33 47 b;
#X msg 493 211 0, f 8;
#X msg 608 310 0, f 8;
#X msg 584 413 0, f 8;
#X msg 550 516 0, f 8;
#X msg 408 629 0, f 8;
#X msg 482 629 0, f 8;
#X msg 554 738 0, f 8;
#X msg 33 134 1.839, f 8;
#X msg 250 134 207.5, f 8;
#X msg 171 134 0.658, f 8;
#X msg 33 224 6.482, f 8;
#X msg 197 224 0.89, f 8;
#X msg 32 309 35.75, f 8;
#X msg 117 309 45.07, f 8;
#X msg 202 309 63.53, f 8;
#X msg 281 309 0.023, f 8;
#X msg 408 127 1, f 8;
#X msg 487 127 0.001, f 8;
#X msg 561 127 0.001, f 8;
#X msg 505 310 -7, f 8;
#X msg 493 413 17, f 8;
#X msg 544 629 12, f 8;
#X msg 629 629 0.426, f 8;
#X msg 408 738 1.5708, f 8;
#X msg 475 738 1.764, f 8;
#X msg 621 738 1, f 8;
#X obj 32 432 s \$0-BendRange;
#X msg 32 412 0;
#X msg 408 211 0.663051;
#X msg 408 310 0.0680662;
#X msg 408 413 0.0676568;
#X msg 408 517 470.563, f 8;
#X msg 470 516 0.272455;
#X msg 118 224 264.5, f 8;
#X msg 105 134 357.3, f 8;
#X msg 707 738 0.276471;
#X obj 33 69 s \$0-SetPreset-1;
#X obj 33 93 r \$0-SetPreset-1, f 56;
#X obj 33 187 r \$0-SetPreset-1, f 56;
#X obj 32 272 r \$0-SetPreset-1, f 56;
#X obj 32 375 r \$0-SetPreset-1, f 56;
#X obj 408 93 r \$0-SetPreset-1, f 56;
#X obj 408 187 r \$0-SetPreset-1, f 56;
#X obj 408 272 r \$0-SetPreset-1, f 56;
#X obj 408 375 r \$0-SetPreset-1, f 56;
#X obj 408 479 r \$0-SetPreset-1, f 56;
#X obj 408 585 r \$0-SetPreset-1, f 56;
#X obj 408 697 r \$0-SetPreset-1, f 56;
#X connect 0 0 35 0;
#X connect 35 0 72 0;
#X connect 36 0 30 0;
#X connect 37 0 31 0;
#X connect 38 0 32 0;
#X connect 39 0 33 0;
#X connect 40 0 2 0;
#X connect 41 0 1 0;
#X connect 42 0 24 0;
#X connect 43 0 15 0;
#X connect 44 0 12 0;
#X connect 45 0 13 0;
#X connect 46 0 11 0;
#X connect 47 0 9 0;
#X connect 48 0 8 0;
#X connect 49 0 7 0;
#X connect 50 0 6 0;
#X connect 51 0 5 0;
#X connect 52 0 27 0;
#X connect 53 0 28 0;
#X connect 54 0 29 0;
#X connect 55 0 18 0;
#X connect 56 0 20 0;
#X connect 57 0 34 0;
#X connect 58 0 23 0;
#X connect 59 0 25 0;
#X connect 60 0 26 0;
#X connect 61 0 4 0;
#X connect 63 0 62 0;
#X connect 64 0 16 0;
#X connect 65 0 17 0;
#X connect 66 0 19 0;
#X connect 67 0 21 0;
#X connect 68 0 22 0;
#X connect 69 0 10 0;
#X connect 70 0 14 0;
#X connect 71 0 3 0;
#X connect 73 0 43 0;
#X connect 73 0 70 0;
#X connect 73 0 45 0;
#X connect 73 0 44 0;
#X connect 74 0 46 0;
#X connect 74 0 69 0;
#X connect 74 0 47 0;
#X connect 75 0 48 0;
#X connect 75 0 49 0;
#X connect 75 0 50 0;
#X connect 75 0 51 0;
#X connect 76 0 63 0;
#X connect 77 0 52 0;
#X connect 77 0 53 0;
#X connect 77 0 54 0;
#X connect 78 0 64 0;
#X connect 78 0 36 0;
#X connect 79 0 65 0;
#X connect 79 0 55 0;
#X connect 79 0 37 0;
#X connect 80 0 66 0;
#X connect 80 0 56 0;
#X connect 80 0 38 0;
#X connect 81 0 67 0;
#X connect 81 0 68 0;
#X connect 81 0 39 0;
#X connect 82 0 40 0;
#X connect 82 0 41 0;
#X connect 82 0 57 0;
#X connect 82 0 58 0;
#X connect 83 0 42 0;
#X connect 83 0 59 0;
#X connect 83 0 60 0;
#X connect 83 0 61 0;
#X connect 83 0 71 0;
#X restore 65 781 pd Preset-1;
#N canvas 410 236 650 376 PresetIndicator 0;
#X obj 33 306 rgb_index-8, f 34;
#X obj 74 203 i;
#X obj 74 87 b;
#X obj 329 161 delay 500 1 msec;
#X obj 74 129 delay 750 1 msec;
#X msg 329 203 0;
#X obj 33 107 + 4;
#X obj 329 306 rgb_index-8, f 34;
#X obj 329 325 s \$0-led2_red;
#X obj 429 325 s \$0-led2_green;
#X obj 530 325 s \$0-led2_blue;
#X obj 193 182 i;
#X obj 89 182 r \$0-led1_index;
#X obj 208 161 r \$0-led2_index;
#X obj 33 325 s \$0-led1_red;
#X obj 133 325 s \$0-led1_green;
#X obj 234 325 s \$0-led1_blue;
#X obj 439 141 / 4;
#X obj 439 161 i;
#X obj 33 87 mod 4;
#X obj 439 181 + 4;
#X obj 33 27 inlet PresetIndex;
#X obj 33 47 clip 0 16;
#X connect 0 0 14 0;
#X connect 0 1 15 0;
#X connect 0 2 16 0;
#X connect 1 0 0 0;
#X connect 2 0 4 0;
#X connect 2 0 3 0;
#X connect 3 0 5 0;
#X connect 4 0 1 0;
#X connect 4 0 11 0;
#X connect 5 0 0 0;
#X connect 5 0 7 0;
#X connect 6 0 0 0;
#X connect 7 0 8 0;
#X connect 7 1 9 0;
#X connect 7 2 10 0;
#X connect 11 0 7 0;
#X connect 12 0 1 1;
#X connect 13 0 11 1;
#X connect 17 0 18 0;
#X connect 18 0 20 0;
#X connect 19 0 6 0;
#X connect 20 0 7 0;
#X connect 21 0 22 0;
#X connect 22 0 19 0;
#X connect 22 0 2 0;
#X connect 22 0 17 0;
#X restore 58 657 pd PresetIndicator;
#X msg 293 614 4;
#X obj 58 679 r EncSwitch @hv_param;
#X obj 50 703 i;
#X obj 50 614 r Encoder @hv_param;
#X text 77 703 EncSwitch resets preset to inital state;
#X obj 741 116 cnv 15 270 235 empty empty Switch1/Knob1 20 12 0 14
#dfdfdf #202020 0;
#X obj 761 165 switch_index;
#X obj 761 253 rgb_index-8, f 14;
#X obj 761 234 + 1;
#X text 787 234 add 1 to skip the 'all off' state;
#X obj 769 210 loadbang;
#N canvas 740 273 322 277 knob1-control 0;
#X obj 32 18 inlet SwitchIndex;
#X obj 32 86 pack f f;
#X obj 32 107 route 0 1 2, f 42;
#X obj 50 65 t b f;
#X obj 32 149 *;
#X obj 32 169 *, f 5;
#X obj 32 129 t f f;
#X obj 115 229 s \$0-LPCutoff;
#X obj 203 229 s \$0-Gain;
#X obj 32 229 s \$0-Attack;
#X obj 32 209 + 0.3;
#X obj 32 189 * 1000;
#X obj 115 189 pow, f 5;
#X obj 115 149 t b f;
#X msg 115 169 10;
#X obj 115 129 * 4;
#X obj 115 209 + 4;
#X obj 203 189 * 0.6;
#X obj 203 209 - 0.3;
#X obj 156 18 inlet Knob1;
#X connect 0 0 1 0;
#X connect 1 0 2 0;
#X connect 2 0 6 0;
#X connect 2 1 15 0;
#X connect 2 2 17 0;
#X connect 3 0 1 0;
#X connect 3 1 1 1;
#X connect 4 0 5 0;
#X connect 5 0 11 0;
#X connect 6 0 4 0;
#X connect 6 1 4 1;
#X connect 6 1 5 1;
#X connect 10 0 9 0;
#X connect 11 0 10 0;
#X connect 12 0 16 0;
#X connect 13 0 14 0;
#X connect 13 1 12 1;
#X connect 14 0 12 0;
#X connect 15 0 13 0;
#X connect 16 0 7 0;
#X connect 17 0 18 0;
#X connect 18 0 8 0;
#X connect 19 0 3 0;
#X restore 769 189 pd knob1-control;
#X obj 761 316 s led1_red @hv_param;
#X obj 801 295 s led1_green @hv_param;
#X obj 842 274 s led1_blue @hv_param;
#X obj 1053 117 cnv 15 270 235 empty empty Switch2/Knob2 20 12 0 14
#dfdfdf #202020 0;
#X obj 1073 166 switch_index;
#X obj 1073 254 rgb_index-8, f 14;
#X obj 1073 235 + 1;
#X text 1099 235 add 1 to skip the 'all off' state;
#X obj 1081 211 loadbang;
#N canvas 740 273 322 277 knob2-control 0;
#X obj 32 18 inlet SwitchIndex;
#X obj 203 229 s \$0-BitDepth;
#X obj 115 229 s \$0-LPAttack;
#X obj 32 229 s \$0-Release;
#X obj 32 86 pack f f;
#X obj 32 107 route 0 1 2, f 42;
#X obj 50 65 t b f;
#X obj 32 189 * 2000;
#X obj 203 209 i;
#X obj 203 189 + 1.5;
#X obj 203 169 * 11;
#X obj 115 189 * 2000;
#X obj 32 209 + 1;
#X obj 115 209 + 2;
#X obj 32 148 *;
#X obj 32 168 *, f 5;
#X obj 32 128 t f f;
#X obj 115 148 *;
#X obj 115 168 *, f 5;
#X obj 115 128 t f f;
#X obj 156 18 inlet Knob2;
#X connect 0 0 4 0;
#X connect 4 0 5 0;
#X connect 5 0 16 0;
#X connect 5 1 19 0;
#X connect 5 2 10 0;
#X connect 6 0 4 0;
#X connect 6 1 4 1;
#X connect 7 0 12 0;
#X connect 8 0 1 0;
#X connect 9 0 8 0;
#X connect 10 0 9 0;
#X connect 11 0 13 0;
#X connect 12 0 3 0;
#X connect 13 0 2 0;
#X connect 14 0 15 0;
#X connect 15 0 7 0;
#X connect 16 0 14 0;
#X connect 16 1 14 1;
#X connect 16 1 15 1;
#X connect 17 0 18 0;
#X connect 18 0 11 0;
#X connect 19 0 17 0;
#X connect 19 1 17 1;
#X connect 19 1 18 1;
#X connect 20 0 6 0;
#X restore 1081 190 pd knob2-control;
#X obj 1154 275 s led2_blue @hv_param;
#X obj 1113 296 s led2_green @hv_param;
#X obj 1073 317 s led2_red @hv_param;
#X obj 761 146 r sw1 @hv_param;
#X obj 1073 147 r sw2 @hv_param;
#X obj 862 170 r knob1 @hv_param;
#X obj 1174 171 r knob2 @hv_param;
#X connect 0 0 7 0;
#X connect 0 1 7 1;
#X connect 1 0 111 0;
#X connect 1 1 112 0;
#X connect 2 0 114 0;
#X connect 3 0 5 0;
#X connect 4 0 6 0;
#X connect 5 0 9 2;
#X connect 6 0 110 0;
#X connect 7 0 113 0;
#X connect 9 0 8 0;
#X connect 9 0 8 1;
#X connect 10 0 86 2;
#X connect 11 0 102 0;
#X connect 12 0 86 4;
#X connect 13 0 69 0;
#X connect 14 0 70 0;
#X connect 15 0 86 5;
#X connect 16 0 66 0;
#X connect 17 0 60 0;
#X connect 18 0 19 0;
#X connect 19 0 34 0;
#X connect 19 1 21 0;
#X connect 20 0 89 0;
#X connect 21 0 22 0;
#X connect 21 1 33 0;
#X connect 22 0 20 0;
#X connect 23 0 20 0;
#X connect 24 0 20 0;
#X connect 24 1 20 1;
#X connect 25 0 24 0;
#X connect 26 0 24 0;
#X connect 27 0 24 0;
#X connect 28 0 24 0;
#X connect 29 0 24 0;
#X connect 30 0 25 0;
#X connect 31 0 32 0;
#X connect 32 0 25 0;
#X connect 32 1 26 0;
#X connect 32 2 27 0;
#X connect 32 3 28 0;
#X connect 32 4 29 0;
#X connect 33 0 117 0;
#X connect 34 0 39 0;
#X connect 35 0 86 6;
#X connect 36 0 103 0;
#X connect 37 0 86 8;
#X connect 38 0 67 0;
#X connect 39 0 20 0;
#X connect 42 0 61 0;
#X connect 43 0 62 0;
#X connect 44 0 63 0;
#X connect 45 0 64 0;
#X connect 46 0 65 0;
#X connect 47 0 86 12;
#X connect 48 0 86 11;
#X connect 49 0 86 10;
#X connect 50 0 86 9;
#X connect 51 0 71 0;
#X connect 52 0 72 0;
#X connect 53 0 73 0;
#X connect 54 0 74 0;
#X connect 55 0 75 0;
#X connect 56 0 76 0;
#X connect 57 0 77 0;
#X connect 59 0 95 0;
#X connect 60 0 89 0;
#X connect 60 1 89 1;
#X connect 61 0 89 0;
#X connect 61 1 89 2;
#X connect 62 0 89 0;
#X connect 62 1 89 3;
#X connect 63 0 89 0;
#X connect 63 1 89 4;
#X connect 64 0 89 0;
#X connect 64 1 89 5;
#X connect 65 0 89 0;
#X connect 65 1 89 6;
#X connect 66 0 89 0;
#X connect 66 1 89 7;
#X connect 67 0 89 0;
#X connect 67 1 89 8;
#X connect 68 0 89 0;
#X connect 68 1 89 9;
#X connect 69 0 89 0;
#X connect 69 1 89 10;
#X connect 70 0 89 0;
#X connect 70 1 89 11;
#X connect 71 0 89 0;
#X connect 71 1 89 12;
#X connect 72 0 89 0;
#X connect 72 1 89 13;
#X connect 73 0 89 0;
#X connect 73 1 89 14;
#X connect 74 0 89 0;
#X connect 74 1 89 15;
#X connect 75 0 89 0;
#X connect 75 1 89 16;
#X connect 76 0 89 0;
#X connect 76 1 89 17;
#X connect 77 0 89 0;
#X connect 77 1 89 18;
#X connect 78 0 89 0;
#X connect 78 1 89 19;
#X connect 79 0 97 0;
#X connect 79 0 99 0;
#X connect 80 0 89 0;
#X connect 80 1 89 20;
#X connect 82 0 89 0;
#X connect 82 1 89 21;
#X connect 83 0 89 0;
#X connect 83 1 89 22;
#X connect 84 0 83 0;
#X connect 85 0 82 0;
#X connect 86 0 104 0;
#X connect 87 0 89 0;
#X connect 87 1 89 23;
#X connect 88 0 90 0;
#X connect 89 0 105 0;
#X connect 90 0 87 0;
#X connect 93 0 68 0;
#X connect 94 0 58 0;
#X connect 94 0 78 0;
#X connect 95 0 94 0;
#X connect 96 0 80 0;
#X connect 97 0 98 0;
#X connect 97 1 96 1;
#X connect 98 0 96 0;
#X connect 99 0 100 0;
#X connect 100 0 101 0;
#X connect 101 0 81 0;
#X connect 102 0 41 0;
#X connect 102 0 86 3;
#X connect 103 0 40 0;
#X connect 103 0 86 7;
#X connect 106 0 86 0;
#X connect 107 0 86 1;
#X connect 108 0 18 0;
#X connect 109 0 91 0;
#X connect 115 0 9 1;
#X connect 116 0 9 0;
#X connect 117 0 23 0;
#X connect 119 0 126 0;
#X connect 119 0 129 0;
#X connect 120 0 127 0;
#X connect 121 0 122 0;
#X connect 121 1 125 0;
#X connect 121 2 123 0;
#X connect 121 3 124 0;
#X connect 127 0 119 1;
#X connect 128 0 129 0;
#X connect 129 0 121 0;
#X connect 130 0 119 0;
#X connect 133 0 135 0;
#X connect 133 0 138 0;
#X connect 134 0 139 0;
#X connect 134 1 140 0;
#X connect 134 2 141 0;
#X connect 135 0 134 0;
#X connect 137 0 135 0;
#X connect 143 0 145 0;
#X connect 143 0 148 0;
#X connect 144 0 151 0;
#X connect 144 1 150 0;
#X connect 144 2 149 0;
#X connect 145 0 144 0;
#X connect 147 0 145 0;
#X connect 152 0 133 0;
#X connect 153 0 143 0;
#X connect 154 0 138 1;
#X connect 155 0 148 1;
