#N canvas 159 142 1416 1078 10;
#X obj 456 28 ctlin, f 12;
#X obj 30 28 notein, f 34;
#X obj 242 28 bendin, f 18;
#X obj 87 944 ctlin 1;
#X obj 358 28 touchin, f 15;
#X obj 87 964 midi_to_ms;
#X obj 105 986 r Volume @hvcc_param 0.001 1 0.5;
#X obj 30 1007 volume, f 13;
#X obj 358 50 midi_to_pwm, f 15;
#X obj 456 50 midi_to_ctrl;
#X obj 30 1028 dac~ 1 2;
#X obj 30 985 monophonic;
#X obj 59 121 r \$0-Attack;
#X obj 74 145 r \$0-Decay;
#X obj 89 211 r \$0-Sustain;
#X obj 821 446 r \$0-Blend;
#X obj 864 466 r \$0-Rectify;
#X obj 103 234 r \$0-Release;
#X obj 692 386 r \$0-FMDepth;
#X obj 432 265 r \$0-SubLevel;
#X obj 358 119 / 128;
#X obj 358 138 moses 63;
#X obj 403 259 *;
#X obj 403 157 moses 65;
#X msg 403 176 0;
#X obj 448 214 / 64;
#X obj 505 214 t b f;
#X msg 505 157 2;
#X msg 538 157 3;
#X msg 572 157 4;
#X msg 607 157 6;
#X msg 641 157 12;
#X obj 505 119 loadbang;
#X obj 562 100 r \$0-BendRange;
#X obj 562 119 sel 0 1 2 3 4, f 17;
#X obj 448 176 - 63.9;
#X obj 358 157 - 64;
#X obj 118 256 r \$0-FMAttack;
#X obj 133 279 r \$0-FMDecay;
#X obj 148 343 r \$0-FMSustain;
#X obj 735 406 r \$0-PulseWidth;
#X obj 358 176 / 64;
#X obj 147 323 s \$0-FMDecayValue;
#X obj 88 190 s \$0-DecayValue;
#X obj 476 286 r \$0-OscDownMix;
#X obj 519 306 r \$0-OscDownTune;
#X obj 563 326 r \$0-OscUpMix;
#X obj 606 346 r \$0-OscUpTune;
#X obj 649 366 r \$0-FM;
#X obj 207 429 r \$0-LPSustain;
#X obj 192 408 r \$0-LPDecay;
#X obj 177 387 r \$0-LPAttack;
#X obj 162 365 r \$0-LPCutoff;
#X obj 907 486 r \$0-OscSine;
#X obj 950 506 r \$0-OscSaw;
#X obj 993 526 r \$0-OscPulse;
#X obj 1036 546 r \$0-OscSubType;
#X obj 1079 567 r \$0-OscDownType;
#X obj 1122 587 r \$0-OscUpType;
#X obj 1165 607 r \$0-OscFMType;
#X obj 1214 685 s \$0-BitDepthInt;
#X obj 1214 628 r \$0-BitDepth;
#X obj 432 286 t b f;
#X obj 476 306 t b f;
#X obj 519 326 t b f;
#X obj 563 346 t b f;
#X obj 606 366 t b f;
#X obj 649 386 t b f;
#X obj 692 406 t b f;
#X obj 735 426 t b f;
#X obj 778 446 t b f;
#X obj 821 466 t b f;
#X obj 864 486 t b f;
#X obj 907 506 t b f;
#X obj 950 526 t b f;
#X obj 993 546 t b f;
#X obj 1036 567 t b f;
#X obj 1079 587 t b f;
#X obj 1122 607 t b f;
#X obj 1165 628 t b f;
#X obj 1177 685 t b f;
#X obj 1214 707 r \$0-Gain;
#X obj 1171 784 t b f;
#X obj 1214 784 s \$0-GainDisplay;
#X obj 1214 827 t b f;
#X obj 1262 848 t b f;
#X obj 1262 827 r \$0-skClip;
#X obj 1214 806 r \$0-scThresh;
#X obj 30 456 pack f f f f f f f f f f f f f;
#X obj 1310 890 t b f;
#X obj 1310 848 r \$0-Unison;
#X obj 403 1000 pack f f f f f f f f f f f f f f f f f f f f f f f
f;
#X obj 1310 869 - 0.1;
#X obj 573 49 route 32 51 7 52 10 53 74 54 71 55 73 56 72 57 91 58
92;
#X text 573 69 configured for Nocturn25 controller;
#X obj 778 426 r \$0-KWarp;
#X obj 1214 666 i;
#X obj 1214 647 + 0.5;
#X obj 1171 765 pow, f 6;
#X obj 1171 727 t b f, f 6;
#X msg 1171 744 10;
#X obj 1214 727 * 200;
#X obj 1214 746 i;
#X obj 1214 765 / 10;
#X obj 74 167 - 1;
#X obj 133 301 - 1;
#X obj 30 478 s \$0-MidiData;
#X obj 403 1028 s \$0-RealtimeControl;
#X obj 30 74 r \$0-MidiNote;
#X obj 44 98 r \$0-MidiVelocity;
#X obj 358 100 r \$0-MidiPitchbend;
#X obj 573 28 r \$0-MidiControl;
#X obj 358 70 s \$0-PulseWidth;
#X obj 30 48 s \$0-MidiNote;
#X obj 130 48 s \$0-MidiVelocity;
#X obj 456 70 s \$0-MidiControl;
#X obj 242 48 s \$0-MidiPitchbend;
#X obj 58 923 r \$0-RealtimeControl;
#X obj 30 902 r \$0-MidiData;
#X obj 448 195 i;
#X obj 113 74 cnv 15 15 15 empty empty ok 2 7 0 10 #00d705 #3e3e3e
0;
#X obj 151 98 cnv 15 15 15 empty empty ok 2 7 0 10 #00d705 #3e3e3e
0;
#X obj 342 100 cnv 15 15 15 empty empty ok 2 7 0 10 #00d705 #3e3e3e
0;
#X obj 134 944 cnv 15 15 15 empty empty ok 2 7 0 10 #00d705 #3e3e3e
0;
#X obj 783 164 r \$0-encoder-positive;
#X floatatom 783 207 4 0 0 0 - - - 0;
#X obj 919 164 r \$0-encoder-negative;
#X obj 783 185 encoder_index, f 46;
#X obj 1056 143 loadbang;
#X obj 936 206 r \$0-sw1_press;
#X obj 1029 206 r \$0-sw2_press;
#X obj 819 206 r \$0-encoder_press;
#X obj 819 226 tgl 15 0 empty empty empty 17 7 0 10 #fcfcfc #000000
#000000 0 1;
#X obj 936 226 tgl 15 0 empty empty empty 17 7 0 10 #fcfcfc #000000
#000000 0 1;
#X obj 1029 226 tgl 15 0 empty empty empty 17 7 0 10 #fcfcfc #000000
#000000 0 1;
#N canvas 437 208 478 271 Daisy-Pod-UI-Sim 0;
#X obj 20 26 cnv 15 300 70 empty empty Daisy\\\ Pod 4 60 0 14 #202020
#dfdfdf 0;
#X obj 42 50 tgl 15 0 empty \$0-sw1_press empty 17 7 0 10 #202020 #ff0400
#dfdfdf 0 1;
#X obj 27 50 bng 15 250 50 0 \$0-sw1 empty empty 17 7 0 10 #fcfcfc
#000000 #000000;
#X obj 27 40 tgl 10 0 empty \$0-led1_red empty 17 7 0 10 #ff534f #000000
#000000 0 1;
#X obj 37 40 tgl 10 0 empty \$0-led1_green empty 17 7 0 10 #46ff4a
#000000 #000000 0 1;
#X obj 47 40 tgl 10 0 empty \$0-led1_blue empty 17 7 0 10 #5e59ff #000000
#000000 0 1;
#X obj 96 40 hsl 64 25 0 1 0 1 \$0-knob1 empty empty -2 -8 0 10 #feac01
#000000 #000000 3250 1;
#X obj 168 40 hsl 64 25 0 1 0 1 \$0-knob2 empty empty -2 -8 0 10 #feac01
#000000 #000000 3258 1;
#X obj 75 50 tgl 15 0 empty \$0-sw2_press empty 17 7 0 10 #202020 #ff0400
#dfdfdf 0 1;
#X obj 60 50 bng 15 250 50 0 \$0-sw2 empty empty 17 7 0 10 #fcfcfc
#000000 #000000;
#X obj 60 40 tgl 10 0 empty \$0-led2_red empty 17 7 0 10 #ff534f #000000
#000000 0 1;
#X obj 70 40 tgl 10 0 empty \$0-led2_green empty 17 7 0 10 #46ff4a
#000000 #000000 0 1;
#X obj 80 40 tgl 10 0 empty \$0-led2_blue empty 17 7 0 10 #5e59ff #000000
#000000 0 1;
#X obj 237 40 cnv 15 76 39 \$0-encoder-negative empty empty 20 12 0
14 #9f9f9f #000000 0;
#X obj 291 44 bng 15 250 50 0 \$0-encoder-positive empty empty 17 7
0 10 #fcfcfc #000000 #000000;
#X obj 267 60 tgl 15 0 empty \$0-encoder_press empty 17 7 0 10 #9f9f9f
#ff0400 #ffffff 0 1;
#X obj 267 44 bng 15 250 50 0 \$0-encoder empty empty 17 7 0 10 #ffffff
#000000 #000000;
#X obj 243 44 bng 15 250 50 0 \$0-encoder-negative empty empty 17 7
0 10 #fcfcfc #000000 #000000;
#X text 289 59 +1;
#X text 242 59 -1;
#X obj 20 20 cnv 15 300 17 empty empty sw1\\\ sw2\\\ \\\ knob1\\\ \\\ \\\ knob2\\\ \\\ \\\ encoder
10 8 0 14 #606060 #dfdfdf 0;
#X obj 60 130 delay 500 1 msec;
#X obj 21 104 r \$0-sw1;
#X obj 21 203 *, f 9;
#X msg 87 180 0;
#X msg 54 180 1;
#X msg 21 180 1;
#X obj 21 150 t b b;
#X obj 60 150 t b b;
#X obj 21 224 s \$0-sw1_press;
#X obj 204 131 delay 500 1 msec;
#X obj 165 204 *, f 9;
#X msg 231 181 0;
#X msg 198 181 1;
#X msg 165 181 1;
#X obj 165 151 t b b;
#X obj 204 151 t b b;
#X obj 165 105 r \$0-sw2;
#X obj 165 225 s \$0-sw2_press;
#X obj 348 133 delay 500 1 msec;
#X obj 309 206 *, f 9;
#X msg 375 183 0;
#X msg 342 183 1;
#X msg 309 183 1;
#X obj 309 153 t b b;
#X obj 348 153 t b b;
#X obj 309 107 r \$0-encoder;
#X obj 309 227 s \$0-encoder_press;
#X connect 21 0 28 0;
#X connect 22 0 27 0;
#X connect 22 0 21 0;
#X connect 23 0 29 0;
#X connect 24 0 23 1;
#X connect 25 0 23 1;
#X connect 26 0 23 0;
#X connect 27 0 26 0;
#X connect 27 1 25 0;
#X connect 28 0 26 0;
#X connect 28 1 24 0;
#X connect 30 0 36 0;
#X connect 31 0 38 0;
#X connect 32 0 31 1;
#X connect 33 0 31 1;
#X connect 34 0 31 0;
#X connect 35 0 34 0;
#X connect 35 1 33 0;
#X connect 36 0 34 0;
#X connect 36 1 32 0;
#X connect 37 0 35 0;
#X connect 37 0 30 0;
#X connect 39 0 45 0;
#X connect 40 0 47 0;
#X connect 41 0 40 1;
#X connect 42 0 40 1;
#X connect 43 0 40 0;
#X connect 44 0 43 0;
#X connect 44 1 42 0;
#X connect 45 0 43 0;
#X connect 45 1 41 0;
#X connect 46 0 44 0;
#X connect 46 0 39 0;
#X coords 0 -1 1 1 300 77 2 20 20;
#X restore 918 21 pd Daisy-Pod-UI-Sim;
#X obj 783 245 sel 0 1 2 3 4 5 6 7 8 9 10 11 12 13 14 15;
#N canvas 286 316 450 300 Preset-0 0;
#X obj 33 25 inlet;
#X restore 783 268 pd Preset-0;
#X obj 1049 226 r \$0-knob1;
#X obj 1118 226 r \$0-knob2;
#X floatatom 1049 286 5 0 0 0 - - - 0;
#X obj 1049 246 * 127;
#X obj 1049 266 i;
#X floatatom 1118 286 5 0 0 0 - - - 0;
#X obj 1118 246 * 127;
#X obj 1118 266 i;
#X msg 1056 164 16;
#X connect 0 0 9 0;
#X connect 0 1 9 1;
#X connect 1 0 113 0;
#X connect 1 1 114 0;
#X connect 2 0 116 0;
#X connect 3 0 5 0;
#X connect 4 0 8 0;
#X connect 5 0 11 2;
#X connect 6 0 7 1;
#X connect 7 0 10 0;
#X connect 8 0 112 0;
#X connect 9 0 115 0;
#X connect 11 0 7 0;
#X connect 12 0 88 2;
#X connect 13 0 104 0;
#X connect 14 0 88 4;
#X connect 15 0 71 0;
#X connect 16 0 72 0;
#X connect 17 0 88 5;
#X connect 18 0 68 0;
#X connect 19 0 62 0;
#X connect 20 0 21 0;
#X connect 21 0 36 0;
#X connect 21 1 23 0;
#X connect 22 0 91 0;
#X connect 23 0 24 0;
#X connect 23 1 35 0;
#X connect 24 0 22 0;
#X connect 25 0 22 0;
#X connect 26 0 22 0;
#X connect 26 1 22 1;
#X connect 27 0 26 0;
#X connect 28 0 26 0;
#X connect 29 0 26 0;
#X connect 30 0 26 0;
#X connect 31 0 26 0;
#X connect 32 0 27 0;
#X connect 33 0 34 0;
#X connect 34 0 27 0;
#X connect 34 1 28 0;
#X connect 34 2 29 0;
#X connect 34 3 30 0;
#X connect 34 4 31 0;
#X connect 35 0 119 0;
#X connect 36 0 41 0;
#X connect 37 0 88 6;
#X connect 38 0 105 0;
#X connect 39 0 88 8;
#X connect 40 0 69 0;
#X connect 41 0 22 0;
#X connect 44 0 63 0;
#X connect 45 0 64 0;
#X connect 46 0 65 0;
#X connect 47 0 66 0;
#X connect 48 0 67 0;
#X connect 49 0 88 12;
#X connect 50 0 88 11;
#X connect 51 0 88 10;
#X connect 52 0 88 9;
#X connect 53 0 73 0;
#X connect 54 0 74 0;
#X connect 55 0 75 0;
#X connect 56 0 76 0;
#X connect 57 0 77 0;
#X connect 58 0 78 0;
#X connect 59 0 79 0;
#X connect 61 0 97 0;
#X connect 62 0 91 0;
#X connect 62 1 91 1;
#X connect 63 0 91 0;
#X connect 63 1 91 2;
#X connect 64 0 91 0;
#X connect 64 1 91 3;
#X connect 65 0 91 0;
#X connect 65 1 91 4;
#X connect 66 0 91 0;
#X connect 66 1 91 5;
#X connect 67 0 91 0;
#X connect 67 1 91 6;
#X connect 68 0 91 0;
#X connect 68 1 91 7;
#X connect 69 0 91 0;
#X connect 69 1 91 8;
#X connect 70 0 91 0;
#X connect 70 1 91 9;
#X connect 71 0 91 0;
#X connect 71 1 91 10;
#X connect 72 0 91 0;
#X connect 72 1 91 11;
#X connect 73 0 91 0;
#X connect 73 1 91 12;
#X connect 74 0 91 0;
#X connect 74 1 91 13;
#X connect 75 0 91 0;
#X connect 75 1 91 14;
#X connect 76 0 91 0;
#X connect 76 1 91 15;
#X connect 77 0 91 0;
#X connect 77 1 91 16;
#X connect 78 0 91 0;
#X connect 78 1 91 17;
#X connect 79 0 91 0;
#X connect 79 1 91 18;
#X connect 80 0 91 0;
#X connect 80 1 91 19;
#X connect 81 0 99 0;
#X connect 81 0 101 0;
#X connect 82 0 91 0;
#X connect 82 1 91 20;
#X connect 84 0 91 0;
#X connect 84 1 91 21;
#X connect 85 0 91 0;
#X connect 85 1 91 22;
#X connect 86 0 85 0;
#X connect 87 0 84 0;
#X connect 88 0 106 0;
#X connect 89 0 91 0;
#X connect 89 1 91 23;
#X connect 90 0 92 0;
#X connect 91 0 107 0;
#X connect 92 0 89 0;
#X connect 95 0 70 0;
#X connect 96 0 60 0;
#X connect 96 0 80 0;
#X connect 97 0 96 0;
#X connect 98 0 82 0;
#X connect 99 0 100 0;
#X connect 99 1 98 1;
#X connect 100 0 98 0;
#X connect 101 0 102 0;
#X connect 102 0 103 0;
#X connect 103 0 83 0;
#X connect 104 0 43 0;
#X connect 104 0 88 3;
#X connect 105 0 42 0;
#X connect 105 0 88 7;
#X connect 108 0 88 0;
#X connect 109 0 88 1;
#X connect 110 0 20 0;
#X connect 111 0 93 0;
#X connect 117 0 11 1;
#X connect 118 0 11 0;
#X connect 119 0 25 0;
#X connect 124 0 127 0;
#X connect 125 0 136 0;
#X connect 126 0 127 1;
#X connect 127 0 125 0;
#X connect 128 0 146 0;
#X connect 129 0 133 0;
#X connect 130 0 134 0;
#X connect 131 0 132 0;
#X connect 136 0 137 0;
#X connect 138 0 141 0;
#X connect 139 0 144 0;
#X connect 141 0 142 0;
#X connect 142 0 140 0;
#X connect 144 0 145 0;
#X connect 145 0 143 0;
#X connect 146 0 127 2;
