#N canvas 779 396 302 173 12;
#X obj 106 47 / 12;
#X obj 106 69 t b f;
#X obj 36 69 2;
#X obj 36 47 loadbang;
#X obj 36 99 pow, f 15;
#X obj 106 22 inlet MidiValue;
#X obj 36 124 outlet Milliseconds;
#X connect 0 0 1 0;
#X connect 1 0 4 0;
#X connect 1 1 4 1;
#X connect 2 0 4 0;
#X connect 3 0 2 0;
#X connect 4 0 6 0;
#X connect 5 0 0 0;
