#N canvas 779 396 302 228 12;
#X obj 36 174 outlet Milliseconds;
#X obj 133 107 pack f f;
#X obj 154 78 t b f;
#X obj 36 22 inlet Value;
#X obj 133 22 inlet Controller;
#X connect 1 0 0 0;
#X connect 2 0 1 0;
#X connect 2 1 1 1;
#X connect 3 0 2 0;
#X connect 4 0 1 0;
