#N canvas 780 397 579 305 10;
#X obj 113 255 outlet~;
#X obj 43 31 inlet MidiPitchVelADSR;
#X obj 302 31 inlet RealtimeUI;
#X obj 410 31 inlet PortementoSpeed;
#X obj 113 161 pack f f f f f f f f f f f f f;
#X obj 43 57 unpack f f f f f f f f f f f f f;
#X obj 30 120 portamento;
#X obj 113 185 voice_mini, f 32;
#X connect 1 0 5 0;
#X connect 2 0 7 1;
#X connect 3 0 6 2;
#X connect 4 0 7 0;
#X connect 5 0 6 0;
#X connect 5 1 6 1;
#X connect 5 2 4 2;
#X connect 5 3 4 3;
#X connect 5 4 4 4;
#X connect 5 5 4 5;
#X connect 5 6 4 6;
#X connect 5 7 4 7;
#X connect 5 8 4 8;
#X connect 5 9 4 9;
#X connect 5 10 4 10;
#X connect 5 11 4 11;
#X connect 5 12 4 12;
#X connect 6 0 4 0;
#X connect 6 1 4 1;
#X connect 7 0 0 0;
