#N canvas 779 397 528 389 12;
#X msg 298 119 0;
#X msg 265 119 1;
#X msg 363 119 0;
#X msg 330 119 1;
#X obj 428 59 loadbang;
#X obj 332 59 sel 0 1 2, f 10;
#X msg 395 119 1;
#X msg 428 119 0;
#X obj 34 262 *~;
#X obj 88 262 *~;
#X obj 143 262 *~;
#X obj 87 288 +~, f 7;
#X obj 34 311 +~, f 7;
#X obj 33 335 outlet~;
#X obj 211 29 inlet DutyCycle;
#X obj 332 29 inlet SelectWaveform;
#X obj 119 29 inlet Phase;
#X obj 34 29 inlet Freq;
#X obj 34 119 osc_sync, f 16;
#X connect 0 0 8 1;
#X connect 1 0 8 1;
#X connect 2 0 9 1;
#X connect 3 0 9 1;
#X connect 4 0 1 0;
#X connect 4 0 2 0;
#X connect 4 0 7 0;
#X connect 5 0 1 0;
#X connect 5 0 2 0;
#X connect 5 0 7 0;
#X connect 5 1 0 0;
#X connect 5 1 3 0;
#X connect 5 1 7 0;
#X connect 5 2 0 0;
#X connect 5 2 2 0;
#X connect 5 2 6 0;
#X connect 6 0 10 1;
#X connect 7 0 10 1;
#X connect 8 0 12 0;
#X connect 9 0 11 0;
#X connect 10 0 11 1;
#X connect 11 0 12 1;
#X connect 12 0 13 0;
#X connect 14 0 18 2;
#X connect 15 0 5 0;
#X connect 16 0 18 1;
#X connect 17 0 18 0;
#X connect 18 0 8 0;
#X connect 18 1 9 0;
#X connect 18 2 10 0;
