#N canvas 781 397 503 445 10;
#X obj 45 373 hip~ 22;
#X obj 45 394 outlet~;
#X obj 59 28 inlet MidiPitchVelADSR;
#X obj 370 28 inlet RealtimeUI;
#X obj 45 116 pack f f f f f f f f f f f f f f;
#X obj 59 53 unpack f f f f f f f f f f f f f;
#X obj 45 289 +~, f 7;
#X obj 45 141 route 1 2, f 22;
#X obj 29 86 poly 2 1;
#X obj 45 352 soft_clip;
#X obj 45 268 voice;
#X obj 85 268 voice;
#X connect 0 0 1 0;
#X connect 2 0 5 0;
#X connect 3 0 10 1;
#X connect 3 0 11 1;
#X connect 4 0 7 0;
#X connect 5 0 8 0;
#X connect 5 1 8 1;
#X connect 5 2 4 3;
#X connect 5 3 4 4;
#X connect 5 4 4 5;
#X connect 5 5 4 6;
#X connect 5 6 4 7;
#X connect 5 7 4 8;
#X connect 5 8 4 9;
#X connect 5 9 4 10;
#X connect 5 10 4 11;
#X connect 5 11 4 12;
#X connect 5 12 4 13;
#X connect 6 0 9 0;
#X connect 7 0 10 0;
#X connect 7 1 11 0;
#X connect 8 0 4 0;
#X connect 8 1 4 1;
#X connect 8 2 4 2;
#X connect 9 0 0 0;
#X connect 10 0 6 0;
#X connect 11 0 6 1;
