#N canvas 1307 617 503 445 10;
#X obj 45 141 route 1 2 3 4 5 6 7 8, f 22;
#X obj 45 373 hip~ 22;
#X obj 45 394 outlet~;
#X obj 59 28 inlet MidiPitchVelADSR;
#X obj 370 28 inlet RealtimeUI;
#X obj 45 116 pack f f f f f f f f f f f f f f;
#X obj 59 53 unpack f f f f f f f f f f f f f;
#X obj 29 86 poly 8 1;
#X obj 45 352 soft_limit;
#X obj 45 268 Voice;
#X obj 85 268 Voice;
#X obj 125 268 Voice;
#X obj 166 268 Voice;
#X obj 208 268 Voice;
#X obj 249 268 Voice;
#X obj 290 268 Voice;
#X obj 330 268 Voice;
#X obj 290 289 +~, f 7;
#X obj 45 310 +~, f 14;
#X obj 209 310 +~, f 14;
#X obj 45 331 +~, f 28;
#X obj 209 289 +~, f 7;
#X obj 126 289 +~, f 7;
#X obj 45 289 +~, f 7;
#X connect 0 0 9 0;
#X connect 0 1 10 0;
#X connect 0 2 11 0;
#X connect 0 3 12 0;
#X connect 0 4 13 0;
#X connect 0 5 14 0;
#X connect 0 6 15 0;
#X connect 0 7 16 0;
#X connect 1 0 2 0;
#X connect 3 0 6 0;
#X connect 4 0 9 1;
#X connect 4 0 10 1;
#X connect 4 0 11 1;
#X connect 4 0 12 1;
#X connect 4 0 13 1;
#X connect 4 0 14 1;
#X connect 4 0 15 1;
#X connect 4 0 16 1;
#X connect 5 0 0 0;
#X connect 6 0 7 0;
#X connect 6 1 7 1;
#X connect 6 2 5 3;
#X connect 6 3 5 4;
#X connect 6 4 5 5;
#X connect 6 5 5 6;
#X connect 6 6 5 7;
#X connect 6 7 5 8;
#X connect 6 8 5 9;
#X connect 6 9 5 10;
#X connect 6 10 5 11;
#X connect 6 11 5 12;
#X connect 6 12 5 13;
#X connect 7 0 5 0;
#X connect 7 1 5 1;
#X connect 7 2 5 2;
#X connect 8 0 1 0;
#X connect 9 0 23 0;
#X connect 10 0 23 1;
#X connect 11 0 22 0;
#X connect 12 0 22 1;
#X connect 13 0 21 0;
#X connect 14 0 21 1;
#X connect 15 0 17 0;
#X connect 16 0 17 1;
#X connect 17 0 19 1;
#X connect 18 0 20 0;
#X connect 19 0 20 1;
#X connect 20 0 8 0;
#X connect 21 0 19 0;
#X connect 22 0 18 1;
#X connect 23 0 18 0;
