#N canvas 1202 531 530 287 10;
#X obj 10 131 line;
#X obj 80 131 line;
#X text 11 11 note;
#X text 79 11 velocity;
#X text 157 12 portamento speed (ms);
#X obj 10 82 pack 0 1;
#X obj 80 82 pack 0 1;
#X obj 157 81 loadbang;
#X text 157 61 update frequency (ms);
#X msg 157 101 4;
#X obj 330 27 r speed @hvcc_param;
#X obj 149 31 r velocity @hvcc_param;
#X obj 10 29 r note @hvcc_param;
#X obj 10 156 s pitch @hvcc_param;
#X obj 168 156 s velocity @hvcc_param;
#X connect 0 0 13 0;
#X connect 1 0 14 0;
#X connect 5 0 0 0;
#X connect 6 0 1 0;
#X connect 7 0 9 0;
#X connect 9 0 1 2;
#X connect 9 0 0 2;
#X connect 10 0 5 1;
#X connect 10 0 6 1;
#X connect 11 0 6 0;
#X connect 12 0 5 0;
