#N canvas 780 397 382 238 12;
#X obj 23 42 inlet;
#X obj 115 42 inlet;
#X obj 211 42 inlet;
#X obj 23 191 outlet;
#X obj 115 191 outlet;
#X obj 23 163 line;
#X obj 115 163 line;
#X text 24 21 note;
#X text 114 21 velocity;
#X text 211 22 portamento speed (ms);
#X obj 23 92 pack 0 1;
#X obj 115 92 pack 0 1;
#X obj 211 91 loadbang;
#X text 211 71 update frequency (ms);
#X msg 211 115 4;
#X connect 0 0 10 0;
#X connect 1 0 11 0;
#X connect 2 0 10 1;
#X connect 2 0 11 1;
#X connect 5 0 3 0;
#X connect 6 0 4 0;
#X connect 10 0 5 0;
#X connect 11 0 6 0;
#X connect 12 0 14 0;
#X connect 14 0 6 2;
#X connect 14 0 5 2;
