#N canvas 780 396 307 217 12;
#X obj 74 93 *~;
#X obj 56 117 *~;
#X obj 56 142 outlet~;
#X obj 55 43 inlet~ Audio;
#X connect 0 0 1 1;
#X connect 1 0 2 0;
#X connect 3 0 0 0;
#X connect 3 0 0 1;
#X connect 3 0 1 0;
