#N canvas 502 716 382 405 12;
#X obj 55 199 cputime;
#X obj 62 130 metro, f 7;
#X msg 108 62 1000;
#X obj 101 177 delay 1000 1 msec;
#X obj 62 153 t b b;
#X obj 108 38 loadbang;
#X obj 62 38 inlet;
#X obj 55 341 outlet;
#X obj 150 274 until;
#X obj 150 318 f;
#X obj 232 250 + 1;
#X obj 232 298 sel 0;
#X msg 150 251 1;
#X obj 232 274 mod, f 5;
#X obj 274 223 loadbang;
#X msg 274 245 100;
#X obj 264 39 inlet;
#X obj 150 341 outlet;
#X obj 150 229 b;
#X connect 0 0 7 0;
#X connect 0 0 18 0;
#X connect 1 0 4 0;
#X connect 2 0 1 1;
#X connect 2 0 1 0;
#X connect 3 0 0 1;
#X connect 4 0 3 0;
#X connect 4 1 0 0;
#X connect 5 0 2 0;
#X connect 6 0 1 0;
#X connect 6 0 3 1;
#X connect 8 0 9 0;
#X connect 9 0 10 0;
#X connect 9 0 17 0;
#X connect 10 0 13 0;
#X connect 11 0 8 1;
#X connect 12 0 8 0;
#X connect 13 0 9 1;
#X connect 13 0 11 0;
#X connect 14 0 15 0;
#X connect 15 0 13 1;
#X connect 16 0 13 1;
#X connect 18 0 12 0;
