#N canvas 780 396 491 548 12;
#X obj 38 213 cputime;
#X obj 38 133 metro, f 12;
#X msg 119 79 1000;
#X obj 84 191 delay 1000 1 msec;
#X obj 38 156 t b b;
#X obj 119 56 loadbang;
#X obj 197 302 until;
#X obj 197 386 f;
#X obj 268 279 + 1;
#X obj 268 327 sel 0;
#X msg 197 280 1;
#X obj 268 303 mod, f 5;
#X obj 310 252 loadbang;
#X msg 310 274 100;
#X obj 197 258 b;
#X obj 38 489 outlet ms;
#X obj 220 489 outlet ArrayIndex;
#X obj 300 29 inlet ArraySize;
#X obj 38 29 inlet Milliseconds;
#X floatatom 399 375 7 0 0 0 - \$0-cpu-time - 0;
#N canvas 260 290 374 267 (subpatch) 0;
#X array \$0-profile_ms 100 float 0;
#X coords 0 300 99 0 200 100 2 0 0;
#X restore 250 375 graph;
#X obj 57 431 s \$0-cpu-time;
#X obj 38 56 t b f f;
#X obj 46 460 tabwrite \$0-profile_ms;
#X connect 0 0 14 0;
#X connect 0 0 15 0;
#X connect 0 0 21 0;
#X connect 0 0 23 0;
#X connect 1 0 4 0;
#X connect 2 0 1 1;
#X connect 2 0 1 0;
#X connect 3 0 0 1;
#X connect 4 0 3 0;
#X connect 4 1 0 0;
#X connect 5 0 2 0;
#X connect 6 0 7 0;
#X connect 7 0 8 0;
#X connect 7 0 16 0;
#X connect 7 0 23 1;
#X connect 8 0 11 0;
#X connect 9 0 6 1;
#X connect 10 0 6 0;
#X connect 11 0 7 1;
#X connect 11 0 9 0;
#X connect 12 0 13 0;
#X connect 13 0 11 1;
#X connect 14 0 10 0;
#X connect 17 0 11 1;
#X connect 18 0 22 0;
#X connect 22 0 1 0;
#X connect 22 1 1 1;
#X connect 22 2 3 1;
#X coords 0 -1 1 1 200 100 2 250 375;
