#N canvas 780 396 312 286 12;
#X obj 34 232 outlet~;
#X obj 35 128 abs~;
#X obj 143 154 *~;
#X obj 34 154 *~, f 14;
#X obj 34 180 +~, f 16;
#X msg 161 108 1;
#X obj 161 131 -, f 6;
#X obj 161 85 t b f, f 6;
#X obj 129 52 clip 0 2;
#X obj 35 27 inlet~ Audio;
#X obj 129 27 inlet RectifyControl;
#X obj 34 206 lowpass_filter;
#X obj 35 52 soft_limit;
#X connect 1 0 3 0;
#X connect 2 0 4 1;
#X connect 3 0 4 0;
#X connect 4 0 11 0;
#X connect 5 0 6 0;
#X connect 6 0 2 1;
#X connect 7 0 5 0;
#X connect 7 1 6 1;
#X connect 8 0 7 0;
#X connect 8 0 3 1;
#X connect 9 0 12 0;
#X connect 10 0 8 0;
#X connect 11 0 0 0;
#X connect 12 0 1 0;
#X connect 12 0 2 0;
