#N canvas 767 611 312 225 12;
#X obj 26 21 inlet~;
#X obj 120 19 inlet;
#X obj 25 177 outlet~;
#X obj 26 99 abs~;
#X obj 134 125 *~;
#X obj 25 125 *~, f 14;
#X obj 25 151 +~, f 16;
#X msg 152 77 1;
#X obj 152 100 -, f 6;
#X obj 152 54 t b f, f 6;
#X obj 26 47 soft_limit;
#X connect 0 0 10 0;
#X connect 1 0 5 1;
#X connect 1 0 9 0;
#X connect 3 0 5 0;
#X connect 4 0 6 1;
#X connect 5 0 6 0;
#X connect 6 0 2 0;
#X connect 7 0 8 0;
#X connect 8 0 4 1;
#X connect 9 0 7 0;
#X connect 9 1 8 1;
#X connect 10 0 3 0;
#X connect 10 0 4 0;
