#N canvas 767 611 312 225 12;
#X obj 27 21 inlet~;
#X obj 113 19 inlet;
#X obj 25 177 outlet~;
#X obj 26 99 abs~;
#X obj 127 125 *~;
#X obj 25 125 *~, f 13;
#X obj 25 151 +~, f 15;
#X msg 145 77 1;
#X obj 145 100 -, f 6;
#X obj 27 47 softlimiter;
#X obj 145 54 t b f, f 6;
#X connect 0 0 9 0;
#X connect 1 0 5 1;
#X connect 1 0 10 0;
#X connect 3 0 5 0;
#X connect 4 0 6 1;
#X connect 5 0 6 0;
#X connect 6 0 2 0;
#X connect 7 0 8 0;
#X connect 8 0 4 1;
#X connect 9 0 3 0;
#X connect 9 0 4 0;
#X connect 10 0 7 0;
#X connect 10 1 8 1;
