#N canvas 826 441 354 311 12;
#X msg 40 198 1;
#X msg 74 198 0;
#X msg 127 198 1;
#X msg 161 198 0;
#X msg 229 198 1;
#X msg 264 198 0;
#X obj 40 35 inlet LedIndexValue;
#X obj 40 251 outlet Red;
#X obj 127 251 outlet Green;
#X obj 229 251 outlet Blue;
#X obj 40 70 sel 0 1 2 3 4 5 6 7, f 37;
#X connect 0 0 7 0;
#X connect 1 0 7 0;
#X connect 2 0 8 0;
#X connect 3 0 8 0;
#X connect 4 0 9 0;
#X connect 5 0 9 0;
#X connect 6 0 10 0;
#X connect 10 0 1 0;
#X connect 10 0 3 0;
#X connect 10 0 5 0;
#X connect 10 1 0 0;
#X connect 10 1 3 0;
#X connect 10 1 5 0;
#X connect 10 2 1 0;
#X connect 10 2 2 0;
#X connect 10 2 5 0;
#X connect 10 3 1 0;
#X connect 10 3 3 0;
#X connect 10 3 4 0;
#X connect 10 4 0 0;
#X connect 10 4 2 0;
#X connect 10 4 5 0;
#X connect 10 5 0 0;
#X connect 10 5 3 0;
#X connect 10 5 4 0;
#X connect 10 6 1 0;
#X connect 10 6 2 0;
#X connect 10 6 4 0;
#X connect 10 7 0 0;
#X connect 10 7 2 0;
#X connect 10 7 4 0;
