#N canvas 780 397 832 401 12;
#X msg 74 204 0;
#X msg 161 204 0;
#X msg 264 204 0;
#X obj 40 41 inlet LedIndexValue;
#X obj 40 330 outlet Red;
#X obj 127 330 outlet Green;
#X obj 229 330 outlet Blue;
#X obj 40 76 sel 0 1 2 3 4 5 6 7, f 37;
#X msg 40 204 1;
#X msg 127 204 1;
#X msg 229 204 1;
#X obj 40 284 *;
#X obj 40 307 f;
#X obj 127 284 *;
#X obj 127 307 f;
#X obj 229 284 *;
#X obj 229 307 f;
#X obj 332 41 inlet Brightness-Red;
#X obj 482 41 inlet Brightness-Green;
#X obj 645 41 inlet Brightness-Blue;
#X obj 332 202 / 255;
#X obj 482 202 / 255;
#X obj 645 202 / 255;
#X obj 332 76 clip 0 255;
#X obj 482 76 clip 0 255;
#X obj 645 76 clip 0 255;
#X text 47 351 Output R \, G \, B brightness range 0-1;
#X text 428 21 Input R \, G \, B brightness range 0-255;
#X msg 344 175 200;
#X obj 344 153 loadbang;
#X msg 494 175 200;
#X obj 494 153 loadbang;
#X msg 657 175 200;
#X obj 657 153 loadbang;
#X connect 0 0 11 0;
#X connect 1 0 13 0;
#X connect 2 0 15 0;
#X connect 3 0 7 0;
#X connect 7 0 0 0;
#X connect 7 0 1 0;
#X connect 7 0 2 0;
#X connect 7 1 8 0;
#X connect 7 1 1 0;
#X connect 7 1 2 0;
#X connect 7 2 0 0;
#X connect 7 2 9 0;
#X connect 7 2 2 0;
#X connect 7 3 0 0;
#X connect 7 3 1 0;
#X connect 7 3 10 0;
#X connect 7 4 8 0;
#X connect 7 4 9 0;
#X connect 7 4 2 0;
#X connect 7 5 8 0;
#X connect 7 5 1 0;
#X connect 7 5 10 0;
#X connect 7 6 0 0;
#X connect 7 6 9 0;
#X connect 7 6 10 0;
#X connect 7 7 8 0;
#X connect 7 7 9 0;
#X connect 7 7 10 0;
#X connect 8 0 11 0;
#X connect 9 0 13 0;
#X connect 10 0 15 0;
#X connect 11 0 12 0;
#X connect 12 0 4 0;
#X connect 13 0 14 0;
#X connect 14 0 5 0;
#X connect 15 0 16 0;
#X connect 16 0 6 0;
#X connect 17 0 23 0;
#X connect 18 0 24 0;
#X connect 19 0 25 0;
#X connect 20 0 11 1;
#X connect 21 0 13 1;
#X connect 22 0 15 1;
#X connect 23 0 20 0;
#X connect 24 0 21 0;
#X connect 25 0 22 0;
#X connect 28 0 20 0;
#X connect 29 0 28 0;
#X connect 30 0 21 0;
#X connect 31 0 30 0;
#X connect 32 0 22 0;
#X connect 33 0 32 0;
