#N canvas 890 333 362 240 12;
#X obj 131 83 *~;
#X obj 51 108 +~, f 12;
#X obj 50 158 *~, f 21;
#X msg 194 108 1;
#X obj 132 33 inlet~ Ch2;
#X obj 50 33 inlet~ Ch1;
#X obj 215 33 inlet control;
#X obj 49 184 outlet~;
#X obj 240 108 / 3;
#X obj 194 83 t b f, f 7;
#X obj 194 133 -, f 7;
#X connect 0 0 1 1;
#X connect 1 0 2 0;
#X connect 2 0 7 0;
#X connect 3 0 10 0;
#X connect 4 0 0 0;
#X connect 5 0 1 0;
#X connect 6 0 9 0;
#X connect 6 0 0 1;
#X connect 8 0 10 1;
#X connect 9 0 3 0;
#X connect 9 1 8 0;
#X connect 10 0 2 1;
