#N canvas 780 397 341 377 12;
#X obj 45 274 *~, f 6;
#X obj 135 250 *~, f 6;
#X obj 135 226 abs~;
#X obj 45 298 /~, f 13;
#X obj 134 274 +~ 1;
#X obj 84 248 + 1;
#X obj 45 320 outlet~;
#X obj 45 153 soft_limit;
#X obj 174 175 * 2;
#X obj 174 152 /;
#X obj 192 129 -, f 5;
#X obj 192 83 t b f;
#X msg 192 106 1;
#X obj 174 58 clip -0.6 0.8;
#X obj 45 35 inlet~ Audio;
#X obj 174 35 inlet WarpControl;
#X connect 0 0 3 0;
#X connect 1 0 4 0;
#X connect 2 0 1 0;
#X connect 3 0 6 0;
#X connect 4 0 3 1;
#X connect 5 0 0 1;
#X connect 7 0 2 0;
#X connect 7 0 0 0;
#X connect 8 0 1 1;
#X connect 8 0 5 0;
#X connect 9 0 8 0;
#X connect 10 0 9 1;
#X connect 11 0 12 0;
#X connect 11 1 10 1;
#X connect 12 0 10 0;
#X connect 13 0 11 0;
#X connect 13 0 9 0;
#X connect 14 0 7 0;
#X connect 15 0 13 0;
