#N canvas 932 850 305 315 12;
#X obj 41 102 abs~;
#X obj 170 103 abs~;
#X obj 42 256 outlet~;
#X obj 41 33 inlet~;
#X obj 41 80 +~ 1;
#X obj 170 81 -~ 1;
#X obj 41 126 -~, f 19;
#X obj 41 151 *~ 0.5;
#X obj 42 210 *~ 1.5;
#X obj 95 187 pow~ 3;
#X obj 95 210 *~ 0.5;
#X obj 42 233 -~, f 8;
#X connect 0 0 6 0;
#X connect 1 0 6 1;
#X connect 3 0 4 0;
#X connect 3 0 5 0;
#X connect 4 0 0 0;
#X connect 5 0 1 0;
#X connect 6 0 7 0;
#X connect 7 0 8 0;
#X connect 7 0 9 0;
#X connect 8 0 11 0;
#X connect 9 0 10 0;
#X connect 10 0 11 1;
#X connect 11 0 2 0;
