#N canvas 780 397 310 227 12;
#X obj 34 86 *~ 1.5;
#X obj 94 109 *~ 0.5;
#X obj 34 132 -~, f 9;
#X obj 34 48 clip~ -2 2;
#X obj 34 178 outlet~;
#X obj 94 86 pow_3;
#X obj 33 24 inlet~ Audio;
#X obj 150 109 samplerate~;
#X obj 150 63 loadbang;
#X obj 157 86 r pd-dsp-started;
#X obj 34 155 lop~, f 17;
#X obj 150 132 / 0.3628;
#X text 160 153 Approx 16 kHz;
#X text 160 167 if SR=44.1 kHz;
#X connect 0 0 2 0;
#X connect 1 0 2 1;
#X connect 2 0 10 0;
#X connect 3 0 0 0;
#X connect 3 0 5 0;
#X connect 5 0 1 0;
#X connect 6 0 3 0;
#X connect 7 0 11 0;
#X connect 8 0 7 0;
#X connect 9 0 7 0;
#X connect 10 0 4 0;
#X connect 11 0 10 1;
