#N canvas 962 750 313 206 12;
#X obj 34 86 *~ 1.5;
#X obj 94 109 *~ 0.5;
#X obj 34 132 -~, f 9;
#X obj 34 48 clip~ -2 2;
#X obj 33 24 inlet~;
#X obj 33 156 outlet~;
#X obj 94 86 pow_3;
#X connect 0 0 2 0;
#X connect 1 0 2 1;
#X connect 2 0 5 0;
#X connect 3 0 0 0;
#X connect 3 0 6 0;
#X connect 4 0 3 0;
#X connect 6 0 1 0;
