#N canvas 638 221 314 382 12;
#X obj 46 274 *~, f 6;
#X obj 136 250 *~, f 6;
#X obj 136 226 abs~;
#X obj 46 298 /~, f 13;
#X obj 135 274 +~ 1;
#X obj 46 35 inlet~;
#X obj 175 35 inlet;
#X obj 85 248 + 1;
#X obj 46 320 outlet~;
#X obj 46 153 soft_limit;
#X obj 175 175 * 2;
#X obj 175 152 /;
#X obj 193 129 -, f 5;
#X obj 193 83 t b f;
#X msg 193 106 1;
#X obj 175 58 clip -0.6 0.8;
#X connect 0 0 3 0;
#X connect 1 0 4 0;
#X connect 2 0 1 0;
#X connect 3 0 8 0;
#X connect 4 0 3 1;
#X connect 5 0 9 0;
#X connect 6 0 15 0;
#X connect 7 0 0 1;
#X connect 9 0 2 0;
#X connect 9 0 0 0;
#X connect 10 0 1 1;
#X connect 10 0 7 0;
#X connect 11 0 10 0;
#X connect 12 0 11 1;
#X connect 13 0 14 0;
#X connect 13 1 12 1;
#X connect 14 0 12 0;
#X connect 15 0 13 0;
#X connect 15 0 11 0;
