#N canvas 780 397 294 227 12;
#X obj 47 96 *~ 1.5;
#X obj 107 119 *~ 0.5;
#X obj 47 142 -~, f 9;
#X obj 47 58 clip~ -2 2;
#X obj 47 167 outlet~;
#X obj 107 96 pow_3;
#X obj 46 34 inlet~ Audio;
#X connect 0 0 2 0;
#X connect 1 0 2 1;
#X connect 2 0 4 0;
#X connect 3 0 0 0;
#X connect 3 0 5 0;
#X connect 5 0 1 0;
#X connect 6 0 3 0;
