#N canvas 779 397 326 388 12;
#X obj 46 104 abs~;
#X obj 85 105 abs~;
#X obj 46 332 outlet~;
#X obj 46 82 +~ 1;
#X obj 85 83 -~ 1;
#X obj 46 128 -~, f 6;
#X obj 46 153 *~ 0.5;
#X obj 47 212 *~ 1.5;
#X obj 100 189 pow~ 3;
#X obj 100 212 *~ 0.5;
#X obj 47 235 -~, f 8;
#X obj 46 35 inlet~ Audio;
#X obj 46 286 +~;
#X obj 64 263 *~, f 16;
#X obj 173 34 inlet Gain;
#X obj 173 83 clip 0 1;
#X obj 46 309 lowpass_filter;
#X connect 0 0 5 0;
#X connect 1 0 5 1;
#X connect 3 0 0 0;
#X connect 4 0 1 0;
#X connect 5 0 6 0;
#X connect 6 0 7 0;
#X connect 6 0 8 0;
#X connect 7 0 10 0;
#X connect 8 0 9 0;
#X connect 9 0 10 1;
#X connect 10 0 13 0;
#X connect 10 0 12 0;
#X connect 11 0 3 0;
#X connect 11 0 4 0;
#X connect 12 0 16 0;
#X connect 13 0 12 1;
#X connect 14 0 15 0;
#X connect 15 0 13 1;
#X connect 16 0 2 0;
