#N canvas 779 397 323 296 12;
#X obj 37 239 outlet~;
#X obj 87 88 *~;
#X obj 69 59 abs~;
#X obj 87 111 +~ 1;
#X obj 36 147 /~;
#X obj 70 147 /~;
#X obj 37 193 +~, f 5;
#X obj 37 216 *~, f 18;
#X obj 69 170 *~, f 7;
#X obj 160 147 * 0.3;
#X obj 160 170 + 1;
#X obj 115 147 * 0.5;
#X obj 37 30 inlet~ Audio;
#X obj 160 29 inlet KneeControl;
#X connect 1 0 3 0;
#X connect 2 0 1 0;
#X connect 2 0 5 0;
#X connect 3 0 4 1;
#X connect 3 0 5 1;
#X connect 4 0 6 0;
#X connect 5 0 8 0;
#X connect 6 0 7 0;
#X connect 7 0 0 0;
#X connect 8 0 6 1;
#X connect 9 0 10 0;
#X connect 10 0 7 1;
#X connect 11 0 8 1;
#X connect 12 0 2 0;
#X connect 12 0 4 0;
#X connect 13 0 1 1;
#X connect 13 0 11 0;
#X connect 13 0 9 0;
