#N canvas 1202 601 301 250 12;
#X obj 46 146 *~, f 5;
#X obj 129 122 *~, f 6;
#X obj 129 98 abs~;
#X obj 46 170 /~, f 12;
#X obj 128 146 +~ 1;
#X obj 46 35 inlet~;
#X obj 168 35 inlet;
#X obj 78 120 + 1;
#X obj 46 192 outlet~;
#X obj 46 59 softlimiter;
#X connect 0 0 3 0;
#X connect 1 0 4 0;
#X connect 2 0 1 0;
#X connect 3 0 8 0;
#X connect 4 0 3 1;
#X connect 5 0 9 0;
#X connect 6 0 1 1;
#X connect 6 0 7 0;
#X connect 7 0 0 1;
#X connect 9 0 2 0;
#X connect 9 0 0 0;
