#N canvas 781 397 341 285 12;
#X obj 77 129 i 1;
#X obj 36 129 +;
#X msg 36 56 1;
#X obj 165 30 inlet MaxIndexValue;
#X obj 77 154 mod, f 13;
#X obj 176 79 loadbang;
#X obj 36 30 inlet SwitchPress;
#X msg 176 102 3;
#X obj 165 129 * 2;
#X obj 77 232 outlet;
#X obj 77 206 i;
#X obj 77 180 / 2;
#X connect 0 0 1 1;
#X connect 0 0 4 0;
#X connect 1 0 0 0;
#X connect 2 0 1 0;
#X connect 3 0 8 0;
#X connect 4 0 11 0;
#X connect 5 0 7 0;
#X connect 6 0 2 0;
#X connect 7 0 8 0;
#X connect 8 0 4 1;
#X connect 10 0 9 0;
#X connect 11 0 10 0;
