#N canvas 781 397 341 231 12;
#X obj 77 129 i 1;
#X obj 36 129 +;
#X msg 36 56 1;
#X obj 165 30 inlet MaxIndexValue;
#X obj 36 30 inlet SwitchPress;
#X obj 77 179 outlet;
#X obj 77 154 mod 3, f 13;
#X connect 0 0 1 1;
#X connect 0 0 6 0;
#X connect 1 0 0 0;
#X connect 2 0 1 0;
#X connect 3 0 6 1;
#X connect 4 0 2 0;
#X connect 6 0 5 0;
