#N canvas 829 693 392 230 12;
#X obj 45 35 inlet~ signal;
#X obj 154 35 inlet~ envelope;
#X obj 278 35 inlet gain;
#X obj 44 69 *~, f 16;
#X obj 43 103 *~, f 34;
#X obj 43 136 *~ 0.5;
#X obj 43 168 outlet~;
#X connect 0 0 3 0;
#X connect 1 0 3 1;
#X connect 2 0 4 1;
#X connect 3 0 4 0;
#X connect 4 0 5 0;
#X connect 5 0 6 0;
