#N canvas 4 39 530 287 10;
#X obj 262 224 hip~ 22;
#X obj 262 177 WSVox;
#X obj 262 247 outlet~;
#X obj 30 7 inlet MidiPitchVelADSR;
#X obj 289 7 inlet RealtimeUI;
#N canvas 183 199 274 104 SoftLimiter 0;
#X obj 8 6 inlet~;
#X obj 8 52 outlet~;
#X obj 8 29 expr~ (1.5*$v1)-(pow($v1 \, 3)*0.5);
#X connect 0 0 2 0;
#X connect 2 0 1 0;
#X restore 262 201 pd SoftLimiter;
#N canvas 376 350 297 193 portamento 0;
#X obj 10 32 inlet;
#X obj 80 32 inlet;
#X obj 157 32 inlet;
#X obj 10 155 outlet;
#X obj 80 155 outlet;
#X obj 10 131 line;
#X obj 80 131 line;
#X text 11 11 note;
#X text 79 11 velocity;
#X text 157 12 portamento speed (ms);
#X obj 10 82 pack 0 1;
#X obj 80 82 pack 0 1;
#X obj 157 81 loadbang;
#X text 157 61 update frequency (ms);
#X msg 157 101 4;
#X connect 0 0 10 0;
#X connect 1 0 11 0;
#X connect 2 0 10 1;
#X connect 2 0 11 1;
#X connect 5 0 3 0;
#X connect 6 0 4 0;
#X connect 10 0 5 0;
#X connect 11 0 6 0;
#X connect 12 0 14 0;
#X connect 14 0 6 2;
#X connect 14 0 5 2;
#X restore 8 94 pd portamento;
#X obj 397 7 inlet PortementoSpeed;
#X obj 100 137 pack f f f f f f f f f f f f f;
#X obj 30 33 unpack f f f f f f f f f f f f f;
#X connect 0 0 2 0;
#X connect 1 0 5 0;
#X connect 3 0 9 0;
#X connect 4 0 1 1;
#X connect 5 0 0 0;
#X connect 6 0 8 0;
#X connect 6 1 8 1;
#X connect 7 0 6 2;
#X connect 8 0 1 0;
#X connect 9 0 6 0;
#X connect 9 1 6 1;
#X connect 9 2 8 2;
#X connect 9 3 8 3;
#X connect 9 4 8 4;
#X connect 9 5 8 5;
#X connect 9 6 8 6;
#X connect 9 7 8 7;
#X connect 9 8 8 8;
#X connect 9 9 8 9;
#X connect 9 10 8 10;
#X connect 9 11 8 11;
#X connect 9 12 8 12;
