#N canvas 1419 663 569 305 10;
#X obj 240 240 hip~ 22;
#X obj 240 263 outlet~;
#X obj 38 23 inlet MidiPitchVelADSR;
#X obj 297 23 inlet RealtimeUI;
#X obj 405 23 inlet PortementoSpeed;
#X obj 108 153 pack f f f f f f f f f f f f f;
#X obj 38 49 unpack f f f f f f f f f f f f f;
#X obj 240 217 softlimiter;
#X obj 240 193 voice_core;
#X obj 25 110 portamento;
#X connect 0 0 1 0;
#X connect 2 0 6 0;
#X connect 3 0 8 1;
#X connect 4 0 9 2;
#X connect 5 0 8 0;
#X connect 6 0 9 0;
#X connect 6 1 9 1;
#X connect 6 2 5 2;
#X connect 6 3 5 3;
#X connect 6 4 5 4;
#X connect 6 5 5 5;
#X connect 6 6 5 6;
#X connect 6 7 5 7;
#X connect 6 8 5 8;
#X connect 6 9 5 9;
#X connect 6 10 5 10;
#X connect 6 11 5 11;
#X connect 6 12 5 12;
#X connect 7 0 0 0;
#X connect 8 0 7 0;
#X connect 9 0 5 0;
#X connect 9 1 5 1;
