#N canvas 861 254 383 321 12;
#X obj 45 76 *~;
#X obj 119 134 -, f 6;
#X msg 119 106 1;
#X obj 119 164 *~, f 21;
#X obj 44 205 +~;
#X obj 43 231 *~, f 9;
#X msg 103 205 0.95;
#X obj 103 76 b;
#X obj 158 27 inlet control;
#X obj 46 27 inlet~ Ch1;
#X obj 263 27 inlet~ Ch2;
#X obj 43 258 outlet~;
#X connect 0 0 4 0;
#X connect 1 0 3 0;
#X connect 2 0 1 0;
#X connect 3 0 4 1;
#X connect 4 0 5 0;
#X connect 5 0 11 0;
#X connect 6 0 5 1;
#X connect 7 0 2 0;
#X connect 7 0 6 0;
#X connect 8 0 1 1;
#X connect 8 0 7 0;
#X connect 8 0 0 1;
#X connect 9 0 0 0;
#X connect 10 0 3 1;
