#N canvas 124 121 1154 1107 10;
#X obj 9 848 mtof;
#X obj 378 468 clip 0 127;
#X obj 378 498 / 127;
#X obj 378 616 sel 0;
#X obj 405 641 t f f, f 20;
#X obj 405 734 pack f f f f f;
#X obj 522 662 *;
#X msg 405 755 \$1 \$2 \, \$3 \$4 \$5;
#X obj 774 595 > 0;
#X obj 774 616 sel 1 0;
#X obj 754 641 t b b;
#X obj 754 687 timer, f 7;
#X obj 637 687 f;
#X obj 637 708 +, f 5;
#X obj 637 750 t f f, f 25;
#X obj 637 771 >= 0;
#X obj 637 792 sel 0 1;
#X obj 637 947 f;
#X msg 637 969 0 \$1;
#X obj 784 813 min;
#X obj 784 834 min, f 6;
#X obj 656 879 f;
#X obj 671 857 *;
#X obj 756 926 pack f f f;
#X msg 756 947 \$1 \$2 \, 0 \$3 \$2;
#X obj 340 2039 outlet~;
#X obj 21 804 t b f;
#X obj 9 827 + 0, f 7;
#X obj 10 9 inlet PitchVelADSR;
#X obj 876 312 s \$0-RectifyVox;
#X obj 862 333 s \$0-BlendVox;
#X obj 449 371 s \$0-ReleaseVox;
#X obj 433 395 s \$0-SustainVox;
#X obj 413 419 s \$0-DecayVox;
#X obj 396 444 s \$0-AttackVox;
#X obj 723 553 s \$0-BendVox;
#X obj 21 783 r \$0-BendVox;
#X obj 537 641 r \$0-SustainVox;
#X obj 425 662 r \$0-AttackVox;
#X obj 522 687 r \$0-DecayVox;
#X obj 530 708 r \$0-AttackVox;
#X obj 652 641 r \$0-AttackVox;
#X obj 664 687 r \$0-DecayVox;
#X obj 799 792 r \$0-DecayVox;
#X obj 817 813 r \$0-ReleaseVox;
#X obj 813 903 r \$0-ReleaseVox;
#X obj 652 926 r \$0-ReleaseVox;
#X obj 686 834 r \$0-SustainVox;
#X obj 671 813 r \$0-VelocityVox;
#X obj 820 399 s \$0-FMDepthVox;
#X obj 511 1080 r \$0-SubLevelVox;
#X obj 736 531 s \$0-SubLevelVox;
#X obj 723 9 inlet Realtime;
#X obj 460 347 s \$0-FMAttackVox;
#X obj 473 323 s \$0-FMDecayVox;
#X obj 485 301 s \$0-FMSustainVox;
#X obj 392 545 s \$0-ADStrig;
#X obj 834 377 s \$0-PulseWidthVox;
#X obj 806 421 s \$0-FMVox;
#X obj 778 465 s \$0-OscUpMixVox;
#X obj 750 509 s \$0-OscDownMixVox;
#X obj 764 487 s \$0-OscDownTuneVox;
#X obj 9 869 t f f f f, f 70;
#X obj 307 1024 r \$0-OscDownMixVox;
#X obj 115 973 r \$0-OscUpMixVox;
#X obj 792 443 s \$0-OscUpTuneVox;
#X obj 352 1555 sel 0;
#X obj 379 1615 t f f;
#X obj 379 1738 pack f f f f f;
#X obj 513 1652 *;
#X msg 379 1762 \$1 \$2 \, \$3 \$4 \$5;
#X obj 352 1535 r \$0-ADStrig;
#X msg 379 1595 1;
#X obj 379 1575 bang;
#X obj 340 1997 lop~, f 7;
#X obj 379 1951 +;
#X obj 379 1976 clip 5 20000;
#X obj 379 1854 snapshot~;
#X obj 391 1830 metro 0.1;
#X obj 391 1809 loadbang;
#X obj 10 31 unpack f f f f f f f f f f f f f;
#X obj 379 1905 * 10000;
#X obj 528 1626 r \$0-LPSustainVox;
#X obj 399 1652 r \$0-LPAttackVox;
#X obj 507 1684 r \$0-LPDecayVox;
#X obj 508 1714 r \$0-LPAttackVox;
#X obj 394 1930 r \$0-LPCutoffVox;
#X obj 529 200 s \$0-LPSustainVox;
#X obj 514 225 s \$0-LPDecayVox;
#X obj 503 250 s \$0-LPAttackVox;
#X obj 490 274 s \$0-LPCutoffVox;
#X obj 890 290 s \$0-OscSineVox;
#X obj 904 268 s \$0-OscSawVox;
#X obj 918 246 s \$0-OscPulseVox;
#X obj 932 224 s \$0-OscSubTypeVox;
#X obj 946 202 s \$0-OscDownTypeVox;
#X obj 974 160 s \$0-OscFMTypeVox;
#X obj 960 181 s \$0-OscUpTypeVox;
#X obj 379 1879 expr (pow(30 \, $f1)-1)/29;
#X obj 409 1488 r \$0-BitDepth;
#X obj 988 139 s \$0-BitDepth;
#X obj 1002 118 s \$0-Gain;
#X obj 655 1124 r \$0-Gain;
#X obj 491 1221 r \$0-RectifyVox;
#X obj 565 1420 r \$0-BlendVox;
#X obj 503 1290 r \$0-skClipVox;
#X obj 1030 76 s \$0-skClipVox;
#X obj 1016 97 s \$0-scThreshVox;
#X obj 848 355 s \$0-KWarpVox;
#X obj 650 1264 r \$0-KWarpVox;
#X obj 563 1375 r \$0-scThreshVox;
#X obj 452 1397 expr~ $v1+($v2*$v1);
#X obj 340 1488 hip~ 22;
#X obj 452 1290 *~ 2;
#X obj 340 1443 expr~ $v1*cos($v3)+($v2*sin($v3)*0.25);
#N canvas 813 228 450 339 Osc-Sub 0;
#X obj 18 41 / 2;
#X obj 18 188 osc~;
#X obj 17 66 vline~;
#X obj 52 97 phasor~;
#X obj 52 188 expr~ $v1*2-1;
#X msg 222 188 0;
#X msg 191 188 1;
#X msg 283 188 0;
#X msg 252 188 1;
#X obj 344 136 loadbang;
#X obj 231 91 r \$0-PulseWidthVox;
#X obj 249 137 sel 0 1 2;
#X obj 18 247 expr~ $v1*$v4+$v2*$v5+$v3*$v6;
#X msg 313 188 1;
#X msg 344 188 0;
#X obj 249 114 r \$0-OscSubTypeVox;
#X obj 144 188 hip~ 5;
#X obj 18 17 inlet;
#X obj 18 270 outlet~;
#X obj 144 136 expr~ $v1 < $v2;
#X connect 0 0 2 0;
#X connect 1 0 12 0;
#X connect 2 0 1 0;
#X connect 2 0 3 0;
#X connect 3 0 4 0;
#X connect 3 0 19 0;
#X connect 4 0 12 1;
#X connect 5 0 12 3;
#X connect 6 0 12 3;
#X connect 7 0 12 4;
#X connect 8 0 12 4;
#X connect 9 0 6 0;
#X connect 9 0 7 0;
#X connect 9 0 14 0;
#X connect 10 0 19 1;
#X connect 11 0 6 0;
#X connect 11 0 7 0;
#X connect 11 0 14 0;
#X connect 11 1 5 0;
#X connect 11 1 8 0;
#X connect 11 1 14 0;
#X connect 11 2 5 0;
#X connect 11 2 7 0;
#X connect 11 2 13 0;
#X connect 12 0 18 0;
#X connect 13 0 12 5;
#X connect 14 0 12 5;
#X connect 15 0 11 0;
#X connect 16 0 12 2;
#X connect 17 0 0 0;
#X connect 19 0 16 0;
#X restore 426 971 pd Osc-Sub;
#N canvas 366 373 424 351 Osc-Down 0;
#X obj 27 216 osc~;
#X obj 28 87 vline~;
#X obj 63 118 phasor~;
#X obj 63 216 expr~ $v1*2-1;
#X msg 231 216 0;
#X msg 200 216 1;
#X msg 292 216 0;
#X msg 261 216 1;
#X obj 353 161 loadbang;
#X obj 240 110 r \$0-PulseWidthVox;
#X obj 262 158 sel 0 1 2;
#X obj 27 272 expr~ $v1*$v4+$v2*$v5+$v3*$v6;
#X msg 322 216 1;
#X msg 353 216 0;
#X obj 145 38 expr int($f1)/12;
#X obj 28 61 expr $f1*pow(2 \, $f2);
#X obj 145 16 r \$0-OscDownTuneVox;
#X obj 262 134 r \$0-OscDownTypeVox;
#X obj 153 216 hip~ 5;
#X obj 28 17 inlet;
#X obj 27 299 outlet~;
#X obj 153 156 expr~ $v1 < $v2;
#X connect 0 0 11 0;
#X connect 1 0 0 0;
#X connect 1 0 2 0;
#X connect 2 0 3 0;
#X connect 2 0 21 0;
#X connect 3 0 11 1;
#X connect 4 0 11 3;
#X connect 5 0 11 3;
#X connect 6 0 11 4;
#X connect 7 0 11 4;
#X connect 8 0 5 0;
#X connect 8 0 6 0;
#X connect 8 0 13 0;
#X connect 9 0 21 1;
#X connect 10 0 5 0;
#X connect 10 0 6 0;
#X connect 10 0 13 0;
#X connect 10 1 4 0;
#X connect 10 1 7 0;
#X connect 10 1 13 0;
#X connect 10 2 4 0;
#X connect 10 2 6 0;
#X connect 10 2 12 0;
#X connect 11 0 20 0;
#X connect 12 0 11 5;
#X connect 13 0 11 5;
#X connect 14 0 15 1;
#X connect 15 0 1 0;
#X connect 16 0 14 0;
#X connect 17 0 10 0;
#X connect 18 0 11 2;
#X connect 19 0 15 0;
#X connect 21 0 18 0;
#X restore 307 993 pd Osc-Down;
#N canvas 491 143 339 273 Osc-Main 0;
#X obj 8 132 osc~;
#X obj 42 110 phasor~;
#X obj 42 132 expr~ $v1*2-1;
#X obj 221 84 r \$0-PulseWidthVox;
#X obj 8 201 expr~ $v1*$v4+$v2*$v5+$v3*$v6;
#X obj 184 132 r \$0-OscSineVox;
#X obj 190 155 r \$0-OscSawVox;
#X obj 199 178 r \$0-OscPulseVox;
#X obj 134 132 hip~ 5;
#X obj 8 7 inlet;
#X obj 8 227 outlet~;
#X obj 134 108 expr~ $v1 < $v2;
#X obj 42 88 vline~;
#X obj 134 64 vline~;
#X obj 134 86 phasor~;
#X obj 42 66 +;
#X obj 134 42 -;
#X obj 149 7 r \$0-UnisonVox;
#X connect 0 0 4 0;
#X connect 1 0 2 0;
#X connect 2 0 4 1;
#X connect 3 0 11 1;
#X connect 4 0 10 0;
#X connect 5 0 4 3;
#X connect 6 0 4 4;
#X connect 7 0 4 5;
#X connect 8 0 4 2;
#X connect 9 0 0 0;
#X connect 9 0 16 0;
#X connect 9 0 15 0;
#X connect 11 0 8 0;
#X connect 12 0 1 0;
#X connect 13 0 14 0;
#X connect 14 0 11 0;
#X connect 15 0 12 0;
#X connect 16 0 13 0;
#X connect 17 0 16 1;
#X connect 17 0 15 1;
#X restore 222 973 pd Osc-Main;
#N canvas 679 181 1169 792 Osc-UpFM 0;
#X obj 737 108 t b b f f;
#X obj 710 163 -;
#X obj 780 163 +;
#X obj 847 674 r \$0-FMDepthVox;
#X obj 640 697 expr~ ($v1+$v4*($v2+$v3))*(1-$v4/4);
#X obj 798 408 sel 0;
#X obj 825 436 t f f;
#X obj 825 559 pack f f f f f;
#X obj 952 472 *;
#X msg 825 583 \$1 \$2 \, \$3 \$4 \$5;
#X obj 825 607 vline~;
#X obj 845 472 r \$0-FMAttackVox;
#X obj 967 446 r \$0-FMSustainVox;
#X obj 947 504 r \$0-FMDecayVox;
#X obj 947 534 r \$0-FMAttackVox;
#X obj 798 386 r \$0-ADStrig;
#X obj 710 672 *~;
#X obj 779 672 *~;
#X obj 22 494 osc~;
#X obj 23 362 vline~;
#X obj 58 393 phasor~;
#X obj 58 494 expr~ $v1*2-1;
#X msg 226 494 0;
#X msg 195 494 1;
#X msg 287 494 0;
#X msg 256 494 1;
#X obj 344 445 loadbang;
#X obj 148 494 hip~ 5;
#X obj 235 395 r \$0-PulseWidthVox;
#X obj 253 442 sel 0 1 2;
#X obj 23 563 expr~ $v1*$v4+$v2*$v5+$v3*$v6;
#X msg 317 494 1;
#X msg 348 494 0;
#X obj 400 494 osc~;
#X obj 401 362 vline~;
#X obj 436 393 phasor~;
#X obj 436 494 expr~ $v1*2-1;
#X msg 604 494 0;
#X msg 573 494 1;
#X msg 665 494 0;
#X msg 634 494 1;
#X obj 722 445 loadbang;
#X obj 526 494 hip~ 5;
#X obj 613 395 r \$0-PulseWidthVox;
#X obj 631 442 sel 0 1 2;
#X obj 401 563 expr~ $v1*$v4+$v2*$v5+$v3*$v6;
#X msg 695 494 1;
#X msg 726 494 0;
#X obj 779 306 osc~;
#X obj 780 188 vline~;
#X obj 815 219 phasor~;
#X obj 815 306 expr~ $v1*2-1;
#X msg 983 306 0;
#X msg 952 306 1;
#X msg 1044 306 0;
#X msg 1013 306 1;
#X obj 1101 257 loadbang;
#X obj 905 306 hip~ 5;
#X obj 992 208 r \$0-PulseWidthVox;
#X obj 1010 254 sel 0 1 2;
#X obj 779 363 expr~ $v1*$v4+$v2*$v5+$v3*$v6;
#X msg 1074 306 1;
#X msg 1105 306 0;
#X obj 749 32 expr int($f1)/12;
#X obj 632 57 expr $f1*pow(2 \, $f2);
#X obj 737 86 r \$0-FMVox;
#X obj 749 10 r \$0-OscUpTuneVox;
#X obj 253 419 r \$0-OscUpTypeVox;
#X obj 631 419 r \$0-OscFMTypeVox;
#X obj 1010 231 r \$0-OscFMTypeVox;
#X obj 632 11 inlet;
#X obj 640 722 outlet~;
#X obj 148 442 expr~ $v1 < $v2;
#X obj 526 442 expr~ $v1 < $v2;
#X obj 905 254 expr~ $v1 < $v2;
#X connect 0 0 1 0;
#X connect 0 1 2 0;
#X connect 0 2 1 1;
#X connect 0 3 2 1;
#X connect 1 0 34 0;
#X connect 2 0 49 0;
#X connect 3 0 4 3;
#X connect 4 0 71 0;
#X connect 5 1 6 0;
#X connect 6 0 7 0;
#X connect 6 1 8 0;
#X connect 7 0 9 0;
#X connect 8 0 7 2;
#X connect 9 0 10 0;
#X connect 10 0 17 1;
#X connect 10 0 16 1;
#X connect 11 0 7 1;
#X connect 12 0 8 1;
#X connect 13 0 7 3;
#X connect 14 0 7 4;
#X connect 15 0 5 0;
#X connect 16 0 4 1;
#X connect 17 0 4 2;
#X connect 18 0 30 0;
#X connect 19 0 18 0;
#X connect 19 0 20 0;
#X connect 20 0 21 0;
#X connect 20 0 72 0;
#X connect 21 0 30 1;
#X connect 22 0 30 3;
#X connect 23 0 30 3;
#X connect 24 0 30 4;
#X connect 25 0 30 4;
#X connect 26 0 23 0;
#X connect 26 0 24 0;
#X connect 26 0 32 0;
#X connect 27 0 30 2;
#X connect 28 0 72 1;
#X connect 29 0 23 0;
#X connect 29 0 24 0;
#X connect 29 0 32 0;
#X connect 29 1 22 0;
#X connect 29 1 25 0;
#X connect 29 1 32 0;
#X connect 29 2 22 0;
#X connect 29 2 24 0;
#X connect 29 2 31 0;
#X connect 30 0 4 0;
#X connect 31 0 30 5;
#X connect 32 0 30 5;
#X connect 33 0 45 0;
#X connect 34 0 33 0;
#X connect 34 0 35 0;
#X connect 35 0 36 0;
#X connect 35 0 73 0;
#X connect 36 0 45 1;
#X connect 37 0 45 3;
#X connect 38 0 45 3;
#X connect 39 0 45 4;
#X connect 40 0 45 4;
#X connect 41 0 38 0;
#X connect 41 0 39 0;
#X connect 41 0 47 0;
#X connect 42 0 45 2;
#X connect 43 0 73 1;
#X connect 44 0 38 0;
#X connect 44 0 39 0;
#X connect 44 0 47 0;
#X connect 44 1 37 0;
#X connect 44 1 40 0;
#X connect 44 1 47 0;
#X connect 44 2 37 0;
#X connect 44 2 39 0;
#X connect 44 2 46 0;
#X connect 45 0 16 0;
#X connect 46 0 45 5;
#X connect 47 0 45 5;
#X connect 48 0 60 0;
#X connect 49 0 48 0;
#X connect 49 0 50 0;
#X connect 50 0 51 0;
#X connect 50 0 74 0;
#X connect 51 0 60 1;
#X connect 52 0 60 3;
#X connect 53 0 60 3;
#X connect 54 0 60 4;
#X connect 55 0 60 4;
#X connect 56 0 53 0;
#X connect 56 0 54 0;
#X connect 56 0 62 0;
#X connect 57 0 60 2;
#X connect 58 0 74 1;
#X connect 59 0 53 0;
#X connect 59 0 54 0;
#X connect 59 0 62 0;
#X connect 59 1 52 0;
#X connect 59 1 55 0;
#X connect 59 1 62 0;
#X connect 59 2 52 0;
#X connect 59 2 54 0;
#X connect 59 2 61 0;
#X connect 60 0 17 0;
#X connect 61 0 60 5;
#X connect 62 0 60 5;
#X connect 63 0 64 1;
#X connect 64 0 1 0;
#X connect 64 0 2 0;
#X connect 64 0 19 0;
#X connect 65 0 0 0;
#X connect 66 0 63 0;
#X connect 67 0 29 0;
#X connect 68 0 44 0;
#X connect 69 0 59 0;
#X connect 70 0 64 0;
#X connect 72 0 27 0;
#X connect 73 0 42 0;
#X connect 74 0 57 0;
#X restore 9 972 pd Osc-UpFM;
#X obj 723 32 unpack f f f f f f f f f f f f f f f f f f f f f f f
f;
#X obj 1044 55 s \$0-UnisonVox;
#X obj 426 950 -;
#X obj 441 929 r \$0-UnisonVox;
#X obj 322 951 r \$0-UnisonVox;
#X obj 307 972 +;
#X obj 24 928 r \$0-UnisonVox;
#X obj 9 950 +;
#X obj 452 1242 rectify;
#X obj 637 729 -, f 20;
#X obj 637 1000 hv.vline;
#X obj 379 1786 hv.vline;
#X obj 452 1332 +~, f 25;
#X obj 452 1353 /~ 2;
#X obj 9 995 signal_mixer, f 36;
#X obj 136 1046 signal_blender, f 29;
#X obj 340 1102 signal_blender, f 29;
#X obj 340 1124 *~, f 50;
#X obj 340 1146 *~, f 53;
#X obj 340 1167 *~ 0.5;
#X obj 452 1311 soft_knee;
#X obj 452 1199 soft_limit;
#X obj 599 1285 soft_warp;
#X obj 340 1466 soft_limit;
#X obj 452 1375 soft_cubic;
#X obj 340 2018 soft_limit;
#X obj 340 1509 bitcrush, f 12;
#X connect 0 0 62 0;
#X connect 1 0 2 0;
#X connect 2 0 3 0;
#X connect 2 0 8 0;
#X connect 2 0 56 0;
#X connect 3 1 4 0;
#X connect 4 0 5 0;
#X connect 4 1 6 0;
#X connect 5 0 7 0;
#X connect 6 0 5 2;
#X connect 7 0 129 0;
#X connect 8 0 9 0;
#X connect 9 0 10 0;
#X connect 9 1 11 1;
#X connect 10 0 11 0;
#X connect 10 1 12 0;
#X connect 11 0 128 1;
#X connect 12 0 13 0;
#X connect 13 0 128 0;
#X connect 14 0 15 0;
#X connect 14 1 19 0;
#X connect 15 0 16 0;
#X connect 16 0 17 0;
#X connect 16 1 21 0;
#X connect 17 0 18 0;
#X connect 18 0 129 0;
#X connect 19 0 20 0;
#X connect 20 0 23 1;
#X connect 21 0 23 0;
#X connect 22 0 21 1;
#X connect 23 0 24 0;
#X connect 24 0 129 0;
#X connect 26 0 27 0;
#X connect 26 1 27 1;
#X connect 27 0 0 0;
#X connect 28 0 80 0;
#X connect 36 0 26 0;
#X connect 37 0 6 1;
#X connect 38 0 5 1;
#X connect 39 0 5 3;
#X connect 40 0 5 4;
#X connect 41 0 12 1;
#X connect 42 0 13 1;
#X connect 43 0 19 1;
#X connect 44 0 20 1;
#X connect 45 0 23 2;
#X connect 46 0 17 1;
#X connect 47 0 22 1;
#X connect 48 0 22 0;
#X connect 50 0 135 2;
#X connect 52 0 119 0;
#X connect 62 0 126 0;
#X connect 62 1 117 0;
#X connect 62 2 124 0;
#X connect 62 3 121 0;
#X connect 63 0 134 2;
#X connect 64 0 133 1;
#X connect 66 1 73 0;
#X connect 67 0 68 0;
#X connect 67 1 69 0;
#X connect 68 0 70 0;
#X connect 69 0 68 2;
#X connect 70 0 130 0;
#X connect 71 0 66 0;
#X connect 72 0 67 0;
#X connect 73 0 72 0;
#X connect 74 0 144 0;
#X connect 75 0 76 0;
#X connect 76 0 74 1;
#X connect 77 0 98 0;
#X connect 78 0 77 0;
#X connect 79 0 78 0;
#X connect 80 0 27 0;
#X connect 80 1 1 0;
#X connect 80 2 34 0;
#X connect 80 3 33 0;
#X connect 80 4 32 0;
#X connect 80 5 31 0;
#X connect 80 6 53 0;
#X connect 80 7 54 0;
#X connect 80 8 55 0;
#X connect 80 9 90 0;
#X connect 80 10 89 0;
#X connect 80 11 88 0;
#X connect 80 12 87 0;
#X connect 81 0 75 0;
#X connect 82 0 69 1;
#X connect 83 0 68 1;
#X connect 84 0 68 3;
#X connect 85 0 68 4;
#X connect 86 0 75 1;
#X connect 98 0 81 0;
#X connect 99 0 145 1;
#X connect 102 0 137 1;
#X connect 103 0 127 1;
#X connect 104 0 114 2;
#X connect 105 0 139 1;
#X connect 109 0 141 1;
#X connect 110 0 111 1;
#X connect 111 0 114 1;
#X connect 112 0 145 0;
#X connect 113 0 139 0;
#X connect 114 0 142 0;
#X connect 115 0 135 1;
#X connect 116 0 134 1;
#X connect 117 0 133 2;
#X connect 118 0 133 0;
#X connect 119 0 35 0;
#X connect 119 1 51 0;
#X connect 119 2 60 0;
#X connect 119 3 61 0;
#X connect 119 4 59 0;
#X connect 119 5 65 0;
#X connect 119 6 58 0;
#X connect 119 7 49 0;
#X connect 119 8 57 0;
#X connect 119 9 108 0;
#X connect 119 10 30 0;
#X connect 119 11 29 0;
#X connect 119 12 91 0;
#X connect 119 13 92 0;
#X connect 119 14 93 0;
#X connect 119 15 94 0;
#X connect 119 16 95 0;
#X connect 119 17 97 0;
#X connect 119 18 96 0;
#X connect 119 19 100 0;
#X connect 119 20 101 0;
#X connect 119 21 107 0;
#X connect 119 22 106 0;
#X connect 119 23 120 0;
#X connect 121 0 115 0;
#X connect 122 0 121 1;
#X connect 123 0 124 1;
#X connect 124 0 116 0;
#X connect 125 0 126 1;
#X connect 126 0 118 0;
#X connect 127 0 113 0;
#X connect 127 0 141 0;
#X connect 128 0 14 0;
#X connect 129 0 136 1;
#X connect 130 0 77 0;
#X connect 131 0 132 0;
#X connect 132 0 143 0;
#X connect 133 0 134 0;
#X connect 134 0 135 0;
#X connect 135 0 136 0;
#X connect 136 0 137 0;
#X connect 137 0 138 0;
#X connect 138 0 114 0;
#X connect 138 0 140 0;
#X connect 139 0 131 0;
#X connect 140 0 127 0;
#X connect 141 0 131 1;
#X connect 142 0 112 0;
#X connect 143 0 111 0;
#X connect 144 0 25 0;
#X connect 145 0 74 0;
#X coords 0 0 1 1 85 60 0;
