#N canvas 148 199 1192 647 10;
#X obj 24 811 mtof;
#X obj 393 485 clip 0 127;
#X obj 393 515 / 127;
#X obj 393 614 sel 0;
#X obj 420 635 t f f, f 20;
#X obj 420 728 pack f f f f f;
#X obj 537 658 *;
#X msg 420 750 \$1 \$2 \, \$3 \$4 \$5;
#X obj 760 614 > 0;
#X obj 760 635 sel 1 0;
#X obj 760 658 timer, f 7;
#X obj 652 707 f;
#X obj 652 726 +, f 5;
#X obj 652 767 t f f, f 25;
#X obj 652 788 >= 0;
#X obj 652 809 sel 0 1;
#X obj 652 964 f;
#X msg 652 986 0 \$1;
#X obj 799 830 min;
#X obj 799 851 min, f 6;
#X obj 671 896 f;
#X obj 686 874 *;
#X obj 771 943 pack f f f;
#X msg 771 964 \$1 \$2 \, 0 \$3 \$2;
#X obj 357 1516 outlet~;
#X obj 36 767 t b f;
#X obj 24 790 + 0, f 7;
#X obj 24 26 inlet PitchVelADSR;
#X obj 891 329 s \$0-RectifyVox;
#X obj 877 350 s \$0-BlendVox;
#X obj 464 388 s \$0-ReleaseVox;
#X obj 448 412 s \$0-SustainVox;
#X obj 428 436 s \$0-DecayVox;
#X obj 411 461 s \$0-AttackVox;
#X obj 738 570 s \$0-BendVox;
#X obj 36 746 r \$0-BendVox;
#X obj 552 635 r \$0-SustainVox;
#X obj 440 658 r \$0-AttackVox;
#X obj 537 681 r \$0-DecayVox;
#X obj 545 702 r \$0-AttackVox;
#X obj 667 658 r \$0-AttackVox;
#X obj 679 707 r \$0-DecayVox;
#X obj 814 809 r \$0-DecayVox;
#X obj 832 830 r \$0-ReleaseVox;
#X obj 828 920 r \$0-ReleaseVox;
#X obj 667 943 r \$0-ReleaseVox;
#X obj 701 851 r \$0-SustainVox;
#X obj 835 416 s \$0-FMDepthVox;
#X obj 526 996 r \$0-SubLevelVox;
#X obj 751 548 s \$0-SubLevelVox;
#X obj 738 26 inlet Realtime;
#X obj 475 364 s \$0-FMAttackVox;
#X obj 488 340 s \$0-FMDecayVox;
#X obj 500 318 s \$0-FMSustainVox;
#X obj 849 394 s \$0-PulseWidthVox;
#X obj 821 438 s \$0-FMVox;
#X obj 793 482 s \$0-OscUpMixVox;
#X obj 765 526 s \$0-OscDownMixVox;
#X obj 779 504 s \$0-OscDownTuneVox;
#X obj 328 934 r \$0-OscDownMixVox;
#X obj 113 887 r \$0-OscUpMixVox;
#X obj 807 460 s \$0-OscUpTuneVox;
#X obj 759 1030 sel 0;
#X obj 786 1090 t f f, f 23;
#X obj 786 1182 pack f f f f f;
#X obj 921 1111 *;
#X msg 786 1202 \$1 \$2 \, \$3 \$4 \$5;
#X msg 786 1070 1;
#X obj 786 1050 bang;
#X obj 357 1474 lop~, f 72;
#X obj 786 1436 +;
#X obj 786 1455 clip 5 20000;
#X obj 786 1284 snapshot~;
#X obj 794 1263 metro 0.1;
#X obj 794 1242 loadbang;
#X obj 24 48 unpack f f f f f f f f f f f f f;
#X obj 786 1398 * 10000;
#X obj 936 1090 r \$0-LPSustainVox;
#X obj 806 1114 r \$0-LPAttackVox;
#X obj 914 1137 r \$0-LPDecayVox;
#X obj 915 1158 r \$0-LPAttackVox;
#X obj 801 1417 r \$0-LPCutoffVox;
#X obj 544 217 s \$0-LPSustainVox;
#X obj 529 242 s \$0-LPDecayVox;
#X obj 518 267 s \$0-LPAttackVox;
#X obj 505 291 s \$0-LPCutoffVox;
#X obj 905 307 s \$0-OscSineVox;
#X obj 919 285 s \$0-OscSawVox;
#X obj 933 263 s \$0-OscPulseVox;
#X obj 947 241 s \$0-OscSubTypeVox;
#X obj 961 219 s \$0-OscDownTypeVox;
#X obj 989 177 s \$0-OscFMTypeVox;
#X obj 975 198 s \$0-OscUpTypeVox;
#X obj 426 1432 r \$0-BitDepth;
#X obj 1003 156 s \$0-BitDepth;
#X obj 1017 135 s \$0-Gain;
#X obj 670 1040 r \$0-Gain;
#X obj 441 1133 r \$0-RectifyVox;
#X obj 417 1305 r \$0-BlendVox;
#X obj 453 1192 r \$0-skClipVox;
#X obj 1045 93 s \$0-skClipVox;
#X obj 1031 114 s \$0-scThreshVox;
#X obj 863 372 s \$0-KWarpVox;
#X obj 600 1167 r \$0-KWarpVox;
#X obj 459 1255 r \$0-scThreshVox;
#X obj 357 1432 hip~ 22;
#X obj 402 1192 *~ 2;
#N canvas 779 396 312 215 Osc-Sub 0;
#X obj 95 97 r \$0-PulseWidthVox;
#X obj 124 118 r \$0-OscSubTypeVox;
#X obj 37 164 outlet~;
#X obj 37 76 -;
#X obj 52 55 r \$0-UnisonVox;
#X obj 37 97 / 2;
#X obj 37 33 inlet Freq;
#X obj 66 76 r \$0-OscPhase;
#X obj 37 139 osc_sync_select;
#X connect 0 0 8 2;
#X connect 1 0 8 3;
#X connect 3 0 5 0;
#X connect 4 0 3 1;
#X connect 5 0 8 0;
#X connect 6 0 3 0;
#X connect 7 0 8 1;
#X connect 8 0 2 0;
#X restore 441 996 pd Osc-Sub;
#N canvas 780 396 365 330 Osc-Down 0;
#X obj 205 31 r \$0-OscDownTuneVox;
#X obj 40 273 outlet~;
#X obj 127 228 r \$0-OscDownTypeVox;
#X obj 98 207 r \$0-PulseWidthVox;
#X obj 205 143 pow, f 5;
#X obj 205 76 i;
#X msg 205 121 2;
#X obj 238 121 / 12;
#X obj 55 122 r \$0-UnisonVox;
#X obj 40 143 +;
#X obj 205 54 clip -36 0;
#X obj 205 99 t b f, f 6;
#X obj 40 164 *, f 28;
#X obj 40 31 inlet Freq;
#X obj 69 186 r \$0-OscPhase;
#X obj 40 249 osc_sync_select;
#X connect 0 0 10 0;
#X connect 2 0 15 3;
#X connect 3 0 15 2;
#X connect 4 0 12 1;
#X connect 5 0 11 0;
#X connect 6 0 4 0;
#X connect 7 0 4 1;
#X connect 8 0 9 1;
#X connect 9 0 12 0;
#X connect 10 0 5 0;
#X connect 11 0 6 0;
#X connect 11 1 7 0;
#X connect 12 0 15 0;
#X connect 13 0 9 0;
#X connect 14 0 15 1;
#X connect 15 0 1 0;
#X restore 302 909 pd Osc-Down;
#N canvas 781 397 494 371 Osc-Main 0;
#X obj 161 144 phasor~;
#X obj 345 144 r \$0-PulseWidthVox;
#X obj 46 239 r \$0-OscSineVox;
#X obj 176 239 r \$0-OscSawVox;
#X obj 304 239 r \$0-OscPulseVox;
#X obj 31 323 outlet~;
#X obj 288 144 phasor~;
#X obj 161 108 +;
#X obj 288 85 -;
#X obj 303 54 r \$0-UnisonVox;
#X obj 288 165 hv.lte, f 10;
#X obj 31 259 *~;
#X obj 161 259 *~;
#X obj 289 259 *~;
#X obj 160 279 +~, f 22;
#X obj 31 301 +~, f 22;
#X obj 161 165 *~ 2;
#X obj 161 186 -~ 1;
#X obj 288 185 -~ 0.5;
#X obj 288 205 hip~ 10;
#X obj 30 165 cos~;
#X obj 31 144 phasor~;
#X obj 31 31 inlet Freq;
#X obj 70 123 r \$0-OscPhase;
#X obj 200 122 r \$0-OscPhase;
#X obj 327 122 r \$0-OscPhase;
#X connect 0 0 16 0;
#X connect 1 0 10 1;
#X connect 2 0 11 1;
#X connect 3 0 12 1;
#X connect 4 0 13 1;
#X connect 6 0 10 0;
#X connect 7 0 0 0;
#X connect 8 0 6 0;
#X connect 9 0 8 1;
#X connect 9 0 7 1;
#X connect 10 0 18 0;
#X connect 11 0 15 0;
#X connect 12 0 14 0;
#X connect 13 0 14 1;
#X connect 14 0 15 1;
#X connect 15 0 5 0;
#X connect 16 0 17 0;
#X connect 17 0 12 0;
#X connect 18 0 19 0;
#X connect 19 0 13 0;
#X connect 20 0 11 0;
#X connect 21 0 20 0;
#X connect 22 0 8 0;
#X connect 22 0 7 0;
#X connect 22 0 21 0;
#X connect 23 0 21 1;
#X connect 24 0 0 1;
#X connect 25 0 6 1;
#X restore 225 887 pd Osc-Main;
#N canvas 779 395 793 731 Osc-UpFM 0;
#X obj 248 165 t b b f f, f 37;
#X obj 248 236 -;
#X obj 453 236 +;
#X obj 474 569 r \$0-FMDepthVox;
#X obj 467 342 sel 0;
#X obj 494 363 t f f, f 20;
#X obj 494 446 pack f f f f f, f 28;
#X obj 611 384 *;
#X msg 494 466 \$1 \$2 \, \$3 \$4 \$5;
#X obj 502 384 r \$0-FMAttackVox;
#X obj 626 363 r \$0-FMSustainVox;
#X obj 617 406 r \$0-FMDecayVox;
#X obj 659 426 r \$0-FMAttackVox;
#X obj 247 544 *~, f 7;
#X obj 454 544 *~, f 7;
#X obj 90 255 r \$0-PulseWidthVox;
#X obj 306 255 r \$0-PulseWidthVox;
#X obj 511 255 r \$0-PulseWidthVox;
#X obj 248 144 r \$0-FMVox;
#X obj 119 274 r \$0-OscUpTypeVox;
#X obj 335 274 r \$0-OscFMTypeVox;
#X obj 540 274 r \$0-OscFMTypeVox;
#X obj 33 683 outlet~;
#X obj 197 137 pow, f 5;
#X obj 197 71 i;
#X msg 197 115 2;
#X obj 230 115 / 12;
#X obj 47 116 r \$0-UnisonVox;
#X obj 32 137 +;
#X obj 32 157 *, f 28;
#X obj 197 25 r \$0-OscUpTuneVox;
#X obj 197 48 clip 0 36;
#X obj 247 569 +~, f 35;
#X obj 246 601 *~, f 32;
#X obj 33 623 +~, f 36;
#X obj 474 590 t b f, f 6;
#X obj 197 93 t b f, f 6;
#X obj 507 611 / 4;
#X msg 474 611 1;
#X obj 474 632 -, f 6;
#X obj 33 653 *~, f 74;
#X obj 32 25 inlet Freq;
#X obj 61 236 r \$0-OscPhase;
#X obj 277 236 r \$0-OscPhase;
#X obj 482 236 r \$0-OscPhase;
#X obj 32 295 osc_sync_select;
#X obj 248 295 osc_sync_select;
#X obj 453 295 osc_sync_select;
#X obj 467 321 r \$0-NoteTrigger;
#X obj 494 486 hv.vline;
#X connect 0 0 1 0;
#X connect 0 1 2 0;
#X connect 0 2 1 1;
#X connect 0 3 2 1;
#X connect 1 0 46 0;
#X connect 2 0 47 0;
#X connect 3 0 33 1;
#X connect 3 0 35 0;
#X connect 4 1 5 0;
#X connect 5 0 6 0;
#X connect 5 1 7 0;
#X connect 6 0 8 0;
#X connect 7 0 6 2;
#X connect 8 0 49 0;
#X connect 9 0 6 1;
#X connect 10 0 7 1;
#X connect 11 0 6 3;
#X connect 12 0 6 4;
#X connect 13 0 32 0;
#X connect 14 0 32 1;
#X connect 15 0 45 2;
#X connect 16 0 46 2;
#X connect 17 0 47 2;
#X connect 18 0 0 0;
#X connect 19 0 45 3;
#X connect 20 0 46 3;
#X connect 21 0 47 3;
#X connect 23 0 29 1;
#X connect 24 0 36 0;
#X connect 25 0 23 0;
#X connect 26 0 23 1;
#X connect 27 0 28 1;
#X connect 28 0 29 0;
#X connect 29 0 2 0;
#X connect 29 0 1 0;
#X connect 29 0 45 0;
#X connect 30 0 31 0;
#X connect 31 0 24 0;
#X connect 32 0 33 0;
#X connect 33 0 34 1;
#X connect 34 0 40 0;
#X connect 35 0 38 0;
#X connect 35 1 37 0;
#X connect 36 0 25 0;
#X connect 36 1 26 0;
#X connect 37 0 39 1;
#X connect 38 0 39 0;
#X connect 39 0 40 1;
#X connect 40 0 22 0;
#X connect 41 0 28 0;
#X connect 42 0 45 1;
#X connect 43 0 46 1;
#X connect 44 0 47 1;
#X connect 45 0 34 0;
#X connect 46 0 13 0;
#X connect 47 0 14 0;
#X connect 48 0 4 0;
#X connect 49 0 14 1;
#X connect 49 0 13 1;
#X restore 24 887 pd Osc-UpFM;
#X obj 738 49 unpack f f f f f f f f f f f f f f f f f f f f f f f
f;
#X obj 1059 72 s \$0-UnisonVox;
#X obj 402 1154 rectify;
#X obj 652 746 -, f 23;
#X obj 402 1234 +~, f 25;
#X obj 402 1255 /~ 2;
#X obj 25 909 signal_mixer, f 34;
#X obj 121 955 signal_blender, f 35;
#X obj 355 1018 signal_blender, f 29;
#X obj 355 1040 *~, f 50;
#X obj 355 1062 *~, f 53;
#X obj 355 1083 *~ 0.5;
#X obj 402 1213 soft_knee;
#X obj 549 1187 soft_warp;
#X obj 402 1276 soft_cubic;
#X obj 357 1453 bitcrusher, f 12;
#X obj 356 1349 *~;
#X obj 357 1387 +~, f 8;
#X obj 402 1349 *~;
#X obj 402 1368 *~ 0.25;
#X obj 371 1330 cos;
#X obj 417 1330 sin;
#X obj 786 1341 pow, f 5;
#X obj 786 1303 t b f;
#X msg 786 1322 30;
#X obj 786 1360 - 1;
#X obj 786 1379 / 29;
#X obj 760 678 t b f;
#X obj 402 1111 soft_clip;
#X obj 357 1410 soft_clip;
#X obj 357 1495 soft_clip;
#X obj 24 832 t f f f f, f 70;
#X obj 78 767 loadbang;
#X obj 78 811 s \$0-OscPhase;
#X msg 78 790 0;
#X text 529 1458 Consider replacing with |vcf~|;
#X obj 652 1017 hv.vline;
#X obj 786 1222 hv.vline;
#X obj 686 830 r \$0-NoteTrigger;
#X obj 410 569 s \$0-NoteTrigger;
#X obj 759 1010 r \$0-NoteTrigger;
#X connect 0 0 142 0;
#X connect 1 0 2 0;
#X connect 2 0 3 0;
#X connect 2 0 8 0;
#X connect 2 0 150 0;
#X connect 3 1 4 0;
#X connect 4 0 5 0;
#X connect 4 1 6 0;
#X connect 5 0 7 0;
#X connect 6 0 5 2;
#X connect 7 0 147 0;
#X connect 8 0 9 0;
#X connect 9 0 10 0;
#X connect 9 1 10 1;
#X connect 10 0 138 0;
#X connect 11 0 12 0;
#X connect 12 0 114 0;
#X connect 13 0 14 0;
#X connect 13 1 18 0;
#X connect 14 0 15 0;
#X connect 15 0 16 0;
#X connect 15 1 20 0;
#X connect 16 0 17 0;
#X connect 17 0 147 0;
#X connect 18 0 19 0;
#X connect 19 0 22 1;
#X connect 20 0 22 0;
#X connect 21 0 20 1;
#X connect 22 0 23 0;
#X connect 23 0 147 0;
#X connect 25 0 26 0;
#X connect 25 1 26 1;
#X connect 26 0 0 0;
#X connect 27 0 75 0;
#X connect 35 0 25 0;
#X connect 36 0 6 1;
#X connect 37 0 5 1;
#X connect 38 0 5 3;
#X connect 39 0 5 4;
#X connect 40 0 11 1;
#X connect 41 0 12 1;
#X connect 42 0 18 1;
#X connect 43 0 19 1;
#X connect 44 0 22 2;
#X connect 45 0 16 1;
#X connect 46 0 21 1;
#X connect 48 0 119 2;
#X connect 50 0 111 0;
#X connect 59 0 118 2;
#X connect 60 0 117 1;
#X connect 62 1 68 0;
#X connect 63 0 64 0;
#X connect 63 1 65 0;
#X connect 64 0 66 0;
#X connect 65 0 64 2;
#X connect 66 0 148 0;
#X connect 67 0 63 0;
#X connect 68 0 67 0;
#X connect 69 0 141 0;
#X connect 70 0 71 0;
#X connect 71 0 69 1;
#X connect 72 0 134 0;
#X connect 73 0 72 0;
#X connect 74 0 73 0;
#X connect 75 0 26 0;
#X connect 75 1 1 0;
#X connect 75 2 33 0;
#X connect 75 3 32 0;
#X connect 75 4 31 0;
#X connect 75 5 30 0;
#X connect 75 6 51 0;
#X connect 75 7 52 0;
#X connect 75 8 53 0;
#X connect 75 9 85 0;
#X connect 75 10 84 0;
#X connect 75 11 83 0;
#X connect 75 12 82 0;
#X connect 76 0 70 0;
#X connect 77 0 65 1;
#X connect 78 0 64 1;
#X connect 79 0 64 3;
#X connect 80 0 64 4;
#X connect 81 0 70 1;
#X connect 93 0 126 1;
#X connect 96 0 121 1;
#X connect 97 0 113 1;
#X connect 98 0 131 0;
#X connect 98 0 132 0;
#X connect 99 0 123 1;
#X connect 103 0 124 1;
#X connect 104 0 125 1;
#X connect 105 0 126 0;
#X connect 106 0 123 0;
#X connect 107 0 119 1;
#X connect 108 0 118 1;
#X connect 109 0 117 2;
#X connect 110 0 117 0;
#X connect 111 0 34 0;
#X connect 111 1 49 0;
#X connect 111 2 57 0;
#X connect 111 3 58 0;
#X connect 111 4 56 0;
#X connect 111 5 61 0;
#X connect 111 6 55 0;
#X connect 111 7 47 0;
#X connect 111 8 54 0;
#X connect 111 9 102 0;
#X connect 111 10 29 0;
#X connect 111 11 28 0;
#X connect 111 12 86 0;
#X connect 111 13 87 0;
#X connect 111 14 88 0;
#X connect 111 15 89 0;
#X connect 111 16 90 0;
#X connect 111 17 92 0;
#X connect 111 18 91 0;
#X connect 111 19 94 0;
#X connect 111 20 95 0;
#X connect 111 21 101 0;
#X connect 111 22 100 0;
#X connect 111 23 112 0;
#X connect 113 0 106 0;
#X connect 113 0 124 0;
#X connect 114 0 13 0;
#X connect 115 0 116 0;
#X connect 116 0 125 0;
#X connect 117 0 118 0;
#X connect 118 0 119 0;
#X connect 119 0 120 0;
#X connect 120 0 121 0;
#X connect 121 0 122 0;
#X connect 122 0 127 0;
#X connect 122 0 139 0;
#X connect 123 0 115 0;
#X connect 124 0 115 1;
#X connect 125 0 129 0;
#X connect 126 0 69 0;
#X connect 127 0 128 0;
#X connect 128 0 140 0;
#X connect 129 0 130 0;
#X connect 130 0 128 1;
#X connect 131 0 127 1;
#X connect 132 0 129 1;
#X connect 133 0 136 0;
#X connect 134 0 135 0;
#X connect 134 1 133 1;
#X connect 135 0 133 0;
#X connect 136 0 137 0;
#X connect 137 0 76 0;
#X connect 138 0 11 0;
#X connect 138 1 114 1;
#X connect 139 0 113 0;
#X connect 140 0 105 0;
#X connect 141 0 24 0;
#X connect 142 0 110 0;
#X connect 142 1 109 0;
#X connect 142 2 108 0;
#X connect 142 3 107 0;
#X connect 143 0 145 0;
#X connect 145 0 144 0;
#X connect 147 0 120 1;
#X connect 148 0 72 0;
#X connect 149 0 21 0;
#X connect 151 0 62 0;
#X coords 0 0 1 1 85 60 0;
