#N canvas 1284 525 1153 647 10;
#X obj 9 544 mtof;
#X obj 638 1067 vline~;
#X obj 378 468 clip 0 127;
#X obj 378 498 / 127;
#X obj 378 649 sel 0;
#X obj 405 677 t f f;
#X obj 405 800 pack f f f f f;
#X obj 525 713 *;
#X msg 405 824 \$1 \$2 \, \$3 \$4 \$5;
#X obj 646 564 > 0;
#X obj 646 585 sel 1 0;
#X obj 624 620 t b b;
#X obj 638 658 timer;
#X obj 707 657 f;
#X obj 707 688 +;
#X obj 638 714 expr $f2-$f1;
#X obj 638 741 t f f;
#X obj 638 768 >= 0;
#X obj 638 795 sel 0 1;
#X obj 638 1002 f;
#X msg 638 1028 0 \$1;
#X obj 782 787 min;
#X obj 782 827 min;
#X obj 657 906 f;
#X obj 672 876 *;
#X obj 754 976 pack f f f;
#X msg 754 1000 \$1 \$2 \, 0 \$3 \$2;
#X obj 442 2166 outlet~;
#X obj 24 490 t b f;
#X obj 9 516 + 0;
#X obj 10 9 inlet PitchVelADSR;
#X obj 877 312 s \$0-RectifyVox;
#X obj 863 333 s \$0-BlendVox;
#X obj 449 371 s \$0-ReleaseVox;
#X obj 433 395 s \$0-SustainVox;
#X obj 413 419 s \$0-DecayVox;
#X obj 396 444 s \$0-AttackVox;
#X obj 723 553 s \$0-BendVox;
#X obj 24 467 r \$0-BendVox;
#X obj 540 687 r \$0-SustainVox;
#X obj 425 714 r \$0-AttackVox;
#X obj 526 745 r \$0-DecayVox;
#X obj 527 775 r \$0-AttackVox;
#X obj 722 625 r \$0-AttackVox;
#X obj 740 657 r \$0-DecayVox;
#X obj 797 758 r \$0-DecayVox;
#X obj 816 787 r \$0-ReleaseVox;
#X obj 811 953 r \$0-ReleaseVox;
#X obj 653 976 r \$0-ReleaseVox;
#X obj 687 853 r \$0-SustainVox;
#X obj 672 829 r \$0-VelocityVox;
#X obj 821 399 s \$0-FMDepthVox;
#X obj 513 1182 r \$0-SubLevelVox;
#X obj 737 531 s \$0-SubLevelVox;
#X obj 723 9 inlet Realtime;
#X obj 460 347 s \$0-FMAttackVox;
#X obj 473 323 s \$0-FMDecayVox;
#X obj 485 301 s \$0-FMSustainVox;
#X obj 392 559 s \$0-ADStrig;
#X obj 835 377 s \$0-PulseWidthVox;
#X obj 807 421 s \$0-FMVox;
#X obj 779 465 s \$0-OscUpMixVox;
#X obj 751 509 s \$0-OscDownMixVox;
#X obj 765 487 s \$0-OscDownTuneVox;
#X obj 9 564 t f f f f;
#X obj 301 1130 r \$0-OscDownMixVox;
#X obj 121 1036 r \$0-OscUpMixVox;
#X obj 793 443 s \$0-OscUpTuneVox;
#X obj 457 1661 sel 0;
#X obj 484 1720 t f f;
#X obj 484 1843 pack f f f f f;
#X obj 618 1757 *;
#X msg 484 1867 \$1 \$2 \, \$3 \$4 \$5;
#X obj 457 1640 r \$0-ADStrig;
#X obj 484 1891 vline~;
#X msg 484 1700 1;
#X obj 484 1680 bang;
#X obj 442 2118 lop~;
#X obj 483 2056 +;
#X obj 483 2081 clip 5 20000;
#X obj 483 1959 snapshot~;
#X obj 495 1935 metro 0.1;
#X obj 495 1914 loadbang;
#X obj 10 31 unpack f f f f f f f f f f f f f;
#X obj 483 2010 * 10000;
#X obj 633 1731 r \$0-LPSustainVox;
#X obj 504 1757 r \$0-LPAttackVox;
#X obj 612 1789 r \$0-LPDecayVox;
#X obj 613 1819 r \$0-LPAttackVox;
#X obj 498 2035 r \$0-LPCutoffVox;
#X obj 529 200 s \$0-LPSustainVox;
#X obj 514 225 s \$0-LPDecayVox;
#X obj 503 250 s \$0-LPAttackVox;
#X obj 490 274 s \$0-LPCutoffVox;
#X obj 891 290 s \$0-OscSineVox;
#X obj 905 268 s \$0-OscSawVox;
#X obj 919 246 s \$0-OscPulseVox;
#X obj 933 224 s \$0-OscSubTypeVox;
#X obj 947 202 s \$0-OscDownTypeVox;
#X obj 975 160 s \$0-OscFMTypeVox;
#X obj 961 181 s \$0-OscUpTypeVox;
#X obj 483 1984 expr (pow(30 \, $f1)-1)/29;
#X obj 442 1590 expr pow(0.5 \, $f1);
#X obj 442 1614 expr~ $v1*int($v2/$v1);
#X obj 442 1566 r \$0-BitDepth;
#X obj 989 139 s \$0-BitDepth;
#X obj 1003 118 s \$0-Gain;
#X obj 706 1227 r \$0-Gain;
#X obj 839 1314 r \$0-RectifyVox;
#X obj 796 1524 r \$0-BlendVox;
#X obj 690 1400 r \$0-skClipVox;
#N canvas 413 124 296 230 SoftKnee 0;
#X obj 18 12 inlet~;
#X obj 165 13 inlet;
#X obj 62 74 *~;
#X obj 46 43 abs~;
#X obj 62 97 +~ 1;
#X obj 18 131 /~;
#X obj 47 131 /~;
#X obj 18 188 outlet~;
#X obj 18 166 expr~ ($v1+($v2*(0.5*$v3)))*(1+(0.3*$v3));
#X connect 0 0 3 0;
#X connect 0 0 5 0;
#X connect 1 0 2 1;
#X connect 1 0 8 2;
#X connect 2 0 4 0;
#X connect 3 0 2 0;
#X connect 3 0 6 0;
#X connect 4 0 5 1;
#X connect 4 0 6 1;
#X connect 5 0 8 0;
#X connect 6 0 8 1;
#X connect 8 0 7 0;
#X restore 627 1423 pd SoftKnee;
#N canvas 615 448 230 232 Rectify 0;
#X obj 6 6 inlet~;
#X obj 91 123 abs~;
#X obj 38 89 -~;
#X obj 6 37 *~ 1.5;
#X obj 53 60 *~ 0.5;
#X obj 53 37 expr~ pow($v1 \, 3);
#X obj 177 6 inlet;
#X obj 6 167 outlet~;
#X obj 6 145 expr~ ((1-$v3)*$v1)+($v2*$v3);
#X connect 0 0 3 0;
#X connect 0 0 5 0;
#X connect 1 0 8 1;
#X connect 2 0 1 0;
#X connect 2 0 8 0;
#X connect 3 0 2 0;
#X connect 4 0 2 1;
#X connect 5 0 4 0;
#X connect 6 0 8 2;
#X connect 8 0 7 0;
#X restore 782 1336 pd Rectify;
#N canvas 751 122 278 288 SoftKneeWarp 0;
#X obj 59 81 -~;
#X obj 30 35 *~ 1.5;
#X obj 74 58 *~ 0.5;
#X obj 59 173 *~;
#X obj 100 174 *~;
#X obj 100 133 abs~;
#X obj 74 35 expr~ pow($v1 \, 3);
#X obj 59 224 /~;
#X obj 100 195 +~ 1;
#X obj 30 6 inlet~;
#X obj 216 6 inlet;
#X obj 74 133 + 1;
#X obj 59 248 outlet~;
#X connect 0 0 5 0;
#X connect 0 0 3 0;
#X connect 1 0 0 0;
#X connect 2 0 0 1;
#X connect 3 0 7 0;
#X connect 4 0 8 0;
#X connect 5 0 4 0;
#X connect 6 0 2 0;
#X connect 7 0 12 0;
#X connect 8 0 7 1;
#X connect 9 0 1 0;
#X connect 9 0 6 0;
#X connect 10 0 4 1;
#X connect 10 0 11 0;
#X connect 11 0 3 1;
#X restore 782 1374 pd SoftKneeWarp;
#N canvas 183 199 274 104 SoftLimiter 0;
#X obj 8 6 inlet~;
#X obj 8 52 outlet~;
#X obj 8 29 expr~ (1.5*$v1)-(pow($v1 \, 3)*0.5);
#X connect 0 0 2 0;
#X connect 2 0 1 0;
#X restore 571 1570 pd SoftLimiter;
#X obj 683 1456 expr~ ($v1+$v2)/2;
#X obj 1031 76 s \$0-skClipVox;
#X obj 1017 97 s \$0-scThreshVox;
#X obj 849 355 s \$0-KWarpVox;
#X obj 869 1351 r \$0-KWarpVox;
#X obj 794 1479 r \$0-scThreshVox;
#N canvas 1041 208 740 396 SoftCubicClip 0;
#X obj 8 77 abs~;
#X obj 8 100 expr~ 0.5*($v1-$v2);
#X obj 119 78 abs~;
#X obj 8 146 outlet~;
#X obj 8 8 inlet~;
#X obj 8 123 expr~ 1*((1*1.5*$v1)-(0.5*pow($v1 \, 3)*1));
#X obj 8 55 +~ 1;
#X obj 119 56 -~ 1;
#X connect 0 0 1 0;
#X connect 1 0 5 0;
#X connect 2 0 1 1;
#X connect 4 0 6 0;
#X connect 4 0 7 0;
#X connect 5 0 3 0;
#X connect 6 0 0 0;
#X connect 7 0 2 0;
#X restore 683 1479 pd SoftCubicClip;
#X obj 683 1501 expr~ $v1+($v2*$v1);
#N canvas 183 199 274 104 SoftLimiter 0;
#X obj 8 6 inlet~;
#X obj 8 52 outlet~;
#X obj 8 29 expr~ (1.5*$v1)-(pow($v1 \, 3)*0.5);
#X connect 0 0 2 0;
#X connect 2 0 1 0;
#X restore 782 1291 pd SoftLimiter;
#N canvas 183 199 274 104 SoftLimiter 0;
#X obj 8 6 inlet~;
#X obj 8 52 outlet~;
#X obj 8 29 expr~ (1.5*$v1)-(pow($v1 \, 3)*0.5);
#X connect 0 0 2 0;
#X connect 2 0 1 0;
#X restore 442 2142 pd SoftLimiter;
#X obj 571 1592 hip~ 22;
#X obj 627 1400 *~ 2;
#X obj 571 1547 expr~ $v1*cos($v3)+($v2*sin($v3)*0.25);
#N canvas 813 228 450 339 Osc-Sub 0;
#X obj 18 41 / 2;
#X obj 18 188 osc~;
#X obj 17 66 vline~;
#X obj 52 97 phasor~;
#X obj 52 188 expr~ $v1*2-1;
#X msg 222 188 0;
#X msg 191 188 1;
#X msg 283 188 0;
#X msg 252 188 1;
#X obj 344 136 loadbang;
#X obj 231 91 r \$0-PulseWidthVox;
#X obj 249 137 sel 0 1 2;
#X obj 18 247 expr~ $v1*$v4+$v2*$v5+$v3*$v6;
#X msg 313 188 1;
#X msg 344 188 0;
#X obj 249 114 r \$0-OscSubTypeVox;
#X obj 144 188 hip~ 5;
#X obj 18 17 inlet;
#X obj 18 270 outlet~;
#X obj 144 136 expr~ $v1 < $v2;
#X connect 0 0 2 0;
#X connect 1 0 12 0;
#X connect 2 0 1 0;
#X connect 2 0 3 0;
#X connect 3 0 4 0;
#X connect 3 0 19 0;
#X connect 4 0 12 1;
#X connect 5 0 12 3;
#X connect 6 0 12 3;
#X connect 7 0 12 4;
#X connect 8 0 12 4;
#X connect 9 0 6 0;
#X connect 9 0 7 0;
#X connect 9 0 14 0;
#X connect 10 0 19 1;
#X connect 11 0 6 0;
#X connect 11 0 7 0;
#X connect 11 0 14 0;
#X connect 11 1 5 0;
#X connect 11 1 8 0;
#X connect 11 1 14 0;
#X connect 11 2 5 0;
#X connect 11 2 7 0;
#X connect 11 2 13 0;
#X connect 12 0 18 0;
#X connect 13 0 12 5;
#X connect 14 0 12 5;
#X connect 15 0 11 0;
#X connect 16 0 12 2;
#X connect 17 0 0 0;
#X connect 19 0 16 0;
#X restore 427 971 pd Osc-Sub;
#N canvas 366 373 424 351 Osc-Down 0;
#X obj 27 216 osc~;
#X obj 28 87 vline~;
#X obj 63 118 phasor~;
#X obj 63 216 expr~ $v1*2-1;
#X msg 231 216 0;
#X msg 200 216 1;
#X msg 292 216 0;
#X msg 261 216 1;
#X obj 353 161 loadbang;
#X obj 240 110 r \$0-PulseWidthVox;
#X obj 262 158 sel 0 1 2;
#X obj 27 272 expr~ $v1*$v4+$v2*$v5+$v3*$v6;
#X msg 322 216 1;
#X msg 353 216 0;
#X obj 145 38 expr int($f1)/12;
#X obj 28 61 expr $f1*pow(2 \, $f2);
#X obj 145 16 r \$0-OscDownTuneVox;
#X obj 262 134 r \$0-OscDownTypeVox;
#X obj 153 216 hip~ 5;
#X obj 28 17 inlet;
#X obj 27 299 outlet~;
#X obj 153 156 expr~ $v1 < $v2;
#X connect 0 0 11 0;
#X connect 1 0 0 0;
#X connect 1 0 2 0;
#X connect 2 0 3 0;
#X connect 2 0 21 0;
#X connect 3 0 11 1;
#X connect 4 0 11 3;
#X connect 5 0 11 3;
#X connect 6 0 11 4;
#X connect 7 0 11 4;
#X connect 8 0 5 0;
#X connect 8 0 6 0;
#X connect 8 0 13 0;
#X connect 9 0 21 1;
#X connect 10 0 5 0;
#X connect 10 0 6 0;
#X connect 10 0 13 0;
#X connect 10 1 4 0;
#X connect 10 1 7 0;
#X connect 10 1 13 0;
#X connect 10 2 4 0;
#X connect 10 2 6 0;
#X connect 10 2 12 0;
#X connect 11 0 20 0;
#X connect 12 0 11 5;
#X connect 13 0 11 5;
#X connect 14 0 15 1;
#X connect 15 0 1 0;
#X connect 16 0 14 0;
#X connect 17 0 10 0;
#X connect 18 0 11 2;
#X connect 19 0 15 0;
#X connect 21 0 18 0;
#X restore 314 1015 pd Osc-Down;
#N canvas 491 143 339 273 Osc-Main 0;
#X obj 8 132 osc~;
#X obj 42 110 phasor~;
#X obj 42 132 expr~ $v1*2-1;
#X obj 221 84 r \$0-PulseWidthVox;
#X obj 8 201 expr~ $v1*$v4+$v2*$v5+$v3*$v6;
#X obj 184 132 r \$0-OscSineVox;
#X obj 190 155 r \$0-OscSawVox;
#X obj 199 178 r \$0-OscPulseVox;
#X obj 134 132 hip~ 5;
#X obj 8 7 inlet;
#X obj 8 227 outlet~;
#X obj 134 108 expr~ $v1 < $v2;
#X obj 42 88 vline~;
#X obj 134 64 vline~;
#X obj 134 86 phasor~;
#X obj 42 66 +;
#X obj 134 42 -;
#X obj 149 7 r \$0-UnisonVox;
#X connect 0 0 4 0;
#X connect 1 0 2 0;
#X connect 2 0 4 1;
#X connect 3 0 11 1;
#X connect 4 0 10 0;
#X connect 5 0 4 3;
#X connect 6 0 4 4;
#X connect 7 0 4 5;
#X connect 8 0 4 2;
#X connect 9 0 0 0;
#X connect 9 0 16 0;
#X connect 9 0 15 0;
#X connect 11 0 8 0;
#X connect 12 0 1 0;
#X connect 13 0 14 0;
#X connect 14 0 11 0;
#X connect 15 0 12 0;
#X connect 16 0 13 0;
#X connect 17 0 16 1;
#X connect 17 0 15 1;
#X restore 234 992 pd Osc-Main;
#N canvas 679 181 1169 792 Osc-UpFM 0;
#X obj 737 108 t b b f f;
#X obj 710 163 -;
#X obj 780 163 +;
#X obj 847 674 r \$0-FMDepthVox;
#X obj 640 697 expr~ ($v1+$v4*($v2+$v3))*(1-$v4/4);
#X obj 798 408 sel 0;
#X obj 825 436 t f f;
#X obj 825 559 pack f f f f f;
#X obj 952 472 *;
#X msg 825 583 \$1 \$2 \, \$3 \$4 \$5;
#X obj 825 607 vline~;
#X obj 845 472 r \$0-FMAttackVox;
#X obj 967 446 r \$0-FMSustainVox;
#X obj 947 504 r \$0-FMDecayVox;
#X obj 947 534 r \$0-FMAttackVox;
#X obj 798 386 r \$0-ADStrig;
#X obj 710 672 *~;
#X obj 779 672 *~;
#X obj 22 494 osc~;
#X obj 23 362 vline~;
#X obj 58 393 phasor~;
#X obj 58 494 expr~ $v1*2-1;
#X msg 226 494 0;
#X msg 195 494 1;
#X msg 287 494 0;
#X msg 256 494 1;
#X obj 344 445 loadbang;
#X obj 148 494 hip~ 5;
#X obj 235 395 r \$0-PulseWidthVox;
#X obj 253 442 sel 0 1 2;
#X obj 23 563 expr~ $v1*$v4+$v2*$v5+$v3*$v6;
#X msg 317 494 1;
#X msg 348 494 0;
#X obj 400 494 osc~;
#X obj 401 362 vline~;
#X obj 436 393 phasor~;
#X obj 436 494 expr~ $v1*2-1;
#X msg 604 494 0;
#X msg 573 494 1;
#X msg 665 494 0;
#X msg 634 494 1;
#X obj 722 445 loadbang;
#X obj 526 494 hip~ 5;
#X obj 613 395 r \$0-PulseWidthVox;
#X obj 631 442 sel 0 1 2;
#X obj 401 563 expr~ $v1*$v4+$v2*$v5+$v3*$v6;
#X msg 695 494 1;
#X msg 726 494 0;
#X obj 779 306 osc~;
#X obj 780 188 vline~;
#X obj 815 219 phasor~;
#X obj 815 306 expr~ $v1*2-1;
#X msg 983 306 0;
#X msg 952 306 1;
#X msg 1044 306 0;
#X msg 1013 306 1;
#X obj 1101 257 loadbang;
#X obj 905 306 hip~ 5;
#X obj 992 208 r \$0-PulseWidthVox;
#X obj 1010 254 sel 0 1 2;
#X obj 779 363 expr~ $v1*$v4+$v2*$v5+$v3*$v6;
#X msg 1074 306 1;
#X msg 1105 306 0;
#X obj 749 32 expr int($f1)/12;
#X obj 632 57 expr $f1*pow(2 \, $f2);
#X obj 737 86 r \$0-FMVox;
#X obj 749 10 r \$0-OscUpTuneVox;
#X obj 253 419 r \$0-OscUpTypeVox;
#X obj 631 419 r \$0-OscFMTypeVox;
#X obj 1010 231 r \$0-OscFMTypeVox;
#X obj 632 11 inlet;
#X obj 640 722 outlet~;
#X obj 148 442 expr~ $v1 < $v2;
#X obj 526 442 expr~ $v1 < $v2;
#X obj 905 254 expr~ $v1 < $v2;
#X connect 0 0 1 0;
#X connect 0 1 2 0;
#X connect 0 2 1 1;
#X connect 0 3 2 1;
#X connect 1 0 34 0;
#X connect 2 0 49 0;
#X connect 3 0 4 3;
#X connect 4 0 71 0;
#X connect 5 1 6 0;
#X connect 6 0 7 0;
#X connect 6 1 8 0;
#X connect 7 0 9 0;
#X connect 8 0 7 2;
#X connect 9 0 10 0;
#X connect 10 0 17 1;
#X connect 10 0 16 1;
#X connect 11 0 7 1;
#X connect 12 0 8 1;
#X connect 13 0 7 3;
#X connect 14 0 7 4;
#X connect 15 0 5 0;
#X connect 16 0 4 1;
#X connect 17 0 4 2;
#X connect 18 0 30 0;
#X connect 19 0 18 0;
#X connect 19 0 20 0;
#X connect 20 0 21 0;
#X connect 20 0 72 0;
#X connect 21 0 30 1;
#X connect 22 0 30 3;
#X connect 23 0 30 3;
#X connect 24 0 30 4;
#X connect 25 0 30 4;
#X connect 26 0 23 0;
#X connect 26 0 24 0;
#X connect 26 0 32 0;
#X connect 27 0 30 2;
#X connect 28 0 72 1;
#X connect 29 0 23 0;
#X connect 29 0 24 0;
#X connect 29 0 32 0;
#X connect 29 1 22 0;
#X connect 29 1 25 0;
#X connect 29 1 32 0;
#X connect 29 2 22 0;
#X connect 29 2 24 0;
#X connect 29 2 31 0;
#X connect 30 0 4 0;
#X connect 31 0 30 5;
#X connect 32 0 30 5;
#X connect 33 0 45 0;
#X connect 34 0 33 0;
#X connect 34 0 35 0;
#X connect 35 0 36 0;
#X connect 35 0 73 0;
#X connect 36 0 45 1;
#X connect 37 0 45 3;
#X connect 38 0 45 3;
#X connect 39 0 45 4;
#X connect 40 0 45 4;
#X connect 41 0 38 0;
#X connect 41 0 39 0;
#X connect 41 0 47 0;
#X connect 42 0 45 2;
#X connect 43 0 73 1;
#X connect 44 0 38 0;
#X connect 44 0 39 0;
#X connect 44 0 47 0;
#X connect 44 1 37 0;
#X connect 44 1 40 0;
#X connect 44 1 47 0;
#X connect 44 2 37 0;
#X connect 44 2 39 0;
#X connect 44 2 46 0;
#X connect 45 0 16 0;
#X connect 46 0 45 5;
#X connect 47 0 45 5;
#X connect 48 0 60 0;
#X connect 49 0 48 0;
#X connect 49 0 50 0;
#X connect 50 0 51 0;
#X connect 50 0 74 0;
#X connect 51 0 60 1;
#X connect 52 0 60 3;
#X connect 53 0 60 3;
#X connect 54 0 60 4;
#X connect 55 0 60 4;
#X connect 56 0 53 0;
#X connect 56 0 54 0;
#X connect 56 0 62 0;
#X connect 57 0 60 2;
#X connect 58 0 74 1;
#X connect 59 0 53 0;
#X connect 59 0 54 0;
#X connect 59 0 62 0;
#X connect 59 1 52 0;
#X connect 59 1 55 0;
#X connect 59 1 62 0;
#X connect 59 2 52 0;
#X connect 59 2 54 0;
#X connect 59 2 61 0;
#X connect 60 0 17 0;
#X connect 61 0 60 5;
#X connect 62 0 60 5;
#X connect 63 0 64 1;
#X connect 64 0 1 0;
#X connect 64 0 2 0;
#X connect 64 0 19 0;
#X connect 65 0 0 0;
#X connect 66 0 63 0;
#X connect 67 0 29 0;
#X connect 68 0 44 0;
#X connect 69 0 59 0;
#X connect 70 0 64 0;
#X connect 72 0 27 0;
#X connect 73 0 42 0;
#X connect 74 0 57 0;
#X restore 9 995 pd Osc-UpFM;
#X obj 723 32 unpack f f f f f f f f f f f f f f f f f f f f f f f
f;
#X obj 1045 55 s \$0-UnisonVox;
#X obj 326 924 -;
#X obj 341 901 r \$0-UnisonVox;
#X obj 329 971 r \$0-UnisonVox;
#X obj 314 993 +;
#X obj 24 950 r \$0-UnisonVox;
#X obj 9 972 +;
#X obj 9 1058 voice_osc_mix, f 38;
#X obj 130 1152 voice_osc_blend, f 29;
#X obj 342 1204 voice_osc_blend, f 29;
#X obj 571 1250 voice_envelope_gain, f 23;
#X connect 0 0 64 0;
#X connect 1 0 143 1;
#X connect 2 0 3 0;
#X connect 3 0 4 0;
#X connect 3 0 9 0;
#X connect 3 0 58 0;
#X connect 4 1 5 0;
#X connect 5 0 6 0;
#X connect 5 1 7 0;
#X connect 6 0 8 0;
#X connect 7 0 6 2;
#X connect 8 0 1 0;
#X connect 9 0 10 0;
#X connect 10 0 11 0;
#X connect 10 1 12 1;
#X connect 11 0 12 0;
#X connect 11 1 13 0;
#X connect 12 0 15 0;
#X connect 13 0 14 0;
#X connect 14 0 15 1;
#X connect 15 0 16 0;
#X connect 16 0 17 0;
#X connect 16 1 21 0;
#X connect 17 0 18 0;
#X connect 18 0 19 0;
#X connect 18 1 23 0;
#X connect 19 0 20 0;
#X connect 20 0 1 0;
#X connect 21 0 22 0;
#X connect 22 0 25 1;
#X connect 23 0 25 0;
#X connect 24 0 23 1;
#X connect 25 0 26 0;
#X connect 26 0 1 0;
#X connect 28 0 29 0;
#X connect 28 1 29 1;
#X connect 29 0 0 0;
#X connect 30 0 83 0;
#X connect 38 0 28 0;
#X connect 39 0 7 1;
#X connect 40 0 6 1;
#X connect 41 0 6 3;
#X connect 42 0 6 4;
#X connect 43 0 13 1;
#X connect 44 0 14 1;
#X connect 45 0 21 1;
#X connect 46 0 22 1;
#X connect 47 0 25 2;
#X connect 48 0 19 1;
#X connect 49 0 24 1;
#X connect 50 0 24 0;
#X connect 52 0 142 2;
#X connect 54 0 132 0;
#X connect 64 0 139 0;
#X connect 64 1 130 0;
#X connect 64 2 137 0;
#X connect 64 3 134 0;
#X connect 65 0 141 2;
#X connect 66 0 140 1;
#X connect 68 1 76 0;
#X connect 69 0 70 0;
#X connect 69 1 71 0;
#X connect 70 0 72 0;
#X connect 71 0 70 2;
#X connect 72 0 74 0;
#X connect 73 0 68 0;
#X connect 74 0 80 0;
#X connect 75 0 69 0;
#X connect 76 0 75 0;
#X connect 77 0 124 0;
#X connect 78 0 79 0;
#X connect 79 0 77 1;
#X connect 80 0 101 0;
#X connect 81 0 80 0;
#X connect 82 0 81 0;
#X connect 83 0 29 0;
#X connect 83 1 2 0;
#X connect 83 2 36 0;
#X connect 83 3 35 0;
#X connect 83 4 34 0;
#X connect 83 5 33 0;
#X connect 83 6 55 0;
#X connect 83 7 56 0;
#X connect 83 8 57 0;
#X connect 83 9 93 0;
#X connect 83 10 92 0;
#X connect 83 11 91 0;
#X connect 83 12 90 0;
#X connect 84 0 78 0;
#X connect 85 0 71 1;
#X connect 86 0 70 1;
#X connect 87 0 70 3;
#X connect 88 0 70 4;
#X connect 89 0 78 1;
#X connect 101 0 84 0;
#X connect 102 0 103 0;
#X connect 103 0 77 0;
#X connect 104 0 102 0;
#X connect 107 0 143 2;
#X connect 108 0 112 1;
#X connect 109 0 127 2;
#X connect 110 0 111 1;
#X connect 111 0 115 0;
#X connect 112 0 113 0;
#X connect 112 0 126 0;
#X connect 113 0 115 1;
#X connect 114 0 125 0;
#X connect 115 0 121 0;
#X connect 119 0 113 1;
#X connect 120 0 122 1;
#X connect 121 0 122 0;
#X connect 122 0 127 1;
#X connect 123 0 112 0;
#X connect 124 0 27 0;
#X connect 125 0 103 1;
#X connect 126 0 111 0;
#X connect 127 0 114 0;
#X connect 128 0 142 1;
#X connect 129 0 141 1;
#X connect 130 0 140 2;
#X connect 131 0 140 0;
#X connect 132 0 37 0;
#X connect 132 1 53 0;
#X connect 132 2 62 0;
#X connect 132 3 63 0;
#X connect 132 4 61 0;
#X connect 132 5 67 0;
#X connect 132 6 60 0;
#X connect 132 7 51 0;
#X connect 132 8 59 0;
#X connect 132 9 118 0;
#X connect 132 10 32 0;
#X connect 132 11 31 0;
#X connect 132 12 94 0;
#X connect 132 13 95 0;
#X connect 132 14 96 0;
#X connect 132 15 97 0;
#X connect 132 16 98 0;
#X connect 132 17 100 0;
#X connect 132 18 99 0;
#X connect 132 19 105 0;
#X connect 132 20 106 0;
#X connect 132 21 117 0;
#X connect 132 22 116 0;
#X connect 132 23 133 0;
#X connect 134 0 128 0;
#X connect 135 0 134 1;
#X connect 136 0 137 1;
#X connect 137 0 129 0;
#X connect 138 0 139 1;
#X connect 139 0 131 0;
#X connect 140 0 141 0;
#X connect 141 0 142 0;
#X connect 142 0 143 0;
#X connect 143 0 123 0;
#X connect 143 0 127 0;
#X coords 0 0 1 1 85 60 0;
