#N canvas 255 83 1190 1107 10;
#X obj 24 811 mtof;
#X obj 393 485 clip 0 127;
#X obj 393 515 / 127;
#X obj 393 633 sel 0;
#X obj 420 658 t f f, f 20;
#X obj 420 751 pack f f f f f;
#X obj 537 679 *;
#X msg 420 772 \$1 \$2 \, \$3 \$4 \$5;
#X obj 789 612 > 0;
#X obj 789 633 sel 1 0;
#X obj 769 658 t b b;
#X obj 769 704 timer, f 7;
#X obj 652 704 f;
#X obj 652 725 +, f 5;
#X obj 652 767 t f f, f 25;
#X obj 652 788 >= 0;
#X obj 652 809 sel 0 1;
#X obj 652 964 f;
#X msg 652 986 0 \$1;
#X obj 799 830 min;
#X obj 799 851 min, f 6;
#X obj 671 896 f;
#X obj 686 874 *;
#X obj 771 943 pack f f f;
#X msg 771 964 \$1 \$2 \, 0 \$3 \$2;
#X obj 357 1516 outlet~;
#X obj 36 767 t b f;
#X obj 24 790 + 0, f 7;
#X obj 24 26 inlet PitchVelADSR;
#X obj 891 329 s \$0-RectifyVox;
#X obj 877 350 s \$0-BlendVox;
#X obj 464 388 s \$0-ReleaseVox;
#X obj 448 412 s \$0-SustainVox;
#X obj 428 436 s \$0-DecayVox;
#X obj 411 461 s \$0-AttackVox;
#X obj 738 570 s \$0-BendVox;
#X obj 36 746 r \$0-BendVox;
#X obj 552 658 r \$0-SustainVox;
#X obj 440 679 r \$0-AttackVox;
#X obj 537 704 r \$0-DecayVox;
#X obj 545 725 r \$0-AttackVox;
#X obj 667 658 r \$0-AttackVox;
#X obj 679 704 r \$0-DecayVox;
#X obj 814 809 r \$0-DecayVox;
#X obj 832 830 r \$0-ReleaseVox;
#X obj 828 920 r \$0-ReleaseVox;
#X obj 667 943 r \$0-ReleaseVox;
#X obj 701 851 r \$0-SustainVox;
#X obj 686 830 r \$0-VelocityVox;
#X obj 835 416 s \$0-FMDepthVox;
#X obj 526 996 r \$0-SubLevelVox;
#X obj 751 548 s \$0-SubLevelVox;
#X obj 738 26 inlet Realtime;
#X obj 475 364 s \$0-FMAttackVox;
#X obj 488 340 s \$0-FMDecayVox;
#X obj 500 318 s \$0-FMSustainVox;
#X obj 407 562 s \$0-ADStrig;
#X obj 849 394 s \$0-PulseWidthVox;
#X obj 821 438 s \$0-FMVox;
#X obj 793 482 s \$0-OscUpMixVox;
#X obj 765 526 s \$0-OscDownMixVox;
#X obj 779 504 s \$0-OscDownTuneVox;
#X obj 24 832 t f f f f, f 70;
#X obj 328 937 r \$0-OscDownMixVox;
#X obj 127 886 r \$0-OscUpMixVox;
#X obj 807 460 s \$0-OscUpTuneVox;
#X obj 759 1030 sel 0;
#X obj 786 1090 t f f, f 23;
#X obj 786 1182 pack f f f f f;
#X obj 921 1111 *;
#X msg 786 1202 \$1 \$2 \, \$3 \$4 \$5;
#X obj 759 1010 r \$0-ADStrig;
#X msg 786 1070 1;
#X obj 786 1050 bang;
#X obj 357 1474 lop~, f 72;
#X obj 786 1436 +;
#X obj 786 1455 clip 5 20000;
#X obj 786 1284 snapshot~;
#X obj 794 1263 metro 0.1;
#X obj 794 1242 loadbang;
#X obj 24 48 unpack f f f f f f f f f f f f f;
#X obj 786 1398 * 10000;
#X obj 936 1090 r \$0-LPSustainVox;
#X obj 806 1114 r \$0-LPAttackVox;
#X obj 914 1137 r \$0-LPDecayVox;
#X obj 915 1158 r \$0-LPAttackVox;
#X obj 801 1417 r \$0-LPCutoffVox;
#X obj 544 217 s \$0-LPSustainVox;
#X obj 529 242 s \$0-LPDecayVox;
#X obj 518 267 s \$0-LPAttackVox;
#X obj 505 291 s \$0-LPCutoffVox;
#X obj 905 307 s \$0-OscSineVox;
#X obj 919 285 s \$0-OscSawVox;
#X obj 933 263 s \$0-OscPulseVox;
#X obj 947 241 s \$0-OscSubTypeVox;
#X obj 961 219 s \$0-OscDownTypeVox;
#X obj 989 177 s \$0-OscFMTypeVox;
#X obj 975 198 s \$0-OscUpTypeVox;
#X obj 426 1432 r \$0-BitDepth;
#X obj 1003 156 s \$0-BitDepth;
#X obj 1017 135 s \$0-Gain;
#X obj 670 1040 r \$0-Gain;
#X obj 441 1133 r \$0-RectifyVox;
#X obj 417 1305 r \$0-BlendVox;
#X obj 453 1192 r \$0-skClipVox;
#X obj 1045 93 s \$0-skClipVox;
#X obj 1031 114 s \$0-scThreshVox;
#X obj 863 372 s \$0-KWarpVox;
#X obj 600 1167 r \$0-KWarpVox;
#X obj 459 1255 r \$0-scThreshVox;
#X obj 357 1432 hip~ 22;
#X obj 402 1192 *~ 2;
#N canvas 779 396 343 325 Osc-Sub 0;
#X obj 37 97 / 2;
#X obj 38 191 osc~;
#X obj 87 154 phasor~;
#X obj 172 170 r \$0-PulseWidthVox;
#X obj 191 231 r \$0-OscSubTypeVox;
#X obj 37 33 inlet;
#X obj 38 274 outlet~;
#X obj 37 117 hv.vline;
#X obj 38 252 signal_select_3, f 26;
#X obj 88 191 *~ 2;
#X obj 88 210 -~ 1;
#X obj 37 76 -;
#X obj 52 55 r \$0-UnisonVox;
#X obj 139 191 hv.lte;
#X obj 139 211 -~ 0.5;
#X obj 139 231 hip~ 10;
#X connect 0 0 7 0;
#X connect 1 0 8 0;
#X connect 2 0 9 0;
#X connect 2 0 13 0;
#X connect 3 0 13 1;
#X connect 4 0 8 3;
#X connect 5 0 11 0;
#X connect 7 0 1 0;
#X connect 7 0 2 0;
#X connect 8 0 6 0;
#X connect 9 0 10 0;
#X connect 10 0 8 1;
#X connect 11 0 0 0;
#X connect 12 0 11 1;
#X connect 13 0 14 0;
#X connect 14 0 15 0;
#X connect 15 0 8 2;
#X restore 441 996 pd Osc-Sub;
#N canvas 780 396 370 416 Osc-Down 0;
#X obj 205 31 r \$0-OscDownTuneVox;
#X obj 40 31 inlet;
#X obj 41 361 outlet~;
#X obj 41 280 osc~;
#X obj 91 243 phasor~;
#X obj 40 207 hv.vline;
#X obj 41 341 signal_select_3, f 26;
#X obj 92 280 *~ 2;
#X obj 92 299 -~ 1;
#X obj 194 320 r \$0-OscDownTypeVox;
#X obj 175 259 r \$0-PulseWidthVox;
#X obj 205 164 pow, f 5;
#X obj 205 98 i;
#X obj 205 76 + 0.5;
#X msg 205 142 2;
#X obj 238 142 / 12;
#X obj 40 185 *, f 28;
#X obj 55 143 r \$0-UnisonVox;
#X obj 40 164 +;
#X obj 142 280 hv.lte;
#X obj 142 300 -~ 0.5;
#X obj 142 320 hip~ 10;
#X obj 205 54 clip -36 0;
#X obj 205 120 t b f, f 6;
#X connect 0 0 22 0;
#X connect 1 0 18 0;
#X connect 3 0 6 0;
#X connect 4 0 7 0;
#X connect 4 0 19 0;
#X connect 5 0 3 0;
#X connect 5 0 4 0;
#X connect 6 0 2 0;
#X connect 7 0 8 0;
#X connect 8 0 6 1;
#X connect 9 0 6 3;
#X connect 10 0 19 1;
#X connect 11 0 16 1;
#X connect 12 0 23 0;
#X connect 13 0 12 0;
#X connect 14 0 11 0;
#X connect 15 0 11 1;
#X connect 16 0 5 0;
#X connect 17 0 18 1;
#X connect 18 0 16 0;
#X connect 19 0 20 0;
#X connect 20 0 21 0;
#X connect 21 0 6 2;
#X connect 22 0 13 0;
#X connect 23 0 14 0;
#X connect 23 1 15 0;
#X restore 302 916 pd Osc-Down;
#N canvas 781 397 474 375 Osc-Main 0;
#X obj 31 189 osc~;
#X obj 156 168 phasor~;
#X obj 328 144 r \$0-PulseWidthVox;
#X obj 47 239 r \$0-OscSineVox;
#X obj 171 239 r \$0-OscSawVox;
#X obj 287 239 r \$0-OscPulseVox;
#X obj 31 31 inlet;
#X obj 32 323 outlet~;
#X obj 271 144 phasor~;
#X obj 156 126 +;
#X obj 271 102 -;
#X obj 286 64 r \$0-UnisonVox;
#X obj 156 147 hv.vline;
#X obj 271 123 hv.vline;
#X obj 271 165 hv.lte, f 10;
#X obj 32 259 *~;
#X obj 156 259 *~;
#X obj 272 259 *~;
#X obj 155 279 +~, f 20;
#X obj 32 301 +~, f 21;
#X obj 156 189 *~ 2;
#X obj 156 210 -~ 1;
#X obj 271 185 -~ 0.5;
#X obj 271 205 hip~ 10;
#X connect 0 0 15 0;
#X connect 1 0 20 0;
#X connect 2 0 14 1;
#X connect 3 0 15 1;
#X connect 4 0 16 1;
#X connect 5 0 17 1;
#X connect 6 0 0 0;
#X connect 6 0 10 0;
#X connect 6 0 9 0;
#X connect 8 0 14 0;
#X connect 9 0 12 0;
#X connect 10 0 13 0;
#X connect 11 0 10 1;
#X connect 11 0 9 1;
#X connect 12 0 1 0;
#X connect 13 0 8 0;
#X connect 14 0 22 0;
#X connect 15 0 19 0;
#X connect 16 0 18 0;
#X connect 17 0 18 1;
#X connect 18 0 19 1;
#X connect 19 0 7 0;
#X connect 20 0 21 0;
#X connect 21 0 16 0;
#X connect 22 0 23 0;
#X connect 23 0 17 0;
#X restore 230 886 pd Osc-Main;
#N canvas 779 395 961 882 Osc-UpFM 0;
#X obj 330 200 t b b f f, f 49;
#X obj 330 261 -;
#X obj 606 266 +;
#X obj 662 704 r \$0-FMDepthVox;
#X obj 617 464 sel 0;
#X obj 644 485 t f f, f 20;
#X obj 644 568 pack f f f f f, f 28;
#X obj 761 506 *;
#X msg 644 588 \$1 \$2 \, \$3 \$4 \$5;
#X obj 652 506 r \$0-FMAttackVox;
#X obj 776 485 r \$0-FMSustainVox;
#X obj 767 528 r \$0-FMDecayVox;
#X obj 809 548 r \$0-FMAttackVox;
#X obj 617 443 r \$0-ADStrig;
#X obj 326 683 *~, f 7;
#X obj 604 683 *~, f 7;
#X obj 51 331 osc~;
#X obj 106 293 phasor~;
#X obj 192 310 r \$0-PulseWidthVox;
#X obj 330 346 osc~;
#X obj 384 318 phasor~;
#X obj 467 334 r \$0-PulseWidthVox;
#X obj 605 356 osc~;
#X obj 659 323 phasor~;
#X obj 743 336 r \$0-PulseWidthVox;
#X obj 330 179 r \$0-FMVox;
#X obj 211 370 r \$0-OscUpTypeVox;
#X obj 488 396 r \$0-OscFMTypeVox;
#X obj 764 397 r \$0-OscFMTypeVox;
#X obj 52 39 inlet;
#X obj 53 818 outlet~;
#X obj 52 261 hv.vline;
#X obj 330 283 hv.vline;
#X obj 606 288 hv.vline;
#X obj 217 172 pow, f 5;
#X obj 217 106 i;
#X obj 217 84 + 0.5;
#X msg 217 150 2;
#X obj 250 150 / 12;
#X obj 67 151 r \$0-UnisonVox;
#X obj 52 172 +;
#X obj 52 192 *, f 28;
#X obj 217 39 r \$0-OscUpTuneVox;
#X obj 217 62 clip 0 36;
#X obj 710 356 hv.lte;
#X obj 605 417 signal_select_3, f 27;
#X obj 659 356 *~ 2;
#X obj 659 375 -~ 1;
#X obj 710 376 -~ 0.5;
#X obj 710 396 hip~ 10;
#X obj 644 608 hv.vline;
#X obj 329 417 signal_select_3, f 27;
#X obj 434 355 hv.lte;
#X obj 383 355 *~ 2;
#X obj 383 374 -~ 1;
#X obj 434 375 -~ 0.5;
#X obj 434 395 hip~ 10;
#X obj 52 392 signal_select_3, f 27;
#X obj 159 330 hv.lte;
#X obj 105 331 *~ 2;
#X obj 105 351 -~ 1;
#X obj 159 350 -~ 0.5;
#X obj 159 370 hip~ 10;
#X obj 326 704 +~, f 47;
#X obj 325 740 *~, f 54;
#X obj 53 762 +~, f 46;
#X obj 662 726 t b f, f 6;
#X obj 217 128 t b f, f 6;
#X obj 695 748 / 4;
#X msg 662 748 1;
#X obj 662 770 -, f 6;
#X obj 53 792 *~, f 102;
#X connect 0 0 1 0;
#X connect 0 1 2 0;
#X connect 0 2 1 1;
#X connect 0 3 2 1;
#X connect 1 0 32 0;
#X connect 2 0 33 0;
#X connect 3 0 64 1;
#X connect 3 0 66 0;
#X connect 4 1 5 0;
#X connect 5 0 6 0;
#X connect 5 1 7 0;
#X connect 6 0 8 0;
#X connect 7 0 6 2;
#X connect 8 0 50 0;
#X connect 9 0 6 1;
#X connect 10 0 7 1;
#X connect 11 0 6 3;
#X connect 12 0 6 4;
#X connect 13 0 4 0;
#X connect 14 0 63 0;
#X connect 15 0 63 1;
#X connect 16 0 57 0;
#X connect 17 0 59 0;
#X connect 17 0 58 0;
#X connect 18 0 58 1;
#X connect 19 0 51 0;
#X connect 20 0 53 0;
#X connect 20 0 52 0;
#X connect 21 0 52 1;
#X connect 22 0 45 0;
#X connect 23 0 44 0;
#X connect 23 0 46 0;
#X connect 24 0 44 1;
#X connect 25 0 0 0;
#X connect 26 0 57 3;
#X connect 27 0 51 3;
#X connect 28 0 45 3;
#X connect 29 0 40 0;
#X connect 31 0 16 0;
#X connect 31 0 17 0;
#X connect 32 0 19 0;
#X connect 32 0 20 0;
#X connect 33 0 22 0;
#X connect 33 0 23 0;
#X connect 34 0 41 1;
#X connect 35 0 67 0;
#X connect 36 0 35 0;
#X connect 37 0 34 0;
#X connect 38 0 34 1;
#X connect 39 0 40 1;
#X connect 40 0 41 0;
#X connect 41 0 31 0;
#X connect 41 0 2 0;
#X connect 41 0 1 0;
#X connect 42 0 43 0;
#X connect 43 0 36 0;
#X connect 44 0 48 0;
#X connect 45 0 15 0;
#X connect 46 0 47 0;
#X connect 47 0 45 1;
#X connect 48 0 49 0;
#X connect 49 0 45 2;
#X connect 50 0 15 1;
#X connect 50 0 14 1;
#X connect 51 0 14 0;
#X connect 52 0 55 0;
#X connect 53 0 54 0;
#X connect 54 0 51 1;
#X connect 55 0 56 0;
#X connect 56 0 51 2;
#X connect 57 0 65 0;
#X connect 58 0 61 0;
#X connect 59 0 60 0;
#X connect 60 0 57 1;
#X connect 61 0 62 0;
#X connect 62 0 57 2;
#X connect 63 0 64 0;
#X connect 64 0 65 1;
#X connect 65 0 71 0;
#X connect 66 0 69 0;
#X connect 66 1 68 0;
#X connect 67 0 37 0;
#X connect 67 1 38 0;
#X connect 68 0 70 1;
#X connect 69 0 70 0;
#X connect 70 0 71 1;
#X connect 71 0 30 0;
#X restore 24 885 pd Osc-UpFM;
#X obj 738 49 unpack f f f f f f f f f f f f f f f f f f f f f f f
f;
#X obj 1059 72 s \$0-UnisonVox;
#X obj 402 1154 rectify;
#X obj 652 746 -, f 20;
#X obj 652 1017 hv.vline;
#X obj 786 1222 hv.vline;
#X obj 402 1234 +~, f 25;
#X obj 402 1255 /~ 2;
#X obj 24 908 signal_mixer, f 35;
#X obj 157 959 signal_blender, f 29;
#X obj 355 1018 signal_blender, f 29;
#X obj 355 1040 *~, f 50;
#X obj 355 1062 *~, f 53;
#X obj 355 1083 *~ 0.5;
#X obj 402 1213 soft_knee;
#X obj 402 1111 soft_limit;
#X obj 549 1187 soft_warp;
#X obj 357 1410 soft_limit;
#X obj 402 1276 soft_cubic;
#X obj 357 1495 soft_limit;
#X obj 357 1453 bitcrusher, f 12;
#X obj 356 1349 *~;
#X obj 357 1387 +~, f 8;
#X obj 402 1349 *~;
#X obj 402 1368 *~ 0.25;
#X obj 371 1330 cos;
#X obj 417 1330 sin;
#X obj 786 1341 pow, f 5;
#X obj 786 1303 t b f;
#X msg 786 1322 30;
#X obj 786 1360 - 1;
#X obj 786 1379 / 29;
#X connect 0 0 62 0;
#X connect 1 0 2 0;
#X connect 2 0 3 0;
#X connect 2 0 8 0;
#X connect 2 0 56 0;
#X connect 3 1 4 0;
#X connect 4 0 5 0;
#X connect 4 1 6 0;
#X connect 5 0 7 0;
#X connect 6 0 5 2;
#X connect 7 0 120 0;
#X connect 8 0 9 0;
#X connect 9 0 10 0;
#X connect 9 1 11 1;
#X connect 10 0 11 0;
#X connect 10 1 12 0;
#X connect 11 0 119 1;
#X connect 12 0 13 0;
#X connect 13 0 119 0;
#X connect 14 0 15 0;
#X connect 14 1 19 0;
#X connect 15 0 16 0;
#X connect 16 0 17 0;
#X connect 16 1 21 0;
#X connect 17 0 18 0;
#X connect 18 0 120 0;
#X connect 19 0 20 0;
#X connect 20 0 23 1;
#X connect 21 0 23 0;
#X connect 22 0 21 1;
#X connect 23 0 24 0;
#X connect 24 0 120 0;
#X connect 26 0 27 0;
#X connect 26 1 27 1;
#X connect 27 0 0 0;
#X connect 28 0 80 0;
#X connect 36 0 26 0;
#X connect 37 0 6 1;
#X connect 38 0 5 1;
#X connect 39 0 5 3;
#X connect 40 0 5 4;
#X connect 41 0 12 1;
#X connect 42 0 13 1;
#X connect 43 0 19 1;
#X connect 44 0 20 1;
#X connect 45 0 23 2;
#X connect 46 0 17 1;
#X connect 47 0 22 1;
#X connect 48 0 22 0;
#X connect 50 0 126 2;
#X connect 52 0 116 0;
#X connect 62 0 115 0;
#X connect 62 1 114 0;
#X connect 62 2 113 0;
#X connect 62 3 112 0;
#X connect 63 0 125 2;
#X connect 64 0 124 1;
#X connect 66 1 73 0;
#X connect 67 0 68 0;
#X connect 67 1 69 0;
#X connect 68 0 70 0;
#X connect 69 0 68 2;
#X connect 70 0 121 0;
#X connect 71 0 66 0;
#X connect 72 0 67 0;
#X connect 73 0 72 0;
#X connect 74 0 135 0;
#X connect 75 0 76 0;
#X connect 76 0 74 1;
#X connect 77 0 144 0;
#X connect 78 0 77 0;
#X connect 79 0 78 0;
#X connect 80 0 27 0;
#X connect 80 1 1 0;
#X connect 80 2 34 0;
#X connect 80 3 33 0;
#X connect 80 4 32 0;
#X connect 80 5 31 0;
#X connect 80 6 53 0;
#X connect 80 7 54 0;
#X connect 80 8 55 0;
#X connect 80 9 90 0;
#X connect 80 10 89 0;
#X connect 80 11 88 0;
#X connect 80 12 87 0;
#X connect 81 0 75 0;
#X connect 82 0 69 1;
#X connect 83 0 68 1;
#X connect 84 0 68 3;
#X connect 85 0 68 4;
#X connect 86 0 75 1;
#X connect 98 0 136 1;
#X connect 101 0 128 1;
#X connect 102 0 118 1;
#X connect 103 0 141 0;
#X connect 103 0 142 0;
#X connect 104 0 130 1;
#X connect 108 0 132 1;
#X connect 109 0 134 1;
#X connect 110 0 136 0;
#X connect 111 0 130 0;
#X connect 112 0 126 1;
#X connect 113 0 125 1;
#X connect 114 0 124 2;
#X connect 115 0 124 0;
#X connect 116 0 35 0;
#X connect 116 1 51 0;
#X connect 116 2 60 0;
#X connect 116 3 61 0;
#X connect 116 4 59 0;
#X connect 116 5 65 0;
#X connect 116 6 58 0;
#X connect 116 7 49 0;
#X connect 116 8 57 0;
#X connect 116 9 107 0;
#X connect 116 10 30 0;
#X connect 116 11 29 0;
#X connect 116 12 91 0;
#X connect 116 13 92 0;
#X connect 116 14 93 0;
#X connect 116 15 94 0;
#X connect 116 16 95 0;
#X connect 116 17 97 0;
#X connect 116 18 96 0;
#X connect 116 19 99 0;
#X connect 116 20 100 0;
#X connect 116 21 106 0;
#X connect 116 22 105 0;
#X connect 116 23 117 0;
#X connect 118 0 111 0;
#X connect 118 0 132 0;
#X connect 119 0 14 0;
#X connect 120 0 127 1;
#X connect 121 0 77 0;
#X connect 122 0 123 0;
#X connect 123 0 134 0;
#X connect 124 0 125 0;
#X connect 125 0 126 0;
#X connect 126 0 127 0;
#X connect 127 0 128 0;
#X connect 128 0 129 0;
#X connect 129 0 131 0;
#X connect 129 0 137 0;
#X connect 130 0 122 0;
#X connect 131 0 118 0;
#X connect 132 0 122 1;
#X connect 133 0 110 0;
#X connect 134 0 139 0;
#X connect 135 0 25 0;
#X connect 136 0 74 0;
#X connect 137 0 138 0;
#X connect 138 0 133 0;
#X connect 139 0 140 0;
#X connect 140 0 138 1;
#X connect 141 0 137 1;
#X connect 142 0 139 1;
#X connect 143 0 146 0;
#X connect 144 0 145 0;
#X connect 144 1 143 1;
#X connect 145 0 143 0;
#X connect 146 0 147 0;
#X connect 147 0 81 0;
#X coords 0 0 1 1 85 60 0;
