#N canvas 779 396 304 237 12;
#X obj 68 108 line~;
#X obj 68 84 pack f 10;
#X obj 43 132 *~, f 4;
#X obj 43 156 *~, f 15;
#X obj 145 84 > 0.001;
#X obj 43 180 outlet~;
#X obj 43 29 inlet~ Audio;
#X obj 145 57 clip 0 1;
#X obj 145 29 inlet Gain;
#X connect 0 0 2 1;
#X connect 1 0 0 0;
#X connect 2 0 3 0;
#X connect 3 0 5 0;
#X connect 4 0 3 1;
#X connect 6 0 2 0;
#X connect 7 0 4 0;
#X connect 7 0 1 0;
#X connect 8 0 7 0;
