#N canvas 780 398 382 378 12;
#X obj 46 315 outlet~;
#X obj 46 35 inlet~ Audio;
#X obj 46 174 hard_clip;
#X obj 229 35 inlet Threshold;
#X obj 229 181 /, f 5;
#X obj 229 135 t b f;
#X msg 229 158 1;
#X obj 120 199 * 1.5;
#X obj 46 242 *~, f 11;
#X obj 46 265 *~, f 13;
#X obj 46 290 -~, f 20;
#X obj 183 244 pow_3;
#X obj 229 244 * 0.5;
#X obj 183 267 *~, f 7;
#X obj 229 107 clip 0 1;
#X msg 238 83 1;
#X obj 238 60 loadbang;
#X connect 1 0 2 0;
#X connect 2 0 8 0;
#X connect 2 0 11 0;
#X connect 3 0 14 0;
#X connect 4 0 9 1;
#X connect 4 0 12 0;
#X connect 5 0 6 0;
#X connect 5 1 4 1;
#X connect 6 0 4 0;
#X connect 7 0 8 1;
#X connect 8 0 9 0;
#X connect 9 0 10 0;
#X connect 10 0 0 0;
#X connect 11 0 13 0;
#X connect 12 0 13 1;
#X connect 13 0 10 1;
#X connect 14 0 5 0;
#X connect 14 0 7 0;
#X connect 14 0 2 1;
#X connect 15 0 14 0;
#X connect 16 0 15 0;
