#N canvas 780 397 332 359 12;
#X obj 47 297 outlet~;
#X obj 46 34 inlet~ Audio;
#X obj 171 34 inlet Threshold;
#X obj 171 110 clip 1 16;
#X msg 182 85 1;
#X obj 182 61 loadbang;
#X obj 47 221 abs~;
#X obj 86 221 abs~;
#X obj 47 246 -~, f 6;
#X obj 47 271 *~ 0.5;
#X obj 86 196 -~;
#X obj 47 196 +~;
#X connect 1 0 11 0;
#X connect 1 0 10 0;
#X connect 2 0 3 0;
#X connect 3 0 10 1;
#X connect 3 0 11 1;
#X connect 4 0 3 0;
#X connect 5 0 4 0;
#X connect 6 0 8 0;
#X connect 7 0 8 1;
#X connect 8 0 9 0;
#X connect 9 0 0 0;
#X connect 10 0 7 0;
#X connect 11 0 6 0;
