#N canvas 780 397 613 305 10;
#X obj 139 232 hip~ 22;
#X obj 139 255 outlet~;
#X obj 69 31 inlet MidiPitchVelADSR;
#X obj 328 31 inlet RealtimeUI;
#X obj 436 31 inlet PortementoSpeed;
#X obj 139 161 pack f f f f f f f f f f f f f;
#X obj 69 57 unpack f f f f f f f f f f f f f;
#X obj 56 120 portamento;
#X obj 139 209 soft_clip;
#X obj 139 185 voice, f 32;
#X obj 39 90 poly 1 1;
#X connect 0 0 1 0;
#X connect 2 0 6 0;
#X connect 3 0 9 1;
#X connect 4 0 7 2;
#X connect 5 0 9 0;
#X connect 6 0 10 0;
#X connect 6 1 10 1;
#X connect 6 2 5 2;
#X connect 6 3 5 3;
#X connect 6 4 5 4;
#X connect 6 5 5 5;
#X connect 6 6 5 6;
#X connect 6 7 5 7;
#X connect 6 8 5 8;
#X connect 6 9 5 9;
#X connect 6 10 5 10;
#X connect 6 11 5 11;
#X connect 6 12 5 12;
#X connect 7 0 5 0;
#X connect 7 1 5 1;
#X connect 8 0 0 0;
#X connect 9 0 8 0;
#X connect 10 1 7 0;
#X connect 10 2 7 1;
