#N canvas 779 397 402 309 12;
#X obj 34 256 outlet~;
#X obj 34 114 phasor~;
#X obj 101 178 *~ 2;
#X obj 101 203 -~ 1;
#X obj 169 204 -~ 0.5;
#X obj 169 230 hip~ 10;
#X obj 34 178 cos~;
#X obj 257 29 inlet DutyCycle;
#X obj 141 29 inlet Phase;
#X obj 34 29 inlet Freq;
#X msg 272 144 0.5;
#X obj 272 114 loadbang;
#X obj 141 56 clip 0 1;
#X obj 101 256 outlet~;
#X obj 169 256 outlet~;
#X obj 169 178 hv.lte~, f 13;
#X connect 1 0 2 0;
#X connect 1 0 6 0;
#X connect 1 0 15 0;
#X connect 2 0 3 0;
#X connect 3 0 13 0;
#X connect 4 0 5 0;
#X connect 5 0 14 0;
#X connect 6 0 0 0;
#X connect 7 0 15 1;
#X connect 8 0 12 0;
#X connect 9 0 1 0;
#X connect 10 0 15 1;
#X connect 11 0 10 0;
#X connect 12 0 1 1;
#X connect 15 0 4 0;
