#N canvas 780 397 462 298 12;
#X obj 37 48 inlet;
#X obj 173 48 inlet;
#X obj 269 48 inlet;
#X obj 37 242 outlet;
#X obj 173 242 outlet;
#X obj 37 210 line, f 9;
#X text 38 27 note;
#X text 172 27 velocity;
#X text 269 28 portamento speed (ms);
#X obj 37 178 pack 0 1, f 9;
#X obj 269 97 loadbang;
#X text 269 77 update frequency (ms);
#X msg 269 121 4;
#X obj 37 145 f, f 4;
#X obj 50 91 > 0;
#X obj 50 113 sel 1;
#X connect 0 0 13 0;
#X connect 1 0 4 0;
#X connect 1 0 14 0;
#X connect 2 0 9 1;
#X connect 5 0 3 0;
#X connect 9 0 5 0;
#X connect 10 0 12 0;
#X connect 12 0 5 2;
#X connect 13 0 9 0;
#X connect 14 0 15 0;
#X connect 15 0 13 0;
