#N canvas 779 396 438 313 12;
#X obj 34 32 inlet~ A;
#X obj 101 32 inlet~ B;
#X obj 166 32 inlet~ C;
#X obj 249 32 inlet Select;
#X msg 215 114 0;
#X msg 182 114 1;
#X msg 280 114 0;
#X msg 247 114 1;
#X obj 345 57 loadbang;
#X obj 249 57 sel 0 1 2, f 10;
#X msg 312 114 1;
#X msg 345 114 0;
#X obj 33 193 *~;
#X obj 100 193 *~;
#X obj 167 193 *~;
#X obj 99 217 +~, f 10;
#X obj 32 240 +~, f 10;
#X obj 32 264 outlet~;
#X connect 0 0 12 0;
#X connect 1 0 13 0;
#X connect 2 0 14 0;
#X connect 3 0 9 0;
#X connect 4 0 12 1;
#X connect 5 0 12 1;
#X connect 6 0 13 1;
#X connect 7 0 13 1;
#X connect 8 0 5 0;
#X connect 8 0 6 0;
#X connect 8 0 11 0;
#X connect 9 0 5 0;
#X connect 9 0 6 0;
#X connect 9 0 11 0;
#X connect 9 1 4 0;
#X connect 9 1 7 0;
#X connect 9 1 11 0;
#X connect 9 2 4 0;
#X connect 9 2 6 0;
#X connect 9 2 10 0;
#X connect 10 0 14 1;
#X connect 11 0 14 1;
#X connect 12 0 16 0;
#X connect 13 0 15 0;
#X connect 14 0 15 1;
#X connect 15 0 16 1;
#X connect 16 0 17 0;
