#N canvas 779 397 348 353 12;
#X obj 36 298 outlet~;
#X obj 37 30 inlet~ Audio;
#X obj 185 29 inlet KneeControl;
#X obj 36 275 lowpass_filter;
#X obj 185 127 / 2;
#X obj 111 127 knee_clip;
#X obj 111 72 abs~;
#X obj 111 152 *~, f 11;
#X obj 37 177 +~, f 11;
#X obj 37 127 knee_clip;
#X obj 215 127 + 1;
#X obj 36 202 *~, f 26;
#X obj 185 55 clip -1 1;
#X obj 36 227 hip~ 22;
#X obj 36 251 clip~ -1 1;
#X connect 1 0 6 0;
#X connect 1 0 9 0;
#X connect 2 0 12 0;
#X connect 3 0 0 0;
#X connect 4 0 7 1;
#X connect 5 0 7 0;
#X connect 6 0 5 0;
#X connect 7 0 8 1;
#X connect 8 0 11 0;
#X connect 9 0 8 0;
#X connect 10 0 11 1;
#X connect 11 0 13 0;
#X connect 12 0 5 1;
#X connect 12 0 4 0;
#X connect 12 0 9 1;
#X connect 12 0 10 0;
#X connect 13 0 14 0;
#X connect 14 0 3 0;
