#N canvas 779 397 326 298 12;
#X obj 45 235 outlet~;
#X obj 46 35 inlet~ Audio;
#X obj 208 33 inlet Gain;
#X obj 208 58 clip 0 1;
#X obj 45 212 lowpass_filter;
#X obj 45 139 cubic_clip;
#X obj 127 117 cubic_clip;
#X obj 127 139 *~, f 12;
#X obj 127 95 abs~;
#X obj 45 166 +~, f 12;
#X obj 45 189 hip~ 22;
#X connect 1 0 5 0;
#X connect 1 0 8 0;
#X connect 2 0 3 0;
#X connect 3 0 7 1;
#X connect 4 0 0 0;
#X connect 5 0 9 0;
#X connect 6 0 7 0;
#X connect 7 0 9 1;
#X connect 8 0 6 0;
#X connect 9 0 10 0;
#X connect 10 0 4 0;
