#N canvas 780 397 334 274 12;
#X obj 47 144 *~ 1.5;
#X obj 107 167 *~ 0.5;
#X obj 47 190 -~, f 9;
#X obj 47 215 outlet~;
#X obj 107 144 pow_3;
#X obj 46 34 inlet~ Audio;
#X obj 47 106 hard_clip;
#X msg 107 84 2;
#X obj 107 62 loadbang;
#X connect 0 0 2 0;
#X connect 1 0 2 1;
#X connect 2 0 3 0;
#X connect 4 0 1 0;
#X connect 5 0 6 0;
#X connect 6 0 0 0;
#X connect 6 0 4 0;
#X connect 7 0 6 1;
#X connect 8 0 7 0;
