#N canvas 780 397 375 407 12;
#X obj 46 248 *~, f 11;
#X obj 135 248 *~, f 6;
#X obj 135 224 abs~;
#X obj 45 296 /~, f 13;
#X obj 134 272 +~ 1;
#X obj 120 189 + 1;
#X obj 45 344 outlet~;
#X obj 174 111 * 2;
#X obj 174 157 /, f 5;
#X obj 206 134 -, f 5;
#X obj 206 88 t b f;
#X msg 206 111 1;
#X obj 206 60 clip -0.6 0.8;
#X obj 45 35 inlet~ Audio;
#X obj 206 37 inlet WarpControl;
#X obj 45 320 lowpass_filter;
#X obj 46 189 soft_clip;
#X connect 0 0 3 0;
#X connect 1 0 4 0;
#X connect 2 0 1 0;
#X connect 3 0 15 0;
#X connect 4 0 3 1;
#X connect 5 0 0 1;
#X connect 7 0 8 0;
#X connect 8 0 1 1;
#X connect 8 0 5 0;
#X connect 9 0 8 1;
#X connect 10 0 11 0;
#X connect 10 1 9 1;
#X connect 11 0 9 0;
#X connect 12 0 10 0;
#X connect 12 0 7 0;
#X connect 13 0 16 0;
#X connect 14 0 12 0;
#X connect 15 0 6 0;
#X connect 16 0 0 0;
#X connect 16 0 2 0;
