#N canvas 346 178 1192 647 10;
#X obj 24 811 mtof;
#X obj 393 485 clip 0 127;
#X obj 393 515 / 127;
#X obj 393 614 sel 0;
#X obj 420 635 t f f, f 20;
#X obj 420 728 pack f f f f f;
#X obj 537 658 *;
#X msg 420 750 \$1 \$2 \, \$3 \$4 \$5;
#X obj 760 614 > 0;
#X obj 760 635 sel 1 0;
#X obj 760 658 timer, f 7;
#X obj 652 707 f;
#X obj 652 726 +, f 5;
#X obj 652 767 t f f, f 25;
#X obj 652 788 >= 0;
#X obj 652 809 sel 0 1;
#X obj 652 964 f;
#X msg 652 986 0 \$1;
#X obj 799 830 min;
#X obj 799 851 min, f 6;
#X obj 671 896 f;
#X obj 686 874 *;
#X obj 771 943 pack f f f;
#X msg 771 964 \$1 \$2 \, 0 \$3 \$2;
#X obj 357 1516 outlet~;
#X obj 36 767 t b f;
#X obj 24 790 + 0, f 7;
#X obj 24 26 inlet PitchVelADSR;
#X obj 891 329 s \$0-RectifyVox;
#X obj 877 350 s \$0-BlendVox;
#X obj 464 388 s \$0-ReleaseVox;
#X obj 448 412 s \$0-SustainVox;
#X obj 428 436 s \$0-DecayVox;
#X obj 411 461 s \$0-AttackVox;
#X obj 738 570 s \$0-BendVox;
#X obj 36 746 r \$0-BendVox;
#X obj 552 635 r \$0-SustainVox;
#X obj 440 658 r \$0-AttackVox;
#X obj 537 681 r \$0-DecayVox;
#X obj 545 702 r \$0-AttackVox;
#X obj 667 658 r \$0-AttackVox;
#X obj 679 707 r \$0-DecayVox;
#X obj 814 809 r \$0-DecayVox;
#X obj 832 830 r \$0-ReleaseVox;
#X obj 828 920 r \$0-ReleaseVox;
#X obj 667 943 r \$0-ReleaseVox;
#X obj 701 851 r \$0-SustainVox;
#X obj 526 996 r \$0-SubLevelVox;
#X obj 751 548 s \$0-SubLevelVox;
#X obj 738 26 inlet Realtime;
#X obj 849 394 s \$0-PulseWidthVox;
#X obj 759 1030 sel 0;
#X obj 786 1090 t f f, f 23;
#X obj 786 1182 pack f f f f f;
#X obj 921 1111 *;
#X msg 786 1202 \$1 \$2 \, \$3 \$4 \$5;
#X msg 786 1070 1;
#X obj 786 1050 bang;
#X obj 357 1474 lop~, f 72;
#X obj 786 1436 +;
#X obj 786 1455 clip 5 20000;
#X obj 786 1284 snapshot~;
#X obj 794 1263 metro 0.1;
#X obj 794 1242 loadbang;
#X obj 24 48 unpack f f f f f f f f f f f f f;
#X obj 786 1398 * 10000;
#X obj 936 1090 r \$0-LPSustainVox;
#X obj 806 1114 r \$0-LPAttackVox;
#X obj 914 1137 r \$0-LPDecayVox;
#X obj 915 1158 r \$0-LPAttackVox;
#X obj 801 1417 r \$0-LPCutoffVox;
#X obj 544 217 s \$0-LPSustainVox;
#X obj 529 242 s \$0-LPDecayVox;
#X obj 518 267 s \$0-LPAttackVox;
#X obj 505 291 s \$0-LPCutoffVox;
#X obj 905 307 s \$0-OscSineVox;
#X obj 919 285 s \$0-OscSawVox;
#X obj 933 263 s \$0-OscPulseVox;
#X obj 947 241 s \$0-OscSubTypeVox;
#X obj 426 1432 r \$0-BitDepth;
#X obj 1003 156 s \$0-BitDepth;
#X obj 1017 135 s \$0-Gain;
#X obj 670 1040 r \$0-Gain;
#X obj 441 1133 r \$0-RectifyVox;
#X obj 417 1305 r \$0-BlendVox;
#X obj 453 1192 r \$0-skClipVox;
#X obj 1045 93 s \$0-skClipVox;
#X obj 1031 114 s \$0-scThreshVox;
#X obj 863 372 s \$0-KWarpVox;
#X obj 600 1167 r \$0-KWarpVox;
#X obj 459 1255 r \$0-scThreshVox;
#X obj 357 1432 hip~ 22;
#X obj 402 1192 *~ 2;
#N canvas 779 396 312 215 Osc-Sub 0;
#X obj 95 97 r \$0-PulseWidthVox;
#X obj 124 118 r \$0-OscSubTypeVox;
#X obj 37 164 outlet~;
#X obj 37 76 -;
#X obj 52 55 r \$0-UnisonVox;
#X obj 37 97 / 2;
#X obj 37 33 inlet Freq;
#X obj 66 76 r \$0-OscPhase;
#X obj 37 139 osc_sync_select;
#X connect 0 0 8 2;
#X connect 1 0 8 3;
#X connect 3 0 5 0;
#X connect 4 0 3 1;
#X connect 5 0 8 0;
#X connect 6 0 3 0;
#X connect 7 0 8 1;
#X connect 8 0 2 0;
#X restore 441 996 pd Osc-Sub;
#N canvas 781 397 494 371 Osc-Main 0;
#X obj 161 144 phasor~;
#X obj 345 144 r \$0-PulseWidthVox;
#X obj 46 239 r \$0-OscSineVox;
#X obj 176 239 r \$0-OscSawVox;
#X obj 304 239 r \$0-OscPulseVox;
#X obj 31 323 outlet~;
#X obj 288 144 phasor~;
#X obj 161 108 +;
#X obj 288 85 -;
#X obj 303 54 r \$0-UnisonVox;
#X obj 31 259 *~;
#X obj 161 259 *~;
#X obj 289 259 *~;
#X obj 160 279 +~, f 22;
#X obj 31 301 +~, f 22;
#X obj 161 165 *~ 2;
#X obj 161 186 -~ 1;
#X obj 288 185 -~ 0.5;
#X obj 288 205 hip~ 10;
#X obj 30 165 cos~;
#X obj 31 144 phasor~;
#X obj 31 31 inlet Freq;
#X obj 70 123 r \$0-OscPhase;
#X obj 200 122 r \$0-OscPhase;
#X obj 327 122 r \$0-OscPhase;
#X obj 288 165 hv.lte~, f 10;
#X connect 0 0 15 0;
#X connect 1 0 25 1;
#X connect 2 0 10 1;
#X connect 3 0 11 1;
#X connect 4 0 12 1;
#X connect 6 0 25 0;
#X connect 7 0 0 0;
#X connect 8 0 6 0;
#X connect 9 0 8 1;
#X connect 9 0 7 1;
#X connect 10 0 14 0;
#X connect 11 0 13 0;
#X connect 12 0 13 1;
#X connect 13 0 14 1;
#X connect 14 0 5 0;
#X connect 15 0 16 0;
#X connect 16 0 11 0;
#X connect 17 0 18 0;
#X connect 18 0 12 0;
#X connect 19 0 10 0;
#X connect 20 0 19 0;
#X connect 21 0 8 0;
#X connect 21 0 7 0;
#X connect 21 0 20 0;
#X connect 22 0 20 1;
#X connect 23 0 0 1;
#X connect 24 0 6 1;
#X connect 25 0 17 0;
#X restore 354 996 pd Osc-Main;
#X obj 738 49 unpack f f f f f f f f f f f f f f f f f f f f f f f f;
#X obj 1059 72 s \$0-UnisonVox;
#X obj 402 1154 rectify;
#X obj 652 746 -, f 23;
#X obj 402 1234 +~, f 25;
#X obj 402 1255 /~ 2;
#X obj 355 1018 signal_blender, f 29;
#X obj 355 1040 *~, f 50;
#X obj 355 1062 *~, f 53;
#X obj 355 1083 *~ 0.5;
#X obj 402 1213 soft_knee;
#X obj 549 1187 soft_warp;
#X obj 402 1276 soft_cubic;
#X obj 357 1453 bitcrusher, f 12;
#X obj 356 1349 *~;
#X obj 357 1387 +~, f 8;
#X obj 402 1349 *~;
#X obj 402 1368 *~ 0.25;
#X obj 371 1330 cos;
#X obj 417 1330 sin;
#X obj 786 1341 pow, f 5;
#X obj 786 1303 t b f;
#X msg 786 1322 30;
#X obj 786 1360 - 1;
#X obj 786 1379 / 29;
#X obj 760 678 t b f;
#X obj 78 767 loadbang;
#X obj 78 811 s \$0-OscPhase;
#X msg 78 790 0;
#X text 529 1458 Consider replacing with |vcf~|;
#X obj 686 830 r \$0-NoteTrigger;
#X obj 410 569 s \$0-NoteTrigger;
#X obj 759 1010 r \$0-NoteTrigger;
#X obj 652 1017 hv.vline~;
#X obj 786 1222 hv.vline~;
#X obj 24 832 t f f, f 70;
#X obj 357 1495 soft_clip;
#X connect 0 0 130 0;
#X connect 1 0 2 0;
#X connect 2 0 3 0;
#X connect 2 0 8 0;
#X connect 2 0 126 0;
#X connect 3 1 4 0;
#X connect 4 0 5 0;
#X connect 4 1 6 0;
#X connect 5 0 7 0;
#X connect 6 0 5 2;
#X connect 7 0 128 0;
#X connect 8 0 9 0;
#X connect 9 0 10 0;
#X connect 9 1 10 1;
#X connect 10 0 120 0;
#X connect 11 0 12 0;
#X connect 12 0 98 0;
#X connect 13 0 14 0;
#X connect 13 1 18 0;
#X connect 14 0 15 0;
#X connect 15 0 16 0;
#X connect 15 1 20 0;
#X connect 16 0 17 0;
#X connect 17 0 128 0;
#X connect 18 0 19 0;
#X connect 19 0 22 1;
#X connect 20 0 22 0;
#X connect 21 0 20 1;
#X connect 22 0 23 0;
#X connect 23 0 128 0;
#X connect 25 0 26 0;
#X connect 25 1 26 1;
#X connect 26 0 0 0;
#X connect 27 0 64 0;
#X connect 35 0 25 0;
#X connect 36 0 6 1;
#X connect 37 0 5 1;
#X connect 38 0 5 3;
#X connect 39 0 5 4;
#X connect 40 0 11 1;
#X connect 41 0 12 1;
#X connect 42 0 18 1;
#X connect 43 0 19 1;
#X connect 44 0 22 2;
#X connect 45 0 16 1;
#X connect 46 0 21 1;
#X connect 47 0 101 2;
#X connect 49 0 95 0;
#X connect 51 1 57 0;
#X connect 52 0 53 0;
#X connect 52 1 54 0;
#X connect 53 0 55 0;
#X connect 54 0 53 2;
#X connect 55 0 129 0;
#X connect 56 0 52 0;
#X connect 57 0 56 0;
#X connect 58 0 131 0;
#X connect 59 0 60 0;
#X connect 60 0 58 1;
#X connect 61 0 116 0;
#X connect 62 0 61 0;
#X connect 63 0 62 0;
#X connect 64 0 26 0;
#X connect 64 1 1 0;
#X connect 64 2 33 0;
#X connect 64 3 32 0;
#X connect 64 4 31 0;
#X connect 64 5 30 0;
#X connect 64 9 74 0;
#X connect 64 10 73 0;
#X connect 64 11 72 0;
#X connect 64 12 71 0;
#X connect 65 0 59 0;
#X connect 66 0 54 1;
#X connect 67 0 53 1;
#X connect 68 0 53 3;
#X connect 69 0 53 4;
#X connect 70 0 59 1;
#X connect 79 0 108 1;
#X connect 82 0 103 1;
#X connect 83 0 97 1;
#X connect 84 0 113 0;
#X connect 84 0 114 0;
#X connect 85 0 105 1;
#X connect 89 0 106 1;
#X connect 90 0 107 1;
#X connect 91 0 108 0;
#X connect 92 0 105 0;
#X connect 93 0 101 1;
#X connect 94 0 101 0;
#X connect 95 0 34 0;
#X connect 95 1 48 0;
#X connect 95 8 50 0;
#X connect 95 9 88 0;
#X connect 95 10 29 0;
#X connect 95 11 28 0;
#X connect 95 12 75 0;
#X connect 95 13 76 0;
#X connect 95 14 77 0;
#X connect 95 15 78 0;
#X connect 95 19 80 0;
#X connect 95 20 81 0;
#X connect 95 21 87 0;
#X connect 95 22 86 0;
#X connect 95 23 96 0;
#X connect 97 0 92 0;
#X connect 97 0 106 0;
#X connect 98 0 13 0;
#X connect 99 0 100 0;
#X connect 100 0 107 0;
#X connect 101 0 102 0;
#X connect 102 0 103 0;
#X connect 103 0 104 0;
#X connect 104 0 109 0;
#X connect 104 0 97 0;
#X connect 105 0 99 0;
#X connect 106 0 99 1;
#X connect 107 0 111 0;
#X connect 108 0 58 0;
#X connect 109 0 110 0;
#X connect 110 0 91 0;
#X connect 111 0 112 0;
#X connect 112 0 110 1;
#X connect 113 0 109 1;
#X connect 114 0 111 1;
#X connect 115 0 118 0;
#X connect 116 0 117 0;
#X connect 116 1 115 1;
#X connect 117 0 115 0;
#X connect 118 0 119 0;
#X connect 119 0 65 0;
#X connect 120 0 11 0;
#X connect 120 1 98 1;
#X connect 121 0 123 0;
#X connect 123 0 122 0;
#X connect 125 0 21 0;
#X connect 127 0 51 0;
#X connect 128 0 102 1;
#X connect 129 0 61 0;
#X connect 130 0 94 0;
#X connect 130 1 93 0;
#X connect 131 0 24 0;
#X coords 0 0 1 1 85 60 0;
